<svg width="302" height="236" viewBox="0 0 302 236" fill="none" xmlns="http://www.w3.org/2000/svg">
<path fill-rule="evenodd" clip-rule="evenodd" d="M256.714 33.5162C207.859 5.48075 169.766 87.7747 142.099 98.1346C86.3383 119.013 -17.2317 137.172 2.52008 177.764C29.6408 233.499 124.006 239.06 191.488 233.499C279.261 226.265 352.768 88.6364 256.714 33.5162Z" fill="#FFE482"/>
<path fill-rule="evenodd" clip-rule="evenodd" d="M249.63 123.347C250.134 123.791 250.305 124.486 250.431 125.152L251.196 129.328C251.303 129.908 251.79 130.183 251.978 129.853C252.176 129.503 252.707 129.648 253.062 129.837L257.499 132.198C255.989 133.281 254.208 133.983 252.366 134.221C251.457 134.338 251.31 135.583 251.407 136.493L251.67 138.972C251.752 139.744 250.537 140.006 249.93 139.522C249.323 139.037 249.093 138.226 248.615 137.614C247.843 136.626 246.477 136.258 245.228 136.372C243.979 136.487 242.81 137.01 241.667 137.527C240.93 137.859 240.119 136.978 240.177 136.171C240.228 135.459 240.683 134.863 241.147 134.307L241.332 134.087C241.853 133.469 242.374 132.736 242.286 131.932C242.213 131.262 241.735 130.723 241.255 130.242L240.975 129.961C240.53 129.506 240.108 129.001 240.03 128.38C239.941 127.67 240.589 126.853 241.27 127.073C243.892 127.921 247.05 126.268 247.847 123.63C248.055 122.945 249.094 122.873 249.63 123.347Z" fill="white"/>
<path fill-rule="evenodd" clip-rule="evenodd" d="M249.63 123.347C250.134 123.791 250.305 124.486 250.431 125.152L251.196 129.328C251.303 129.908 251.069 130.807 250.515 130.604C249.725 128.93 249.305 127.083 249.293 125.233C248.992 124.943 248.544 125.374 248.356 125.747L246.484 129.477C246.155 130.134 245.171 129.989 244.521 129.645L244.173 129.461C243.609 129.169 242.995 128.91 242.461 129.198C242.188 130.015 243.401 130.422 244.03 131.01C244.748 131.681 244.706 132.887 244.204 133.732C243.701 134.577 242.853 135.147 242.032 135.688C243.211 135.883 244.469 135.538 245.384 134.77C245.798 134.422 246.177 133.977 246.705 133.866C247.523 133.695 248.258 134.404 248.682 135.124C249.106 135.843 249.443 136.686 250.168 137.101C250.531 136.529 250.337 135.811 250.108 135.15L249.999 134.841C249.737 134.102 249.619 133.123 250.262 132.674C250.504 132.505 250.805 132.456 251.1 132.424L254.265 132.107L252.442 130.779C252.135 130.555 251.79 130.183 251.978 129.853C252.176 129.503 252.707 129.648 253.062 129.837L257.499 132.198C255.989 133.281 254.208 133.983 252.366 134.221C251.457 134.338 251.31 135.583 251.407 136.493L251.67 138.972C251.752 139.744 250.537 140.006 249.93 139.522C249.323 139.037 249.093 138.226 248.615 137.614C247.843 136.626 246.477 136.258 245.228 136.372C243.979 136.487 242.81 137.01 241.667 137.527C240.93 137.859 240.119 136.978 240.177 136.171C240.228 135.459 240.683 134.863 241.147 134.307L241.332 134.087C241.853 133.469 242.374 132.736 242.286 131.932C242.213 131.262 241.735 130.723 241.255 130.242L240.975 129.961C240.53 129.506 240.108 129.001 240.03 128.38C239.941 127.67 240.589 126.853 241.27 127.073C243.892 127.921 247.05 126.268 247.847 123.63C248.055 122.945 249.094 122.873 249.63 123.347Z" fill="#FFB61D"/>
<path fill-rule="evenodd" clip-rule="evenodd" d="M75.0701 48.4554C73.1716 40.0181 78.344 26.0125 87.5857 20.3813C96.8274 14.75 108.649 14.3642 118.941 17.7083C118.613 7.76542 128.696 -0.766669 138.611 0.0548008C148.525 0.876271 156.751 9.77745 158.083 19.6362C159.121 27.3179 155.178 36.4679 147.552 37.8593C150.248 47.4902 151.746 57.6234 150.267 67.5143C148.787 77.4053 144.08 87.0673 136.137 93.1434C133.944 96.0933 135.6 100.543 138.487 102.819C141.375 105.094 145.111 105.894 148.566 107.149C163.042 112.411 173.234 126.693 175.61 141.911C177.986 157.129 173.241 172.912 164.665 185.706C158.791 194.47 150.801 202.253 140.804 205.623C126.772 210.353 111.386 205.747 97.7608 199.949C92.5667 197.739 87.2773 195.227 83.6108 190.935C79.6803 186.334 72.2516 188.819 66.8944 191.633C70.4565 193.111 74.0186 194.589 77.5807 196.067C78.3462 196.384 79.1766 196.762 79.5315 197.51C80.2787 199.087 78.4381 200.604 76.8801 201.388C75.2059 202.231 73.5317 203.074 71.8575 203.917C61.581 209.092 50.8784 214.379 39.377 214.699C26.8024 215.048 14.9244 209.428 3.60754 203.935C2.34965 203.325 1.01627 202.645 0.332311 201.426C-0.351651 200.206 0.0306662 198.304 1.38243 197.947C14.078 194.589 26.0977 188.697 36.5273 180.717C35.7295 175.75 35.9175 170.626 37.0773 165.73C37.245 165.022 37.4863 164.246 38.1173 163.883C39.6686 162.992 41.0161 165.34 41.2902 167.108C41.9821 171.57 42.674 176.033 43.3659 180.496C51.674 179.577 59.7372 176.525 66.5717 171.713C61.2411 167.42 55.9105 163.127 50.58 158.834C47.5043 156.357 44.5354 154.876 42.8744 150.025C41.767 146.792 42.6607 143.47 45.5557 140.061C42.324 123.955 40.9099 111.815 41.3136 103.639C41.4213 101.457 41.6655 99.1011 43.1344 97.4836C45.7272 94.6285 50.8184 95.8597 53.185 98.905C55.5517 101.95 55.9478 106.037 56.2538 109.882C65.265 108.781 74.2763 107.68 83.2875 106.579C86.5844 106.176 89.9985 105.782 93.1717 106.764C97.1527 107.995 100.35 111.481 101.233 115.554C105.035 114.526 109.177 113.26 111.324 109.958C113.472 106.656 111.653 100.913 107.717 101.083C95.4077 101.616 83.3689 92.4816 80.5672 80.4831C79.8546 77.4315 79.5777 74.0404 77.4354 71.7533C74.0408 68.1292 71.4542 63.457 71.4708 58.4913C71.4874 53.5256 73.5678 52.9331 75.0701 48.4554ZM1.59049 201.273C1.86765 201.688 2.35138 201.904 2.80954 202.1C7.51026 204.112 12.211 206.124 16.9117 208.136C19.0506 209.051 21.1964 209.969 23.4332 210.609C29.6713 212.394 36.3933 211.958 42.5956 213.864C43.3479 214.095 44.1555 213.856 44.9046 213.615C50.3141 211.872 55.66 209.933 60.9281 207.8C66.4395 205.57 71.9012 203.109 76.7946 199.731C77.2398 199.424 77.7018 199.083 77.9049 198.581C78.1081 198.08 77.9209 197.383 77.4006 197.235C74.0982 196.297 70.8436 195.191 67.6537 193.922C66.6282 193.514 65.4737 192.932 65.2562 191.85C62.446 191.963 59.9886 193.735 57.9158 195.636C55.8429 197.537 53.8958 199.684 51.3417 200.861C48.7876 202.039 45.3596 201.937 43.5902 199.751C43.4012 199.517 43.2115 199.249 42.9209 199.173C42.6303 199.097 42.257 199.386 42.3925 199.654C42.7432 200.349 41.9898 201.227 41.2133 201.179C40.4367 201.13 39.8296 200.423 39.6384 199.669C39.4473 198.915 38.4097 200.262 36.906 200.486C35.4023 200.71 33.807 199.745 33.3075 198.309C32.8959 197.126 31.282 197.105 30.0487 196.884C27.2446 196.38 25.1152 193.442 25.5096 190.62C17.4508 193.308 9.53806 196.434 1.81803 199.979C1.36515 200.187 1.31334 200.859 1.59049 201.273Z" fill="white"/>
<path d="M114.728 85.1885C117.095 85.1885 119.013 83.2702 119.013 80.9039C119.013 78.5376 117.095 76.6193 114.728 76.6193C112.362 76.6193 110.444 78.5376 110.444 80.9039C110.444 83.2702 112.362 85.1885 114.728 85.1885Z" fill="#FFB61D"/>
<path d="M84.9878 81.66C86.2406 81.66 87.2561 80.6445 87.2561 79.3917C87.2561 78.1389 86.2406 77.1234 84.9878 77.1234C83.735 77.1234 82.7195 78.1389 82.7195 79.3917C82.7195 80.6445 83.735 81.66 84.9878 81.66Z" fill="#FFB61D"/>
<path fill-rule="evenodd" clip-rule="evenodd" d="M135.189 98.1001C135.582 100.137 136.748 102.11 138.301 103.333C141.188 105.608 147.678 107.951 151.133 109.207C151.447 109.321 149.675 110.322 147.387 112.536C141.191 118.529 127.645 129.261 114.412 123.868C112.865 123.237 111.572 122.512 110.518 121.743C109.548 121.034 118.457 122.055 126.787 120.476C135.161 118.888 142.953 114.693 140.867 111.368C138.907 108.242 133.394 102.947 132.964 99.8327C132.391 95.6836 134.852 96.3498 135.189 98.1001Z" fill="#E7EAEE"/>
<path fill-rule="evenodd" clip-rule="evenodd" d="M1.42041 200.095C1.42041 198.433 6.66125 197.088 15.6205 193.718C21.7826 191.4 33.7934 184.693 39.7028 184.381C43.6351 184.173 59.3495 189.926 69.605 194.058C74.7617 196.135 78.7395 197.436 78.7395 198.103C78.7395 199.442 67.7904 205.905 56.5999 210.153C51.1378 212.226 46.0132 214.083 41.3135 213.958C26.9852 213.575 1.42041 204.303 1.42041 200.095Z" fill="white"/>
<path fill-rule="evenodd" clip-rule="evenodd" d="M203.84 62.0482C183.293 70.8237 166.129 85.8187 149.774 101.067L148.774 102.001C147.82 102.893 146.372 103.825 145.343 103.022L148.52 100.129C165.148 85.022 182.339 70.0424 202.912 61.1426C218.729 54.3001 218.561 55.7605 203.84 62.0482ZM115.337 208.221L124.975 218.72C125.448 219.235 125.94 219.787 126.072 220.472C126.204 221.158 125.807 221.996 125.112 222.068L105.267 224.144C101.971 224.488 98.6094 222.203 97.6603 219.027C96.7112 215.852 98.2303 212.132 101.101 210.477C103.972 208.821 107.91 209.343 110.293 211.646C110.883 212.217 111.92 211.732 112.339 211.026C112.758 210.32 112.848 209.454 113.281 208.757C113.714 208.06 114.782 207.617 115.337 208.221ZM99.3338 214.281C98.1032 216.617 98.8814 219.78 100.988 221.371C102.02 222.151 103.287 222.569 104.564 222.775C106.368 223.066 108.461 222.846 109.62 221.434C110.044 220.919 110.303 220.287 110.48 219.644C111.07 217.503 110.77 215.132 109.666 213.206C109.366 212.681 108.904 212.134 108.3 212.16C108.013 212.173 107.747 212.318 107.461 212.347C106.986 212.396 106.546 212.125 106.112 211.923C103.719 210.809 100.564 211.946 99.3338 214.281ZM114.481 210.327C114.102 211.907 113.318 213.388 112.224 214.59C111.916 214.928 111.992 215.451 112.054 215.905C112.358 218.112 111.855 220.422 110.661 222.304C112.618 221.84 114.619 221.564 116.627 221.478C119.381 221.361 122.254 221.582 124.778 220.474C123.429 219.887 122.285 218.844 121.577 217.555C121.16 216.797 120.584 216.141 120.013 215.492L115.625 210.505C115.307 210.145 114.593 209.86 114.481 210.327ZM64.6424 210.233C65.2717 212.198 67.6386 212.871 69.6892 213.225L83.3737 215.51C86.5379 216.038 89.7856 216.566 92.9323 215.942C93.526 215.825 93.84 216.767 93.4483 217.229C93.0566 217.69 92.375 217.745 91.7698 217.747C89.0282 217.756 86.3028 217.392 83.5894 216.984L80.6994 216.543C75.5843 215.757 70.4717 214.92 65.4651 213.617C64.6081 213.394 63.7203 213.139 63.0643 212.545C62.4083 211.95 62.0671 210.911 62.5287 210.155C62.9904 209.399 64.3723 209.389 64.6424 210.233ZM138.611 0.0548008C148.525 0.876271 156.751 9.77745 158.083 19.6362C159.121 27.3179 155.178 36.4679 147.552 37.8593C150.248 47.4902 151.746 57.6234 150.267 67.5143C148.787 77.4053 144.08 87.0673 136.137 93.1434C133.944 96.0933 135.6 100.543 138.487 102.819C141.375 105.094 145.111 105.894 148.566 107.149C163.042 112.411 173.234 126.693 175.61 141.911C177.986 157.129 173.241 172.912 164.665 185.706C158.791 194.47 150.801 202.253 140.804 205.623C126.912 210.306 111.694 205.839 98.1701 200.123L97.7608 199.949C92.6749 197.785 87.4976 195.331 83.8421 191.201L83.6108 190.935C79.6803 186.334 72.2516 188.819 66.8944 191.633L77.5807 196.067C78.3462 196.384 79.1766 196.762 79.5315 197.51C80.2787 199.087 78.4381 200.604 76.8801 201.388L70.6055 204.547C60.7119 209.513 50.4121 214.392 39.377 214.699C26.9486 215.044 15.2007 209.558 4.00254 204.127L3.29191 203.781C2.13193 203.208 0.959275 202.543 0.332311 201.426C-0.351651 200.206 0.0306662 198.304 1.38243 197.947C14.078 194.589 26.0977 188.697 36.5273 180.717C35.7295 175.75 35.9175 170.626 37.0773 165.73L37.1364 165.492C37.3035 164.855 37.5564 164.205 38.1173 163.883C39.6686 162.992 41.0161 165.34 41.2902 167.108L43.3659 180.496C51.6739 179.577 59.7372 176.525 66.5717 171.713L50.1501 158.487C47.21 156.109 44.2332 153.537 42.8743 150.025C41.4492 146.342 42.5957 141.35 46.2787 139.925C46.5693 125.974 45.8339 112.001 44.0804 98.158C41.6558 111.984 43.6044 126.16 45.5557 140.061C42.2099 128.479 40.7611 116.352 41.2826 104.308L41.3136 103.639C41.4213 101.457 41.6655 99.1011 43.1344 97.4836C45.7272 94.6285 50.8184 95.8597 53.185 98.905C55.5517 101.95 55.9478 106.037 56.2538 109.882L83.907 106.504C87.0102 106.132 90.1968 105.844 93.1717 106.764C97.1527 107.995 100.35 111.481 101.232 115.554L101.881 115.377C105.497 114.376 109.298 113.074 111.324 109.958C113.449 106.691 111.691 101.035 107.842 101.08L107.717 101.083C95.4077 101.616 83.3689 92.4816 80.5672 80.4831C79.8546 77.4315 79.5777 74.0404 77.4354 71.7533C74.0408 68.1292 71.4542 63.457 71.4708 58.4913C71.4874 53.5256 74.6536 48.4047 79.4753 47.2176C84.2971 46.0306 90.0036 50.0535 89.5875 55.0017C91.9268 54.7635 94.3197 55.068 96.5248 55.8844C95.2673 52.494 98.5268 48.7516 102.109 48.2595C105.692 47.7674 109.183 49.5568 112.162 51.6064C115.141 53.656 117.988 56.0689 121.451 57.1077L121.611 56.7383C122.327 55.0669 122.986 53.2819 122.625 51.5151C122.238 49.6174 120.1 47.9762 118.369 48.8451C117.154 45.3635 115.22 42.1344 112.725 39.4194L105.79 42.689C104.896 41.3508 104.349 39.7835 104.215 38.18C99.6358 40.7969 94.6657 42.7282 89.5211 43.8897L90.0476 39.9618L74.6738 47.947C72.4038 37.3656 78.344 26.0125 87.5857 20.3813C96.8274 14.75 108.649 14.3642 118.941 17.7083C118.613 7.76542 128.696 -0.766669 138.611 0.0548008ZM214.244 172.519C205.387 174.657 196.789 177.866 188.698 182.054L188.112 182.36C183.629 184.722 179.228 187.552 176.418 191.752C178.316 191.423 180.342 191.918 181.875 193.084C182.843 193.821 183.652 194.926 183.594 196.141C183.564 196.771 183.302 197.372 182.949 197.895C181.571 199.937 178.652 200.767 176.405 199.754C174.159 198.742 172.846 196.005 173.463 193.62C163.932 196.874 155.738 203.875 151.028 212.776L150.87 213.077C150.638 213.525 150.354 214.026 149.862 214.138C149.185 214.291 148.583 213.535 148.614 212.842C148.645 212.149 149.089 211.552 149.518 211.007C155.073 203.954 161.564 197.241 169.871 193.836L170.496 193.585C172.456 192.808 174.507 192.045 175.772 190.387C178.842 186.366 183.26 183.606 187.747 181.27C191.763 179.179 195.917 177.354 200.173 175.81C204.444 174.261 208.811 172.997 213.187 171.773L228.012 167.645C224.002 170.463 219.008 171.37 214.244 172.519ZM25.5096 190.62C17.4508 193.308 9.53806 196.434 1.81802 199.979C1.36515 200.187 1.31334 200.859 1.59049 201.273C1.86765 201.688 2.35138 201.904 2.80954 202.1L16.9117 208.136C19.0506 209.051 21.1964 209.969 23.4332 210.609C29.6713 212.394 36.3933 211.958 42.5956 213.864C43.3479 214.095 44.1555 213.856 44.9045 213.615C50.3141 211.872 55.66 209.933 60.9281 207.8C66.4395 205.57 71.9012 203.109 76.7946 199.731C77.2398 199.424 77.7018 199.083 77.9049 198.581C78.1081 198.08 77.9209 197.383 77.4006 197.235C74.0982 196.297 70.8436 195.191 67.6537 193.922L67.4323 193.831C66.468 193.428 65.4582 192.855 65.2562 191.85C62.446 191.963 59.9886 193.735 57.9157 195.636C55.8429 197.537 53.8957 199.684 51.3417 200.861C48.7876 202.039 45.3595 201.937 43.5902 199.751L43.4759 199.608C43.3213 199.417 43.1533 199.233 42.9209 199.173C42.6303 199.097 42.257 199.386 42.3925 199.654C42.7432 200.349 41.9898 201.227 41.2132 201.179C40.4367 201.13 39.8296 200.423 39.6384 199.669C39.5155 199.184 39.5263 198.683 39.5851 198.183L39.5999 198.06C39.2546 199.283 38.1723 200.297 36.906 200.486C35.4023 200.71 33.807 199.745 33.3075 198.309C32.8959 197.126 31.282 197.105 30.0487 196.884C27.2446 196.38 25.1152 193.442 25.5096 190.62ZM44.5544 143.525C42.8932 146.48 44.4362 150.22 46.4823 152.922C52.8985 161.397 63.6454 165.465 70.9781 173.161C72.8205 175.094 74.4265 177.237 76.0119 179.387L80.9952 186.155C81.911 187.399 82.8302 188.647 83.899 189.762C86.6858 192.67 90.3551 194.546 93.9844 196.293C101.348 199.836 108.924 203.092 116.919 204.784C124.914 206.475 133.41 206.533 141.102 203.775C148.302 201.193 154.506 196.242 159.326 190.303C164.032 184.505 167.486 177.785 170.254 170.847L170.455 170.339C170.854 169.327 171.245 168.269 171.162 167.185C171.075 166.038 170.464 164.995 169.751 164.093C167.032 160.654 162.489 158.709 158.137 159.246C153.854 159.775 149.932 162.747 148.363 166.763L148.29 166.955C144.881 176.198 136.39 183.15 126.852 185.617C117.314 188.084 106.94 186.316 98.2335 181.705C89.5274 177.094 82.4234 169.794 77.1266 161.487L76.8374 161.028C75.8806 159.492 75.0106 157.876 74.6738 156.105C74.3032 154.155 74.68 151.963 76.0875 150.565C77.0173 149.642 78.3405 149.1 79.0168 147.977C79.6931 146.855 78.8989 144.872 77.6513 145.273L76.819 145.536C71.0846 147.32 64.4317 148.704 59.8184 144.992L59.3751 144.637C57.2226 142.926 54.9224 141.294 52.2482 140.706C49.3896 140.077 45.9887 140.974 44.5544 143.525ZM67.4128 173.479C60.4574 177.874 52.6079 180.847 44.4863 182.162C43.4141 182.336 43.1259 183.726 43.1091 184.812C43.0554 188.264 43.2226 191.719 43.6092 195.15C44.4889 194.736 44.8488 193.701 45.4485 192.936C46.0483 192.171 47.417 191.751 47.8806 192.606C48.2044 193.203 47.7722 193.951 47.2203 194.347C46.6684 194.743 45.9897 194.957 45.4976 195.425C44.2731 196.59 44.9131 198.88 46.4049 199.673C47.8967 200.467 49.7837 200.053 51.214 199.153C52.6442 198.253 53.7492 196.934 54.9619 195.757C57.5556 193.24 60.7281 191.324 64.1625 190.199C68.5225 188.771 73.3775 188.558 77.2133 186.041C77.4717 185.872 77.7391 185.673 77.8366 185.379C77.9697 184.979 77.7445 184.563 77.5055 184.207L72.9161 177.543C72.185 176.481 71.3437 175.341 70.0912 175.037C69.5185 174.898 68.9079 174.952 68.3458 174.775C67.7838 174.597 67.2543 174.047 67.4128 173.479ZM35.3712 183.159C33.5819 183.995 32.5229 185.959 32.2872 187.92C32.0516 189.88 32.5143 191.855 33.064 193.751C33.4014 194.916 33.7756 196.076 34.3336 197.153C34.6895 197.839 35.1606 198.523 35.8737 198.821C36.5867 199.12 37.5763 198.851 37.808 198.114C37.9035 197.81 37.8607 197.482 37.8055 197.168C37.5978 195.99 37.2252 194.841 36.7024 193.764L36.4828 193.328C36.1682 192.699 35.872 191.956 36.2764 191.407C36.6626 190.882 37.6118 190.666 37.521 190.021L36.6349 183.721C36.609 183.537 36.5785 183.343 36.459 183.201C36.2073 182.901 35.7257 182.994 35.3712 183.159ZM177.235 192.876C176.645 192.873 176.023 192.954 175.549 193.307C175.271 193.513 175.061 193.801 174.914 194.114C174.29 195.436 174.865 197.135 176.047 197.996C177.228 198.857 178.865 198.937 180.233 198.422C181.279 198.027 182.285 197.134 182.25 196.017C182.223 195.135 181.554 194.399 180.815 193.916C179.761 193.226 178.495 192.881 177.235 192.876ZM38.7285 165.308C38.5773 165.421 38.5025 165.606 38.4386 165.784C37.5082 168.365 37.3942 171.164 37.4199 173.908C37.4843 180.788 38.3682 187.66 40.0471 194.333L40.1305 194.658C40.4737 195.961 40.9428 197.297 42.0056 198.103C42.2033 187.529 41.5172 176.938 39.9569 166.478C39.8556 165.799 39.2794 164.899 38.7285 165.308ZM30.3493 188.037C30.1271 188.099 29.9845 188.311 29.8737 188.513C28.9663 190.169 28.905 192.261 29.7139 193.967C30.0766 194.731 30.6985 195.475 31.5398 195.569C31.8828 195.142 31.726 194.526 31.5339 194.003L31.3679 193.561C30.7504 191.887 30.2436 190.075 30.7879 188.393C30.8589 188.173 30.5714 187.974 30.3493 188.037ZM27.3223 190.33C26.686 191.745 26.9695 193.525 28.0138 194.672C28.4448 194.231 28.2552 193.509 28.108 192.911C27.8776 191.974 27.8256 190.994 27.9555 190.038C27.795 189.802 27.4392 190.07 27.3223 190.33ZM40.7343 139.91C41.6988 140.741 42.3121 142.534 41.1666 143.089C40.4327 143.445 39.6011 142.924 38.908 142.494C35.307 140.26 30.7026 140.096 26.62 141.232C22.5374 142.369 18.8874 144.684 15.4618 147.179C12.0505 149.664 8.76121 152.39 6.1961 155.741C3.63099 159.093 1.81664 163.131 1.66775 167.349C1.48934 172.403 3.67276 177.234 6.19752 181.616C7.80669 184.408 9.62126 187.162 12.1192 189.189L12.6328 189.595C13.3414 190.164 14.0689 190.87 13.8882 191.725C11.4398 191.615 9.66269 189.424 8.31432 187.378C6.39696 184.467 4.6492 181.445 3.08286 178.332C1.78043 175.743 0.589949 173.046 0.194265 170.175C-0.549906 164.776 1.64213 159.286 5.04924 155.032C8.45636 150.778 12.9907 147.586 17.5768 144.641C21.0604 142.404 24.6456 140.258 28.556 138.9C32.5889 137.498 37.4994 137.124 40.7343 139.91ZM144.229 116.13C138.43 121.543 130.721 124.868 122.804 125.372C119.305 125.594 115.692 125.26 112.526 123.753C109.36 122.247 106.694 119.439 105.958 116.011L105.695 116.092C103.404 116.817 100.78 118.129 100.803 120.49C100.901 130.506 100.668 140.525 100.104 150.525C99.9961 152.444 99.2654 154.963 97.3442 154.907C90.5186 154.706 83.6484 156.282 77.5927 159.438C84.4088 170.127 94.1023 179.473 106.16 183.388C118.218 187.303 132.76 184.856 141.21 175.405C143.918 172.376 145.912 168.794 147.831 165.206L148.273 164.378C148.681 163.613 149.097 162.703 148.734 161.916C148.502 161.413 149.002 160.89 149.46 160.58C156.203 156.016 166.242 157.254 171.674 163.319C171.244 162.477 171.635 161.317 172.487 160.908C173.165 161.996 173.308 163.401 172.864 164.604C173.158 165.019 173.697 164.351 173.743 163.845C174.467 155.961 174.41 148.005 173.574 140.133C173.272 137.294 172.862 134.437 171.846 131.769C170.955 129.43 169.617 127.285 168.15 125.256C164.776 120.589 160.673 116.449 156.037 113.032L155.7 112.787C154.965 112.26 154.191 111.775 153.322 111.539C149.884 110.603 146.834 113.698 144.229 116.13ZM97.382 111.595C93.5485 112.885 89.3973 112.637 85.3621 112.915C79.6757 113.308 74.0663 114.787 68.9251 117.248C66.7108 118.309 64.5688 119.555 62.2271 120.292C57.2538 121.858 51.5529 120.891 47.3743 117.772C46.4735 124.649 46.7392 131.678 48.1567 138.467C48.2477 138.903 48.5349 139.461 48.9608 139.33C51.7868 138.462 54.8264 139.69 57.3392 141.248C59.8519 142.805 62.2134 144.747 65.0675 145.518C68.4156 146.423 71.9638 145.587 75.2777 144.536L75.5258 144.457C77.2246 143.912 79.4217 143.457 80.511 144.87C81.4298 146.062 80.8497 147.842 79.877 148.99C78.9042 150.138 77.585 150.992 76.7915 152.27C75.8171 153.84 75.8121 155.961 76.779 157.535C83.1081 154.997 89.8823 153.573 96.6978 153.348C98.0646 153.303 98.544 151.534 98.628 150.169C99.364 138.209 99.59 126.217 99.3051 114.237C99.2747 112.96 98.5926 111.187 97.382 111.595ZM199.853 143.937L200.124 144.073C201.802 144.926 203.589 146.062 203.839 147.9C203.921 148.505 203.817 149.121 203.673 149.714C203.474 150.536 203.171 151.379 202.532 151.933C201.855 152.521 200.903 152.688 200.007 152.653C198.243 152.584 196.477 151.762 195.455 150.323C194.433 148.883 194.269 146.824 195.222 145.338C196.175 143.852 198.271 143.153 199.853 143.937ZM197.236 145.993C196.19 146.429 195.814 147.844 196.25 148.889C196.687 149.935 197.723 150.623 198.8 150.976C199.901 151.336 201.32 151.307 201.977 150.352C202.195 150.034 202.298 149.651 202.359 149.27C202.49 148.44 202.411 147.522 201.876 146.874C201.214 146.071 200.084 145.91 199.029 145.85L198.767 145.837C198.25 145.814 197.714 145.794 197.236 145.993ZM65.2219 124.375C65.3541 124.877 65.2525 125.407 65.1621 125.918C64.5256 129.519 64.4795 133.223 65.0251 136.838L65.1259 137.478C65.1923 137.931 65.2195 138.408 64.9595 138.773C64.6595 139.193 63.8187 139.15 63.7767 138.636C63.4186 134.255 63.1892 129.864 63.0888 125.47C63.0696 124.631 63.2887 123.515 64.1257 123.451C64.6432 123.411 65.0896 123.873 65.2219 124.375ZM35.7651 115.597C36.3842 115.783 36.9788 116.207 37.1582 116.828C37.3376 117.449 36.9293 118.234 36.2841 118.275C35.6829 118.313 35.224 117.765 34.6715 117.525C33.6796 117.093 32.5668 117.696 31.655 118.277L31.1908 118.577C30.3154 119.154 29.4674 119.801 28.9867 120.72C28.4949 121.66 28.4537 122.765 28.4689 123.827C28.4795 124.564 28.514 125.313 28.7421 126.014C29.2369 127.536 30.6488 128.677 32.2149 129.007C33.781 129.337 35.456 128.909 36.7808 128.011L37.0402 127.835C37.2741 127.681 37.5193 127.546 37.7945 127.533C38.1729 127.515 38.5871 127.871 38.4584 128.228C38.4199 128.335 38.3407 128.421 38.2614 128.502C36.096 130.727 32.3567 131.203 29.7029 129.592C29.2294 129.305 28.7881 128.958 28.4303 128.535C27.3549 127.265 27.1543 125.484 27.1247 123.82C27.1087 122.919 27.1309 122.005 27.3869 121.141C27.9401 119.275 29.5032 117.889 31.1278 116.817C32.5072 115.907 34.1826 115.121 35.7651 115.597ZM23.2367 111.768L28.6352 118.179C28.3383 118.501 27.8177 118.522 27.4165 118.347C27.0598 118.192 26.7753 117.915 26.5073 117.63L23.3398 114.223C22.9079 117.681 21.8618 121.061 20.2649 124.158C20.1095 124.459 20.5498 124.714 20.8872 124.749C21.711 124.833 22.5442 124.739 23.3566 124.578L23.7753 124.494C24.4313 124.363 25.1041 124.261 25.7157 124.503C26.4584 124.797 26.9167 125.878 26.3211 126.411C25.954 126.739 25.3979 126.698 24.9092 126.638L19.6515 125.987L19.49 125.964C18.9709 125.879 18.4004 125.676 18.3243 125.176C18.2785 124.874 18.446 124.586 18.6027 124.324C20.4741 121.201 21.7209 117.705 22.2502 114.103L22.3299 113.532C22.4328 112.831 22.6149 112.07 23.2367 111.768ZM207.167 121.841C207.818 122.302 208.433 123.207 207.928 123.825C207.612 124.212 207.003 124.221 206.549 124.013C206.095 123.805 205.742 123.432 205.351 123.122C203.744 121.852 201.331 121.719 199.594 122.803C199.347 122.958 199.101 123.149 199.001 123.423C198.901 123.697 199.011 124.064 199.291 124.147C201.508 123.208 204.152 123.339 206.265 124.494C206.57 124.66 206.891 124.882 206.966 125.222C207.041 125.562 206.676 125.97 206.373 125.8C204.994 125.028 203.348 124.744 201.79 125.009C201.064 125.132 200.353 125.371 199.617 125.395C198.881 125.418 198.075 125.172 197.684 124.548C197.324 123.971 197.409 123.194 197.761 122.612C198.113 122.03 198.689 121.618 199.292 121.304C201.747 120.027 204.908 120.242 207.167 121.841ZM133.615 90.6725C128.351 95.0975 122.165 98.4204 115.57 100.369L115.13 100.497C114.274 100.741 113.196 101.283 113.376 102.155L113.487 102.696C113.816 104.323 114.095 105.98 113.86 107.617C113.607 109.383 112.634 111.15 111.023 111.892L110.875 111.956C108.007 113.137 107.604 117.421 109.485 119.887C111.366 122.353 114.627 123.308 117.708 123.665C126.75 124.71 136.186 121.679 142.927 115.562C145.372 113.343 147.56 110.688 150.587 109.37L143.017 106.599C140.975 105.851 138.906 105.09 137.129 103.837C135.351 102.585 133.869 100.761 133.505 98.6168C133.06 95.9906 134.319 93.2413 133.615 90.6725ZM46.2946 97.773C46.1046 97.8574 45.9106 97.9696 45.8192 98.1563C45.7277 98.3433 45.7586 98.5642 45.7909 98.7698L47.5253 109.703C48.0364 112.924 48.7544 116.495 51.4116 118.387C54.3223 120.46 58.3194 119.648 61.7088 118.464L61.8898 118.4C68.1991 116.16 74.2711 113.04 80.8838 111.991C85.6314 111.237 90.6102 111.56 95.0995 109.841C93.4575 107.362 89.8999 107.376 86.924 107.701L62.6114 110.464C60.7279 110.678 58.7495 110.928 57.2199 112.047C56.5506 112.537 55.9169 113.21 55.0882 113.245C54.2818 113.278 53.5809 112.104 54.2129 111.672L54.2687 111.637C54.9617 111.256 54.915 110.261 54.7733 109.483L54.0379 105.451C53.6661 103.451 53.2121 101.416 52.0155 99.7831C50.7233 98.0198 48.2924 96.8852 46.2946 97.773ZM214.14 114.113C214.726 114.796 214.751 115.844 214.361 116.654C213.97 117.465 213.23 118.061 212.429 118.471C211.464 118.967 210.4 119.225 209.334 119.446L208.801 119.554C208.592 119.596 208.372 119.637 208.17 119.57C208.002 119.514 207.866 119.388 207.756 119.25C207.206 118.56 207.226 117.543 207.598 116.744C207.969 115.944 208.635 115.323 209.319 114.766C210.019 114.198 210.779 113.662 211.656 113.454C212.533 113.246 213.553 113.43 214.14 114.113ZM211.265 115.313L210.985 115.502C210.565 115.789 210.161 116.103 209.879 116.522C209.534 117.035 209.414 117.75 209.754 118.265L212.01 117.01C212.377 116.806 212.757 116.589 212.996 116.243C213.234 115.897 213.282 115.381 212.987 115.081C212.545 114.631 211.791 114.964 211.265 115.313ZM175.293 90.6328C175.45 90.6965 175.556 90.8391 175.648 90.9847L178.952 96.3809C179.542 97.3454 180.886 97.4528 182.014 97.3733C184.175 97.2211 186.316 96.7799 188.362 96.0651C188.705 95.9452 189.031 96.3819 188.957 96.7378C188.883 97.0937 188.577 97.3471 188.29 97.5706L183.328 101.438C182.719 101.395 182.892 100.398 183.386 100.039L183.532 99.9368C184.009 99.6154 184.586 99.298 184.556 98.7462L181.689 99.642C181.141 99.8131 180.532 99.9813 180.012 99.7408C179.665 99.581 179.423 99.2674 179.204 98.9518L175.56 93.6341L175.498 98.2907C175.493 98.6725 175.476 99.0868 175.234 99.3818C175.062 99.5913 174.804 99.7038 174.547 99.7986L169.521 101.602C170.863 102.945 173.376 101.532 174.982 102.544C176.083 103.237 176.271 104.781 176.033 106.06C175.796 107.339 175.251 108.583 175.322 109.882C176.239 109.216 176.913 108.222 177.192 107.124C177.304 106.681 177.359 106.21 177.605 105.825C178.285 104.765 179.907 104.98 181.031 105.548C182.155 106.115 183.322 106.931 184.552 106.661L182.767 103.808C182.604 103.548 182.436 103.266 182.45 102.959C182.464 102.653 182.756 102.343 183.05 102.432C183.178 102.471 183.274 102.573 183.359 102.679L187.34 107.84C185.942 108.762 184.097 108.181 182.483 107.736L182.244 107.673C180.669 107.283 178.746 107.245 177.877 108.579C177.264 109.52 176.545 110.391 175.737 111.171C175.397 111.5 175.009 111.828 174.539 111.881C174.069 111.935 173.529 111.579 173.571 111.108L174.033 105.889C174.063 105.551 174.086 105.184 173.898 104.902C173.7 104.604 173.326 104.489 172.982 104.394L168.632 103.193C167.687 102.932 167.68 101.46 168.389 100.782C169.098 100.104 170.143 99.9623 171.088 99.7002C172.034 99.438 173.056 98.8815 173.226 97.9155L174.33 91.6637C174.425 91.1292 174.789 90.4291 175.293 90.6328ZM58.2808 2.48999L57.4776 3.14269C52.126 7.50381 46.8525 12.0759 42.9276 17.745C38.8064 23.6976 36.2764 31.079 37.5033 38.2142C39.2912 48.6121 48.5918 56.8928 48.9895 67.4358C49.0423 68.8363 50.4684 69.7079 51.6615 70.4431C56.3702 73.345 59.8594 77.9505 62.1618 82.9795C64.3923 87.8514 65.5832 93.1303 66.4491 98.421L66.5319 98.933C66.6609 99.7398 66.7551 100.658 66.2346 101.288C65.7141 101.918 64.376 101.697 64.4279 100.882C65.0387 91.2957 61.5548 81.5164 55.0209 74.4756C53.3236 72.6466 51.3519 70.9512 48.9617 70.2351C48.8094 73.9274 47.5663 77.6899 44.9346 80.2843C42.303 82.8786 38.1514 84.0639 34.7445 82.6322C31.3377 81.2006 29.2534 76.8779 30.7867 73.5155C32.0712 70.6989 35.261 69.2759 38.2981 68.6763C41.2781 68.0879 44.3672 68.0572 47.3582 68.5863C47.7607 68.6575 47.936 68.0949 47.9279 67.6863C47.7117 56.7276 37.5819 48.1478 36.2521 37.268C35.5254 31.322 37.5542 25.3366 40.4983 20.1199C44.3647 13.2692 49.8649 7.34787 56.4123 2.98752L56.5837 2.87631C57.1081 2.54619 57.7195 2.26463 58.2808 2.48999ZM91.6341 58.3051C90.1683 59.248 90.2059 61.3404 90.0847 63.0791C89.9183 65.464 89.0983 67.8511 87.4991 69.6282C85.8999 71.4053 83.4703 72.497 81.0982 72.1987C80.4846 72.1215 80.2981 73.0094 80.3785 73.6227C81.7575 84.1333 88.1334 94.4524 98.0435 98.2159C104.102 100.517 110.945 100.211 117.122 98.2499C123.152 96.3355 128.61 92.9306 133.597 89.0331L133.961 88.747C134.685 88.1758 135.412 87.5806 135.915 86.8081C136.424 86.0247 136.675 85.098 136.797 84.1713C137.452 79.2066 134.134 74.0118 129.355 72.5176C128.792 72.3417 128.922 71.4292 129.416 71.1071C129.909 70.785 130.545 70.8069 131.109 70.6346C132.635 70.1681 133.338 68.4291 133.686 66.8711C134.165 64.7303 134.3 62.2889 132.973 60.5419C131.18 58.1809 127.694 58.1839 124.738 58.4102L119.941 58.7774C118.286 58.9041 116.155 59.4876 116.077 61.146C115.91 64.7179 114.337 68.276 111.557 70.5252C108.777 72.7743 104.773 73.5519 101.473 72.1752C98.2253 70.8202 95.9308 67.2847 96.306 63.794L96.3263 63.6251C96.5217 62.1485 96.4141 60.5452 95.549 59.3326C94.684 58.1201 92.8868 57.4993 91.6341 58.3051ZM131.25 2.48775C129.112 3.09578 127.057 4.07646 125.369 5.52325C123.009 7.5452 121.44 10.467 121.058 13.5509C120.923 14.6436 121.141 16.0529 122.202 16.3465C124.794 17.0636 127.114 18.7265 128.625 20.9515C126.174 19.4931 123.488 18.4319 120.702 17.8219L132.477 24.485C133.16 24.8712 133.869 25.2814 134.298 25.9378C134.727 26.5942 134.772 27.5738 134.182 28.0908L133.359 27.4502C131.296 25.8534 129.187 24.3057 126.878 23.0973C125.122 22.1784 123.269 21.4656 121.406 20.7865L120.389 20.4184C116.94 19.174 113.459 17.9217 109.826 17.4245C106.454 16.963 102.993 17.1679 99.6987 18.0239L99.049 18.1904C94.5992 19.3164 89.9595 20.2371 86.2806 22.9578C84.0923 24.5762 82.3785 26.7427 80.7513 28.9245L80.3675 29.4453C77.1345 33.884 74.1803 39.3566 76.0719 44.4493C84.7562 43.3796 91.5218 36.6604 99.3888 32.8301C99.9901 32.5374 100.982 32.4478 101.073 33.1103L92.27 38.3124C92.5144 39.6557 92.2835 41.0806 91.6273 42.278C98.059 40.4606 104.072 37.1789 109.082 32.7554L109.4 32.4715C110.195 31.756 111.726 31.1641 112.065 32.1783L111.634 32.4189C110.055 33.3076 108.483 34.2796 107.394 35.7186C106.206 37.2884 105.733 39.5705 106.786 41.2339L117.899 34.6905C118.35 34.4247 118.843 34.1493 119.364 34.204C119.885 34.2587 120.373 34.8199 120.148 35.2929L119.77 35.3717C118.571 35.6265 117.354 35.9459 116.42 36.7272C115.388 37.5908 114.853 39.2099 115.621 40.3158C116.997 42.2996 118.113 44.463 118.933 46.7337C118.951 45.7408 120.304 45.233 121.197 45.6689C122.089 46.1049 122.561 47.0889 122.884 48.0279C123.809 50.7141 124.054 53.6316 123.588 56.4343C126.383 57.421 129.661 56.2554 132.349 57.5036C134.844 58.6622 136.064 61.6673 135.891 64.4127C135.717 67.1581 134.42 69.6966 133.035 72.0732C136.907 75.0729 138.975 80.2399 138.242 85.0826C138.918 84.9725 139.488 84.3899 139.584 83.7126L141.119 84.6815C138.717 86.0391 137.009 88.5584 136.636 91.2919C147.188 81.4174 150.691 65.7672 149.169 51.3958L149.109 50.8598C148.506 45.6702 147.07 40.2606 143.167 36.823C145.26 35.6166 147.943 36.0911 150.182 35.1852C152.298 34.3293 153.752 32.3453 154.734 30.2853C158.017 23.3985 156.886 14.6361 151.963 8.80813C147.039 2.98014 138.589 0.401522 131.25 2.48775ZM96.7542 88.8569C97.0871 88.9119 97.4647 89.0244 97.5951 89.3356C97.8033 89.8324 97.22 90.2867 96.7152 90.4747C95.9822 90.7478 95.2128 90.9226 94.4338 90.9931C93.7802 91.0522 92.9556 90.926 92.7535 90.3017C92.6206 89.8911 92.8514 89.4299 93.2008 89.1767C93.5503 88.9235 93.9921 88.8381 94.4211 88.7916C95.197 88.7075 95.9843 88.7296 96.7542 88.8569ZM84.8173 81.7352C87.1138 84.434 90.7063 85.8631 94.2499 85.891C97.7935 85.919 101.27 84.6379 104.212 82.6623L104.459 82.4961C104.833 82.2478 105.221 82.0145 105.659 81.9383C106.194 81.8451 106.831 82.0699 107.013 82.5822C103.936 85.1956 100.079 86.9215 96.0587 87.2863C92.0381 87.6511 87.8737 86.6196 84.5931 84.2668C84.0012 83.8424 83.3894 83.2838 83.365 82.5559C83.3405 81.828 84.3453 81.1805 84.8173 81.7352ZM36.6827 70.3037C35.0858 70.8131 33.4788 71.5596 32.4713 72.8992C30.9748 74.8891 31.2365 77.9085 32.8528 79.8024C34.4692 81.6963 37.2024 82.4524 39.6408 81.9491C42.0793 81.4457 44.1963 79.8005 45.5666 77.7216C46.9369 75.6427 47.6078 73.1609 47.811 70.6793C47.8451 70.2634 47.7695 69.7126 47.3592 69.6363C43.8178 68.9774 40.1144 69.2089 36.6827 70.3037ZM93.2673 60.6071C93.334 61.1795 93.1125 61.7411 92.909 62.2802C91.759 65.3262 91.059 68.5417 90.8387 71.7902C90.803 72.3164 90.7827 72.862 90.9756 73.3529C91.1578 73.8165 91.5808 74.2197 92.0712 74.2474L92.1584 74.2483C92.6049 74.2325 92.8167 74.8979 92.5359 75.2454C92.2551 75.5928 91.7282 75.6318 91.3 75.5043C90.4209 75.2426 89.7907 74.4243 89.5356 73.5433C89.2805 72.6622 89.3458 71.7216 89.4735 70.8133C89.9066 67.7338 91.0309 64.748 91.086 61.6387C91.1015 60.7613 91.2809 59.5785 92.1557 59.5087C92.73 59.4629 93.2007 60.0348 93.2673 60.6071ZM104.195 50.2141C102.369 50.5898 100.974 52.088 100.027 53.694C98.087 56.9842 97.5341 61.0638 98.5288 64.7517C98.9754 66.4076 99.7389 68.008 100.937 69.2355C102.135 70.463 103.799 71.2869 105.514 71.2585C106.711 71.2387 107.872 70.8139 108.912 70.2206C112.384 68.2396 114.59 64.2248 114.401 60.2317C114.211 56.2386 111.634 52.4511 107.99 50.8082C106.803 50.2732 105.47 49.9517 104.195 50.2141ZM78.99 48.577C75.727 49.7858 73.6205 53.1745 73.1716 56.6252C72.7226 60.0758 73.6905 63.5664 75.0701 66.761C75.4416 67.6213 75.864 68.496 76.5774 69.1037C77.2908 69.7115 78.3709 69.9839 79.1814 69.5135C79.5588 69.2946 79.9113 69.8066 80.1976 70.1357C80.7681 70.7915 81.7717 70.8473 82.624 70.677C85.432 70.1159 87.5898 67.6622 88.4633 64.9352C89.3076 62.2991 89.1274 59.4458 88.6285 56.718L88.5758 56.4363C88.0496 53.6853 86.8609 50.5936 84.1825 49.7744C82.7781 49.3449 81.0841 49.5959 79.9985 48.6068C79.7364 48.368 79.3225 48.4538 78.99 48.577ZM130.845 60.2412C131.948 61.4642 131.497 63.3633 130.945 64.9324L130.9 65.0589C130.679 65.6743 130.45 66.3042 130.027 66.8032C129.605 67.3022 128.942 67.6507 128.302 67.5175C127.662 67.3843 127.163 66.642 127.432 66.0461C127.765 65.3064 128.9 65.2687 129.309 64.568L128.203 64.4636C127.458 64.3933 126.656 64.2987 126.104 63.7934C125.552 63.2881 125.483 62.2189 126.154 61.8878C126.619 61.6583 127.179 61.8831 127.61 62.1724C128.04 62.4617 128.452 62.8279 128.965 62.9067C129.477 62.9854 130.1 62.5828 129.995 62.075C129.848 61.3683 130.21 60.5859 130.845 60.2412ZM105.599 65.0153C105.686 65.5015 105.719 66.0173 105.537 66.4765C105.355 66.9358 104.911 67.3201 104.418 67.2995C103.653 67.2677 103.244 66.3873 103.11 65.634C102.945 64.7032 103.203 63.4222 104.146 63.353C104.952 63.2937 105.456 64.2192 105.599 65.0153ZM82.047 63.0395C82.4278 63.5944 82.3739 64.3358 82.2227 64.9916C82.0291 65.8307 81.5425 66.7668 80.6859 66.8544C79.9123 66.9335 79.2519 66.2414 78.9989 65.5061C78.6902 64.6089 78.8401 63.5126 79.5406 62.8726C80.2411 62.2326 81.5101 62.2571 82.047 63.0395ZM82.76 53.5699C83.1019 53.727 83.3429 54.1578 83.1699 54.492L82.8392 54.5788C80.9567 55.0811 78.9499 55.7802 78.0508 57.4822C77.8353 57.8901 77.6956 58.3402 77.4272 58.7155C77.1589 59.0907 76.7065 59.389 76.2551 59.2939C75.7406 59.1856 75.443 58.5935 75.4979 58.0707C75.5528 57.5478 75.871 57.092 76.2117 56.6917C77.5975 55.0635 79.5503 53.9277 81.6507 53.5281C82.0203 53.4578 82.4181 53.4128 82.76 53.5699ZM106.819 54.5099C107.382 54.9635 107.81 55.568 108.379 56.0142C108.859 56.3911 109.466 56.6891 109.685 57.2595C109.903 57.8299 109.246 58.6355 108.77 58.2536C107.525 57.2564 106.144 56.4303 104.677 55.8058C104.011 55.5227 104.162 54.4035 104.811 54.0848C105.46 53.7661 106.256 54.0564 106.819 54.5099ZM99.847 50.9329C98.6204 51.3372 97.7488 52.6279 97.8321 53.9167C98.3012 53.6766 98.6586 53.228 98.7877 52.7171L98.7693 52.6655C99.3137 52.2353 99.7018 51.6114 99.847 50.9329Z" fill="#00160A"/>
<path fill-rule="evenodd" clip-rule="evenodd" d="M30.7336 205.393C31.2271 205.398 31.6809 205.626 32.112 205.878L32.345 206.016C34.9876 207.598 37.7761 208.936 40.6635 210.008C41.0603 210.156 40.937 210.822 40.5502 210.994C40.1635 211.166 39.7171 211.012 39.3227 210.859L30.7954 207.541C30.2497 207.329 29.6163 207.005 29.5685 206.421C29.5208 205.84 30.1505 205.388 30.7336 205.393Z" fill="#E7EAEE"/>
<path fill-rule="evenodd" clip-rule="evenodd" d="M17.1393 196.103L43.5185 205.461L43.6843 205.522C44.3815 205.795 45.1356 206.261 45.0611 206.981C45.0004 207.568 44.3512 207.946 43.7618 207.926C43.263 207.909 42.8023 207.688 42.3616 207.444L42.1231 207.309C38.445 205.223 34.586 203.502 30.6282 202.016C26.1449 200.331 21.5349 198.947 16.9175 197.673C16.2114 197.478 15.3166 196.847 15.7215 196.237C16.0055 195.809 16.6551 195.931 17.1393 196.103Z" fill="#E7EAEE"/>
</svg>
