<svg width="284" height="228" viewBox="0 0 284 228" fill="none" xmlns="http://www.w3.org/2000/svg">
<path fill-rule="evenodd" clip-rule="evenodd" d="M163.435 228C197.429 228 227.261 202.713 210.508 168.367C193.754 134.021 256.005 135.13 274.29 111.392C296.591 82.4432 290.133 -40.4415 146.972 34.475C124.04 46.4758 65.1434 22.1291 45.6073 34.2095C22.6114 48.4293 -9.74255 77.5469 22.6114 107.374C38.5483 122.066 -18.5893 160.2 6.43586 194.358C30.8541 227.688 47.9709 195.915 85.1474 202.713C122.324 209.511 138.188 228 163.435 228Z" fill="#FF8E8E"/>
<path d="M123.978 168.248C123.978 168.248 131.805 164.566 134.727 162.004C137.65 159.443 141.283 153.078 141.283 153.078C141.283 153.078 181.188 181.898 207.208 177.787C213.203 176.84 224.884 172.855 225.629 165.834C227.663 146.661 199.519 141.762 205.667 132.039C209.42 126.105 221.077 134.937 221.077 134.937L269.428 158.72C269.428 158.72 252.724 199.896 212.188 201.546C162.322 203.576 123.978 168.248 123.978 168.248Z" fill="white"/>
<path fill-rule="evenodd" clip-rule="evenodd" d="M85.6433 6.99384C85.1895 6.81568 82.7524 3.8315 79.6583 3.28837C78.2523 3.04156 79.5284 4.83186 77.981 4.84797C73.3725 4.89595 65.8832 4.03013 64.4958 4.84797C63.4646 5.45386 65.7355 7.57055 64.4958 7.66773C52.7989 8.58456 34.9544 20.2635 31.0829 25.9295C29.8508 27.7327 39.8157 24.6734 38.228 25.5648C36.446 26.5654 34.4696 33.1168 33.288 38.1767C32.4699 41.661 31.9548 46.1452 31.7731 51.0234C31.6216 55.2349 31.6822 55.9318 32.2881 58.2345C32.985 60.8099 33.5304 61.5673 34.4696 61.2038C34.8029 61.0826 34.9544 60.6281 34.9544 59.7797C34.9544 59.1131 35.318 57.1134 35.7725 55.3258L36.5603 52.1141L36.8936 53.4473C37.3177 54.9925 39.8022 59.7797 42.0443 63.2641C42.1653 63.449 42.6855 63.2138 43.1547 62.0798C43.5822 61.0464 43.4087 59.3956 44.135 57.6263C45.7893 53.5961 49.0376 48.3562 52.7989 44.1618C58.3577 37.9628 60.202 30.7887 65.4128 25.0298C75.1373 14.2826 87.3421 7.66077 85.6433 6.99384Z" fill="white"/>
<path fill-rule="evenodd" clip-rule="evenodd" d="M38.3662 27.0271C36.8063 28.2814 34.4908 38.4561 34.451 38.6262C33.633 42.1105 32.8444 54.2105 33.6505 56.5013C34.4565 58.7921 36.7136 50.5341 36.7136 50.5341C36.7136 50.5341 40.1251 59.3928 43.1396 61.8217C43.2683 61.9254 39.5565 50.8616 38.3662 44.4028C36.795 35.8768 39.254 26.3132 38.3662 27.0271Z" fill="#E7EAEE"/>
<path fill-rule="evenodd" clip-rule="evenodd" d="M96.5092 205.221C99.4179 204.585 104.326 202.369 106.205 201.611C108.084 200.854 113.81 192.768 115.87 183.648C117.355 176.922 118.112 167.348 117.264 165.742C117.139 165.514 116.68 161.16 117.9 162.582C120.612 165.742 123.831 170.703 133.989 161.813C136.755 159.392 140.422 156.267 139.456 153.505C136.755 145.775 125.045 130.212 123.26 129.033C121.126 127.623 110.337 128.821 94.2825 124.082C76.0749 118.708 68.4933 102.884 61.3681 104.944C55.6058 106.609 41.8001 116.847 38.3353 123.33C21.9779 153.937 41.8001 175.383 46.3143 181.543L50.6974 183.436L50.8489 187.345L51.061 189.799C51.4549 194.495 51.6064 194.92 53.7273 196.495C59.0296 200.525 69.4827 204.282 78.9359 205.615C83.3292 206.221 92.8734 206.009 96.5092 205.221Z" fill="white"/>
<path fill-rule="evenodd" clip-rule="evenodd" d="M52.4212 185.914L52.6333 188.368C53.0272 193.065 53.1787 193.489 55.2996 195.064C58.4276 197.442 63.3482 199.724 68.7986 201.47C72.5872 202.683 76.6318 203.638 80.5082 204.184C84.9016 204.79 94.4457 204.578 98.0815 203.79C99.8787 203.401 85.0961 191.787 76.3875 195.064C69.6998 197.581 53.9369 178.385 60.3459 173.37C67.5353 167.744 54.3611 145.555 53.9369 140.738C53.5127 135.92 51.8422 134.769 51.7935 134.938C51.7447 135.107 51.7447 135.684 51.8759 137.072C52.4411 143.058 52.4212 185.914 52.4212 185.914Z" fill="#E7EAEE"/>
<path fill-rule="evenodd" clip-rule="evenodd" d="M50.843 139.363C51.4791 139.239 52.0951 139.654 52.2189 140.29C54.5056 152.038 64.1783 159.992 81.4744 164.151C98.8733 168.335 110.725 168.109 116.969 163.643C117.496 163.266 117.103 166.494 116.717 166.742C112.644 169.354 98.7972 173.251 82.2725 169.729C61.144 165.225 51.2235 147.459 49.9154 140.738C49.7916 140.102 50.2069 139.486 50.843 139.363Z" fill="#FFB61D"/>
<path fill-rule="evenodd" clip-rule="evenodd" d="M42.0321 118.166C42.5946 117.844 63.5799 141.895 92.379 147.339C121.178 152.783 128.151 149.321 129.272 141.895C129.368 141.255 129.966 140.813 130.607 140.91C131.248 141.007 131.689 141.605 131.592 142.246C130.172 151.657 116.846 153.895 91.9842 149.653C67.4351 145.463 50.6041 135.51 41.5964 119.767C41.2746 119.205 41.4697 118.488 42.0321 118.166Z" fill="#FFB61D"/>
<path fill-rule="evenodd" clip-rule="evenodd" d="M162.906 116.832C162.119 116.56 161.27 115.954 160.725 115.257L159.816 114.136L163.028 110.954C167.966 106.107 171.754 101.138 175.026 95.2294C176.117 93.2599 178.874 86.6851 178.874 86.0488C178.874 85.8367 179.207 84.9884 179.601 84.1097C180.207 82.8372 180.661 82.3524 181.964 81.6252C183.51 80.7162 185.267 80.4133 186.024 80.9283C187.479 81.8979 187.479 84.9581 186.024 90.2301C184.419 96.0171 182.267 100.168 177.813 106.137C177.117 107.046 175.814 108.834 174.874 110.076C172.36 113.409 170.723 115.014 168.512 116.257C166.33 117.469 165.058 117.62 162.906 116.832ZM184.661 114.105L186.842 115.075C187.295 115.284 192.285 117.682 198.279 120.562C207.943 125.205 220.217 131.103 220.292 131.103C220.413 131.103 220.982 129.788 221.11 128.255C221.413 124.952 222.534 120.468 223.837 117.347C224.443 115.954 224.928 114.212 224.928 114.06C224.928 113.991 224.435 113.792 223.629 113.467C222.669 113.08 221.264 112.513 219.717 111.772C212.081 108.106 197.144 100.622 195.296 99.5014C193.478 98.441 193.114 98.3501 193.114 99.047C193.114 99.9559 191.266 104.167 189.842 106.44C189.085 107.682 187.6 109.924 186.539 111.409L184.661 114.105ZM219.777 125.649C220.646 126.153 219.141 126.892 218.777 127.013C216.637 127.194 214.116 126.792 212.051 125.589C210.971 124.823 202.469 120.1 196.83 116.966C194.251 115.534 192.271 114.434 191.872 114.196C190.599 113.439 189.388 112.621 189.175 112.378C188.539 111.56 189.145 111.197 190.933 111.348C192.007 111.439 217.901 124.562 219.777 125.649ZM104.888 201.954L104.888 201.954L104.89 201.953C105.454 201.715 105.94 201.511 106.308 201.362C108.187 200.604 113.913 192.519 115.974 183.399C117.458 176.673 118.216 167.098 117.367 165.492C116.856 164.562 119.895 167.682 122.158 170.006L122.158 170.006C122.844 170.71 123.459 171.341 123.882 171.764C137.092 184.883 156.756 195.427 177.177 200.366C187.358 202.851 194.599 203.729 204.325 203.729C220.656 203.729 233.533 200.518 245.228 193.458C245.783 193.123 246.304 192.815 246.8 192.521L246.801 192.521C250.877 190.107 253.306 188.669 259.953 181.187C267.41 172.794 274.042 153.312 276.254 146.586C277.224 143.556 279.587 131.505 279.587 128.497C279.587 124.937 278.345 123.256 276.648 121.529C273.649 118.59 269.588 117.529 266.225 118.802L264.65 119.408L264.165 117.802C263.468 115.378 262.014 113.439 259.772 111.985C256.439 109.773 255.954 109.621 252.954 109.621C250.621 109.621 249.985 109.742 248.501 110.439L246.773 111.227L246.41 110.136C245.713 107.894 243.376 104.769 241.562 103.864C239.954 103.063 237.17 102.989 235.23 103.349C230.988 104.137 227.958 106.107 226.716 108.864C226.352 109.712 225.898 110.379 225.716 110.379C225.564 110.379 219.595 108.712 212.475 105.561C211.278 105.029 210.154 104.531 209.097 104.062L209.087 104.058L209.086 104.058C196.3 98.3905 193.529 97.1621 193.781 95.6232C193.993 94.3203 193.932 93.5932 193.569 92.4721C192.932 90.5936 192.205 90.0785 190.145 90.0785C188.509 90.0785 188.509 90.0785 188.691 89.2604C189.66 84.6247 189.63 81.9584 188.6 80.2617C187.903 79.1406 187.085 78.6862 185.206 78.4135C184.116 78.262 183.6 78.3529 182.389 79.0194C181.57 79.4436 180.874 79.7466 180.813 79.686C180.752 79.6254 180.964 77.959 181.298 75.9896C183.782 61.4158 181.863 48.8591 175.53 35.5276C175.509 35.4826 175.486 35.4346 175.462 35.3838L175.415 35.2822L175.319 35.0766C173.394 30.9436 165.653 14.3245 143.515 5.93872C142.513 5.55915 141.565 5.19214 140.654 4.83941C133.113 1.92049 128.099 -0.0199817 116.004 0.00015525C102.447 0.0227256 97.8548 1.93928 88.9167 6.02962C87.6744 6.60529 86.5837 6.93858 86.4928 6.81739C86.4019 6.66589 85.8262 6.30231 85.2505 5.99932C84.6749 5.69633 83.4326 4.93886 82.5236 4.33288C79.9179 2.57555 78.3121 1.84838 77.494 2.03018C76.5548 2.27257 76.5548 3.06033 77.494 3.42392C77.8879 3.57541 78.3424 4.09049 78.5242 4.60557C78.9181 5.69633 79.3726 5.81753 79.6453 4.90856C79.7665 4.57527 79.9482 4.33288 80.0391 4.39348C80.0736 4.41072 80.189 4.46474 80.3651 4.54717L80.3651 4.5472C80.808 4.75453 81.6348 5.14157 82.5236 5.57514C83.7659 6.18111 85.1293 6.81739 85.4929 6.96888C86.1595 7.21127 85.9474 7.39306 83.069 9.0898C71.8282 15.6949 62.6779 25.9662 57.5574 37.6616C56.7697 39.4189 56.0728 40.5097 55.3456 41.1156C53.4974 42.6609 49.8615 47.0542 49.0132 48.7812C48.5587 49.7205 47.5891 51.1748 46.8317 52.0232C46.1045 52.8716 45.3167 53.9623 45.044 54.4168C44.8016 54.9016 44.5592 55.2349 44.4683 55.1743C44.4077 55.0834 44.4986 53.5987 44.7107 51.8717C45.1652 47.842 45.1652 46.7815 44.8016 46.6906C44.2563 46.5391 43.4685 48.66 43.1352 51.296C42.8928 52.9019 42.8322 55.3258 42.9837 57.8103L43.1655 61.7491L41.0143 58.2648C40.2733 57.0977 39.5436 55.9307 39.0261 55.1029L39.026 55.1027L39.0239 55.0993L39.0228 55.0977C38.6956 54.5742 38.4536 54.1872 38.348 54.0229C37.5602 52.8716 37.1057 51.1445 37.439 50.5689C37.6208 50.2356 37.5905 50.0841 37.2875 50.0841C36.6513 50.0841 35.409 52.1141 34.5909 54.4471C34.197 55.5379 33.8032 56.4468 33.682 56.4468C33.2275 56.4468 33.4396 45.5999 33.9244 42.1155C34.9242 35.2377 37.5602 26.754 38.7419 26.754C38.9843 26.754 39.1964 26.6328 39.1964 26.451C39.1964 25.9056 38.4086 26.1177 37.7723 26.8146C36.3483 28.3598 34.4697 33.1168 33.2881 38.1767C32.47 41.661 31.9549 46.1452 31.7731 51.0233C31.6217 55.2349 31.6822 55.9318 32.2882 58.2345C32.9851 60.8099 33.5305 61.5673 34.4697 61.2037C34.803 61.0825 34.9545 60.6281 34.9545 59.7797C34.9545 59.1131 35.3181 57.1134 35.7726 55.3258L36.5604 52.1141L36.8936 53.4473C37.3178 54.9925 39.8023 59.7797 42.0444 63.2641C43.5897 65.6274 43.62 65.7789 44.1351 69.4753C44.4077 71.5659 45.2561 76.651 47.2255 84.4732C48.9656 91.3847 58.7481 98.2408 61.1906 99.9527C61.5125 100.178 61.7069 100.315 61.7387 100.35C62.0417 100.683 62.4658 100.865 62.7082 100.774C62.9809 100.683 63.1324 100.804 63.1324 101.138C63.1324 101.441 63.3445 101.834 63.5869 102.016C63.8899 102.228 64.102 103.046 64.1626 104.47C64.3141 107.319 66.435 112.772 68.0711 114.56C69.1316 115.711 71.3434 116.196 73.7976 115.772C75.4034 115.53 75.8579 115.348 75.7064 114.984C75.6155 114.742 76.1912 115.045 76.979 115.651C86.1898 122.68 95.5218 126.892 106.005 128.709C110.065 129.406 116.792 129.8 120.458 129.528C123.7 129.315 123.7 129.315 123.548 129.952C123.336 130.8 123.609 131.315 128.063 138.86C131.608 144.828 131.911 145.222 135.85 149.252C144.212 157.887 153.332 164.583 163.664 169.764C173.39 174.612 188.918 178.642 203.113 179.914C217.308 181.187 227.503 168.159 227.473 164.826C227.413 160.251 226.776 157.251 225.231 154.342C223.716 151.525 222.716 150.555 218.171 147.525C213.111 144.162 209.991 141.405 207.93 138.466C206.628 136.617 206.143 134.527 206.143 133.406C206.143 132.679 207.082 131.042 208.476 130.709C209.748 130.376 209.991 130.406 211.415 131.103C212.263 131.497 214.475 132.527 216.293 133.406C218.141 134.254 219.929 135.103 220.292 135.284C221.364 135.582 221.817 137.68 222.063 138.817L222.063 138.818L222.064 138.82C222.118 139.073 222.163 139.278 222.201 139.405C222.625 140.981 224.633 143.015 225.928 143.707C228.202 144.924 233.806 145.086 235.351 143.42C235.745 142.996 237.051 142.474 237.32 142.632C237.589 142.79 238.562 144.101 238.562 145.162C238.593 146.98 239.532 148.646 241.532 150.313C245.319 153.464 248.258 154.221 251.227 152.827C252.773 152.1 254.039 151.816 254.039 151.816C254.039 151.816 255.302 153.428 255.378 153.979C255.973 158.284 262.347 160.088 264.044 160.27C264.433 160.309 265.189 160.143 265.958 159.974C266.986 159.748 268.035 159.517 268.255 159.766C268.688 160.254 261.014 172.946 259.953 174.552C249.864 189.701 230.23 198.972 206.203 199.942C190.599 200.578 171.42 196.215 154.786 188.277C144.151 183.156 134.728 176.885 124.639 168.098C122.882 166.583 120.852 164.856 120.124 164.25C119.397 163.674 117.67 161.705 116.337 159.887C114.095 156.857 112.822 155.766 112.822 156.796C112.822 157.251 114.277 160.038 115.943 162.796C116.61 163.886 117.034 164.644 116.882 164.523C116.731 164.401 116.246 166.583 115.792 169.37C114.307 178.309 111.853 187.126 109.368 192.61C108.005 195.579 105.391 197.796 104.603 198.402C101.694 200.614 97.3398 201.608 91.3103 202.214C83.675 202.972 72.4341 201.275 63.8596 198.063C61.5872 197.215 55.7395 194.761 55.3456 194.488C55.322 194.465 55.1877 193.593 55.0004 192.377L54.9392 191.979L54.8873 191.643L54.8305 191.277C53.7398 183.793 52.2248 154.979 52.2248 141.647C52.2248 136.133 52.1642 134.921 51.8007 134.921C51.0432 134.921 50.7402 135.648 50.4069 138.254C49.6494 144.192 49.8009 175.188 50.619 181.702L50.8008 183.187L49.7706 182.611C48.1951 181.702 42.1959 175.612 40.1053 172.794C38.3354 170.385 37.2835 167.3 36.4965 164.992L36.4964 164.992C36.3134 164.455 36.1447 163.96 35.9847 163.526C31.5914 151.346 33.1366 137.678 39.1964 125.377C44.3471 114.893 50.6796 109.076 59.951 106.258C61.466 105.804 62.7991 105.319 62.9506 105.198C63.5263 104.652 59.8298 104.925 57.7998 105.561C51.1947 107.591 44.2866 113.136 39.5902 120.226C32.9851 130.164 30.0158 144.828 32.1064 157.342C32.5912 160.311 34.5606 166.734 35.106 167.189C35.1543 167.237 35.4034 167.76 35.7801 168.55L35.7802 168.55L35.7804 168.551C36.8225 170.737 38.8408 174.971 40.2871 176.885C42.0444 179.278 47.3467 184.49 49.5585 186.095L50.9523 187.095L51.1644 189.549C51.5583 194.246 51.7098 194.67 53.8307 196.246C59.133 200.275 69.5861 204.032 79.0393 205.365C83.4326 205.971 92.9767 205.759 96.6126 204.972C98.9497 204.46 102.578 202.929 104.888 201.954ZM199.023 176.521C181.419 174.976 160.149 166.583 144.757 153.615C138.273 148.131 129.85 137.466 126.518 131.558C125.821 130.346 125.306 129.77 124.7 129.619C124.063 129.437 124.609 129.255 127.214 128.831C138.213 126.952 148.908 122.377 157.543 115.863L158.816 114.924L159.18 115.802C159.998 117.772 163.149 119.771 165.482 119.771C166.421 119.771 169.572 118.347 171.481 117.045L172.784 116.166L173.844 117.226C174.814 118.196 174.996 118.256 176.814 118.256C178.904 118.256 181.419 117.317 182.813 115.984L183.57 115.287L185.721 116.711C186.873 117.529 190.084 119.317 192.842 120.741C196.962 122.862 201.325 125.316 205.476 127.861L206.143 128.285L205.507 129.134C204.84 130.043 203.598 131.77 203.598 134.406C203.598 137.375 206.686 142.71 212.596 146.374C217.24 149.252 225.231 154.914 224.928 163.19C224.891 164.189 223.777 166.674 222.292 168.916C221.322 170.34 218.626 172.461 216.172 173.703C211.99 175.794 204.628 177.006 199.023 176.521ZM37.4693 40.5097C38.2874 40.6915 38.8328 40.9642 38.7116 41.0854C38.3177 41.4793 36.2271 41.2975 35.7423 40.8127C34.9848 40.0855 35.1666 39.5704 36.2271 39.3584C36.7725 39.2675 37.5905 38.813 38.045 38.3585C38.4995 37.904 38.8934 37.6919 38.8934 37.8434C38.8934 38.2373 37.3784 39.631 36.621 39.934C36.1362 40.1461 36.2877 40.237 37.4693 40.5097ZM49.5283 40.9945C50.4069 40.5097 50.2251 40.1764 49.195 40.3279C48.1648 40.4794 48.1042 40.3582 48.7708 39.3281C49.0435 38.9342 49.195 38.3585 49.1344 38.0555C49.0435 37.6616 48.8314 37.8434 48.3466 38.813C47.983 39.5099 47.4679 40.0855 47.2255 40.0855C46.4681 40.0855 46.4075 40.6915 47.1346 40.9642C48.0739 41.3581 48.8011 41.3581 49.5283 40.9945ZM39.0449 24.4514C38.3177 24.5726 36.0453 25.4816 34.0455 26.4814C32.0155 27.451 30.2885 28.269 30.1673 28.2387C27.0768 27.9055 31.3793 22.7547 39.1963 17.4827C46.6802 12.4228 51.7401 9.75647 56.4364 8.39303C59.3754 7.54466 62.6779 7.42346 63.6172 8.12034C64.1323 8.51422 63.9505 8.54452 61.7084 8.57482C56.8606 8.57482 51.2553 11.0593 42.1353 17.1494C37.4087 20.3005 31.9246 24.815 31.9246 25.5422C31.9246 25.6936 32.8033 25.3907 33.8941 24.9059C36.2271 23.8454 38.6207 23.3 39.6811 23.5424C40.8022 23.8454 40.5598 24.2393 39.0449 24.4514ZM50.7705 27.0571C53.6186 26.4814 53.7398 26.4511 53.7398 26.1481C53.7398 25.9966 52.649 25.8451 51.2856 25.7845L48.8314 25.6936L51.1038 23.1182C52.346 21.6942 53.8004 20.2701 54.3154 19.9368C55.4365 19.2097 55.4971 18.6946 54.5881 18.3916L53.8913 18.1795L54.6487 17.9068C55.0729 17.7553 55.8607 17.6947 56.4061 17.7856C57.2241 17.9068 57.4059 17.8462 57.315 17.422C57.2241 16.9979 56.8908 16.907 55.4062 16.9373C51.0735 16.9979 49.2252 18.1492 52.6187 18.6946C53.558 18.8461 54.3457 19.0885 54.3457 19.24C54.3457 19.3612 54.1943 19.4824 54.0125 19.4824C53.4368 19.4824 48.5587 24.4211 47.9527 25.633C47.0134 27.4206 47.5285 27.6933 50.7705 27.0571ZM70.7677 15.301C69.889 15.3616 69.6769 15.5131 69.7375 15.9373L69.7469 15.9991C69.7809 16.2232 69.8004 16.3519 69.7502 16.391C69.6824 16.4438 69.4874 16.3332 69.0293 16.0733L69.0292 16.0733L68.9498 16.0282C68.3741 15.7252 68.3135 15.5737 68.6468 15.3313C68.8589 15.1496 69.4346 14.8769 69.889 14.786L70.7374 14.5739L70.1011 13.9073C69.7678 13.5134 69.586 13.1498 69.6769 13.0286C69.9193 12.7862 72.8886 13.1195 73.3128 13.4528C73.4946 13.6043 73.7673 13.574 73.9491 13.3922C74.3733 12.968 74.9489 13.3013 74.9489 13.9679C74.9489 14.3315 74.858 14.3618 74.5854 14.0891C74.343 13.8467 74.1309 13.8467 73.8582 14.0588C73.6158 14.2709 73.434 14.2709 73.2825 14.0285C73.1916 13.877 72.6159 13.7255 72.01 13.7255C71.4509 13.7255 71.1866 13.7255 71.1326 13.8321C71.0842 13.9276 71.2051 14.1089 71.4343 14.4527C71.9176 15.2078 71.8889 15.2101 70.778 15.3002L70.7677 15.301ZM66.1623 7.24157C66.1623 6.84768 65.7987 6.15081 65.3442 5.69633L64.4959 4.84796L69.0407 5.02976C71.5555 5.15095 74.4036 5.42364 75.4034 5.69633C76.4033 5.93872 77.5546 6.12051 77.9788 6.12051C78.6151 6.12051 78.4939 5.99932 77.3123 5.36304C75.2519 4.30258 72.6159 3.7875 67.556 3.42392C61.4963 2.99974 58.4361 3.57541 59.0118 5.09035C59.1027 5.39334 59.5875 5.54484 60.3146 5.54484C61.7993 5.54484 64.2232 6.4235 65.0412 7.24157C65.9199 8.12023 66.1623 8.12023 66.1623 7.24157ZM51.3764 87.4728C53.8306 90.6239 57.0726 94.1992 58.5875 95.4111C59.4965 96.1383 60.2843 96.7443 60.3449 96.7443C60.3752 96.7443 59.7086 95.3505 58.8602 93.6538C55.4365 86.8366 53.4367 80.0496 52.4975 72.2325C52.2854 70.5055 51.9521 69.0512 51.5885 68.4452C50.8613 67.2332 50.8613 65.6577 51.6188 64.173C52.0127 63.3853 52.2248 62.3854 52.2248 61.2947V59.6282L50.7704 61.1432C49.3464 62.6278 47.9829 63.2338 47.9829 62.3248C47.9829 61.6582 50.2251 58.4466 51.4067 57.4467C52.346 56.6589 52.4672 56.3863 52.7702 54.0229C52.9823 52.5989 53.467 50.0841 53.8609 48.4177C54.2851 46.7512 54.5275 45.3272 54.4669 45.2666C54.2548 45.0545 47.1346 53.232 46.165 55.8409C45.9522 56.4137 45.3773 57.4164 44.9228 58.0224L44.135 59.0339C44.135 59.0339 44.3797 60.4502 44.6501 62.2302C44.9232 64.0285 45.0514 65.2648 45.1656 66.3659C45.3183 67.8389 45.4459 69.07 45.862 71.0812C46.3468 73.5657 46.8316 75.7169 46.9528 75.8684C47.0437 76.0502 47.4376 77.4439 47.8315 78.9892C48.6798 82.4129 50.1039 85.8064 51.3764 87.4728ZM174.329 116.135L173.693 115.499C173.693 115.499 184.253 102.082 186.146 97.1381C187.59 93.3653 188.44 92.2954 189.586 92.2954C190.227 92.2954 190.751 92.4418 190.993 92.8054C191.418 93.4417 191.826 94.2294 191.281 96.926C190.372 101.289 188.978 104.167 184.797 110.379C183.827 111.803 182.585 113.378 182.04 113.924C180.767 115.105 177.904 116.317 176.238 116.59C175.177 116.741 174.874 116.681 174.329 116.135Z" fill="#00160A"/>
<path d="M258.226 145.776C261.996 135.505 261.425 133.317 260.772 133.103C260.772 133.103 259.332 133.921 258.696 135.648C257.514 138.89 253.47 147.374 251.955 148.889C250.167 150.676 250.167 150.676 248.349 150.676C246.531 150.676 241.288 147.938 240.574 145.24C239.432 140.922 244.35 125.922 244.471 125.074L243.653 124.498C243.107 125.013 236.013 146.525 226.685 140.92C225.617 140.278 223.353 137.254 223.171 135.648C222.161 130.982 226.794 114.666 227.581 111.315C228.286 108.315 231.957 105.531 236.472 105.531C243.41 105.531 242.478 111.596 245.586 113.733C246.964 114.68 249.227 112.963 249.925 112.833C253.833 112.106 255.331 112.953 258.196 115.227C260.408 116.982 262.044 120.456 263.846 121.68C264.846 122.36 265.908 121.431 266.256 121.256C267.681 120.54 270.74 121.074 271.588 121.68C272.832 122.222 275.88 125.152 276.361 126.856C278.543 134.579 271.653 151.699 269.051 154.911C264.745 160.227 254.457 156.046 258.226 145.776Z" fill="white"/>
<path fill-rule="evenodd" clip-rule="evenodd" d="M84.0385 117.634C92.3404 122.876 100.901 126.299 110.657 127.239C118.353 127.966 128.729 126.966 136.183 124.542C142.455 122.512 150.938 116.888 156.604 112.131C167.603 102.921 174.541 88.5333 177.571 73.2627C177.995 71.1114 178.642 65.704 178.612 60.3411C178.612 54.0995 175.865 37.0431 167.542 27.2085C150.376 6.92454 122.159 -2.2128 98.4449 5.59446C89.8904 8.4108 80.7822 13.5134 73.9044 20.1792C65.2389 28.6325 58.8459 40.1461 56.3008 51.902C53.6345 64.3245 57.1029 79.1709 63.1323 91.3511C67.9498 101.047 75.8881 112.453 84.0385 117.634ZM164.936 81.0192C159.24 98.138 144.394 110.924 125.73 114.802C122.882 115.378 120.912 115.59 116.913 115.651C114.095 115.742 111.277 115.711 110.701 115.651C97.6426 114.075 87.7046 109.258 78.5544 100.107C74.5549 96.0777 72.8582 93.8962 70.3737 89.5937C66.4652 82.7765 64.3746 75.8078 63.7383 67.415C61.5568 38.6614 82.1297 14.6951 111.095 12.2106C122.457 11.241 135.062 14.7254 144.636 21.5123C148.181 24.0271 154.604 30.3899 156.604 33.3591C157.422 34.5408 165.36 46.1452 166.754 52.811C168.542 61.4764 167.845 72.3234 164.936 81.0192Z" fill="white"/>
<path fill-rule="evenodd" clip-rule="evenodd" d="M178.623 60.3411C178.623 80.678 169.003 102.912 156.588 112.407C150.664 116.937 142.924 122.423 136.183 124.542C126.304 127.648 110.657 127.239 110.657 127.239C110.657 127.239 126.62 125.105 132.536 122.724C149.5 115.897 158.76 105.417 164.478 95.3621C175.765 75.5138 178.623 59.847 178.623 60.3411Z" fill="#E7EAEE"/>
<path fill-rule="evenodd" clip-rule="evenodd" d="M111.004 112.015C102.915 110.985 94.8855 108.106 88.4016 103.834C84.5536 101.319 78.7363 95.4111 75.9185 91.1996C71.8887 85.1398 69.2224 78.6559 67.9196 71.6871C66.9803 66.6272 67.0106 58.8404 67.9499 54.3259C68.9194 49.7205 70.1617 46.2058 72.3735 41.7519C74.9489 36.6011 77.6758 32.8138 81.7661 28.7234C88.7349 21.7547 96.8246 17.3311 106.46 15.2102C109.58 14.5436 120.882 13.9982 121.276 14.5133C121.367 14.6648 121.973 15.0587 122.609 15.3919C123.245 15.7555 124.942 17.0281 126.336 18.2703C128.426 20.0883 129.366 21.2396 131.183 24.0877C132.426 26.0268 133.426 27.7842 133.426 27.9356C133.426 28.2689 134.395 28.8749 134.941 28.8749C135.698 28.8749 136.213 26.6025 136.365 22.6031C136.455 20.3912 136.637 18.5733 136.758 18.5733C137.183 18.5733 141.849 21.1487 144.03 22.6031C148.302 25.4511 152.574 29.4506 155.726 33.6318C157.15 35.5104 157.362 35.9951 157.362 37.1465C157.362 38.2069 157.665 39.025 158.604 40.6611C160.967 44.7818 162.815 49.9629 163.937 55.6894C164.664 59.5373 164.664 66.809 163.906 70.8388C161.846 81.9281 155.726 92.9569 147.757 99.9559C141 105.864 133.819 109.5 125.336 111.288C122.427 111.924 113.701 112.348 111.004 112.015ZM89.3409 91.2904C89.6136 90.9874 89.7954 90.533 89.7045 90.3209C89.6772 90.2572 89.2978 90.0789 88.7425 89.8178C87.448 89.2092 85.1974 88.1512 84.2221 87.0486C80.3439 82.625 78.9198 79.3224 78.0411 72.5052C77.1928 65.8697 77.9055 61.3839 79.4349 54.1744C80.181 50.6574 82.1639 47.7524 83.3977 45.9451C84.2365 44.7162 84.729 43.9947 84.2507 43.9334C83.069 43.7516 82.8872 43.8425 81.645 45.0242C78.9787 47.5693 77.7668 49.5993 76.4942 53.5078C74.5248 59.6282 74.1442 76.1684 78.0411 83.6248C81.9381 91.0813 88.644 92.0782 89.3409 91.2904ZM132.426 65.8395C131.911 70.5463 129.729 77.353 127.184 80.3223C126.002 81.716 121.665 84.1096 118.004 83.6249C114.467 83.1566 111.701 81.504 109.338 77.959C107.308 74.8988 106.26 71.1843 105.551 66.506C104.327 58.4276 109.671 49.0236 111.974 46.6906C114.307 44.297 115.974 43.4487 118.094 43.4184C120.155 43.4184 121.488 43.8728 123.579 45.3575C127.396 48.0238 133.426 56.6932 132.426 65.8395ZM91.583 40.7823C92.189 40.0854 92.2799 39.7521 92.0981 38.4493C91.9769 37.2373 91.7345 36.7526 91.0982 36.2375C89.9771 35.3285 88.5834 35.3285 87.5532 36.2981C86.8261 36.9949 86.7352 37.2373 86.8261 38.9038C86.917 40.6914 86.9776 40.8126 87.9774 41.358C89.3106 42.0851 90.6134 41.8731 91.583 40.7823ZM110.489 22.0879C105.036 25.9965 102.672 27.6023 100.218 29.1173C98.279 30.3292 97.6731 30.3595 97.6731 29.2688C97.6731 28.6931 98.0972 28.0568 99.188 27.0569L100.703 25.6632L97.764 25.2693C94.4614 24.8451 91.2497 23.9362 90.5528 23.2393C89.4015 22.0576 90.4013 21.7849 93.6736 22.3909C95.128 22.6333 97.9457 22.9363 99.9455 22.9969L103.581 23.1484L106.217 21.2396C112.004 17.0583 118.004 14.695 120.882 15.4222C122.67 15.8464 122.457 16.3312 120.427 16.5736C118.094 16.8462 116.67 17.634 110.489 22.0879Z" fill="white"/>
<path d="M118.276 79.4739C118.276 79.3225 118.458 79.171 118.7 79.171C118.943 79.171 119.246 79.3225 119.337 79.4739C119.428 79.6557 119.246 79.7769 118.913 79.7769C118.549 79.7769 118.276 79.6557 118.276 79.4739Z" fill="white"/>
<path d="M120.094 79.2012C120.094 78.8679 120.852 78.5649 121.7 78.5649C122.367 78.5952 122.367 78.5952 121.791 79.0194C121.124 79.5345 120.094 79.6254 120.094 79.2012Z" fill="white"/>
<path d="M115.398 78.4135C115.307 78.1711 115.186 77.7469 115.095 77.5045C115.004 77.2015 115.155 77.05 115.549 77.05C115.883 77.05 116.155 77.2318 116.155 77.4742C116.155 77.7166 116.246 78.1105 116.337 78.3832C116.458 78.7165 116.367 78.868 116.034 78.868C115.761 78.868 115.458 78.6559 115.398 78.4135Z" fill="white"/>
<path d="M117.004 77.656C116.852 76.747 117.185 76.444 118.276 76.444C118.609 76.444 118.882 76.747 119.003 77.2621C119.246 78.1408 118.852 78.5649 117.791 78.5649C117.307 78.5649 117.095 78.3529 117.004 77.656Z" fill="white"/>
<path d="M113.913 77.8075C113.337 77.353 113.337 77.353 113.974 77.353C114.368 77.353 114.64 77.5348 114.64 77.8075C114.64 78.3529 114.64 78.3529 113.913 77.8075Z" fill="white"/>
<path d="M120.003 77.7772C119.609 77.3833 119.791 76.2016 120.276 76.0198C121.155 75.6866 121.548 75.8381 121.73 76.6258C121.851 77.0803 121.912 77.4742 121.851 77.5045C121.609 77.7772 120.185 77.959 120.003 77.7772Z" fill="white"/>
<path d="M122.7 77.141C122.609 77.0501 122.518 76.6562 122.518 76.2926C122.518 75.7775 122.76 75.5654 123.488 75.4139C124.124 75.2927 124.518 75.3533 124.7 75.5957C125.003 76.0805 125.003 76.6865 124.73 76.838C124.185 77.141 122.912 77.3228 122.7 77.141Z" fill="white"/>
<path d="M112.519 76.2017C112.519 75.8381 112.792 75.5351 113.186 75.4442C113.974 75.2322 113.943 75.2019 114.095 75.9896C114.156 76.4441 114.004 76.6259 113.368 76.6865C112.701 76.7774 112.519 76.6562 112.519 76.2017Z" fill="white"/>
<path d="M114.822 76.232C114.398 75.7775 114.671 74.9291 115.246 74.9291C115.64 74.9291 115.852 75.1412 115.852 75.5048C115.852 76.0805 115.156 76.5653 114.822 76.232Z" fill="white"/>
<path d="M116.64 75.3229C116.398 74.7472 116.913 74.3231 117.913 74.3231C118.367 74.3231 118.579 74.5049 118.579 74.8987C118.579 75.232 118.306 75.535 117.913 75.6562C116.913 75.8986 116.852 75.8986 116.64 75.3229Z" fill="white"/>
<path d="M125.396 75.2321C125.487 75.0806 125.639 74.9291 125.73 74.9291C125.821 74.9291 125.79 75.0806 125.699 75.2321C125.609 75.4139 125.457 75.5351 125.366 75.5351C125.275 75.5351 125.306 75.4139 125.396 75.2321Z" fill="white"/>
<path d="M119.367 74.7171C119.125 74.1111 119.428 73.8081 120.397 73.6566C120.943 73.596 121.185 73.7172 121.246 74.1414C121.458 75.1412 119.731 75.6866 119.367 74.7171Z" fill="white"/>
<path d="M112.095 74.2019C111.823 73.202 111.883 73.1111 112.671 73.1111C113.095 73.1111 113.428 73.2323 113.428 73.3838C113.428 73.5353 113.519 73.8686 113.61 74.111C113.701 74.414 113.519 74.5958 113.004 74.6867C112.429 74.8079 112.217 74.6867 112.095 74.2019Z" fill="white"/>
<path d="M122.215 73.8686C122.215 73.3233 122.427 73.0809 123.003 72.9294C123.851 72.7173 124.336 73.1415 124.336 74.111C124.336 74.5049 124.094 74.6261 123.276 74.6261C122.336 74.6261 122.215 74.5352 122.215 73.8686Z" fill="white"/>
<path d="M111.186 73.8686C111.095 73.6262 111.156 73.4141 111.307 73.4141C111.489 73.4141 111.61 73.6262 111.61 73.8686C111.61 74.111 111.55 74.3231 111.489 74.3231C111.429 74.3231 111.307 74.111 111.186 73.8686Z" fill="white"/>
<path d="M114.247 74.111C113.822 73.7172 114.065 72.8688 114.61 72.7173C114.943 72.6264 115.277 72.6567 115.368 72.7476C115.731 73.0809 115.519 73.9595 115.065 74.1413C114.489 74.3534 114.489 74.3534 114.247 74.111Z" fill="white"/>
<path d="M125.063 73.899C124.73 73.0203 125.093 72.3538 125.942 72.2629C126.578 72.172 126.76 72.2932 126.76 72.7779C126.76 73.7778 126.427 74.3232 125.821 74.3232C125.487 74.3232 125.154 74.1414 125.063 73.899Z" fill="white"/>
<path d="M116.367 73.505C116.004 73.1717 116.125 72.5657 116.64 72.384C117.216 72.1719 118.428 72.7778 118.094 73.1111C117.67 73.4747 116.579 73.7474 116.367 73.505Z" fill="white"/>
<path d="M119.003 72.7476C118.731 72.3234 119.7 71.5963 120.488 71.5963C120.852 71.5963 121.003 71.778 120.943 72.1113C120.821 72.7173 119.276 73.2021 119.003 72.7476Z" fill="white"/>
<path d="M110.702 72.5355C110.702 72.384 110.611 72.0507 110.52 71.7781C110.429 71.5054 110.459 71.2933 110.641 71.2933C111.035 71.2933 111.338 72.4446 110.974 72.687C110.823 72.7779 110.702 72.7173 110.702 72.5355Z" fill="white"/>
<path d="M111.52 71.8387C111.338 71.1721 111.701 70.6873 112.398 70.6873C112.792 70.6873 113.186 71.869 112.944 72.2629C112.61 72.7779 111.671 72.4749 111.52 71.8387Z" fill="white"/>
<path d="M113.64 71.9902C113.186 71.5357 113.459 70.4449 114.065 70.2934C114.519 70.1722 114.762 70.3237 115.004 70.8691C115.186 71.263 115.277 71.6569 115.216 71.7175C114.913 71.9902 113.822 72.2023 113.64 71.9902Z" fill="white"/>
<path d="M121.821 71.9902C121.427 71.5963 121.609 71.3539 122.518 71.0206C123.276 70.7783 123.488 70.8086 123.639 71.1721C123.912 71.8993 122.397 72.5962 121.821 71.9902Z" fill="white"/>
<path d="M124.488 71.2933C124.185 70.8085 124.609 70.3843 125.397 70.3843C126.336 70.3843 126.608 71.1721 125.76 71.4145C124.851 71.6569 124.7 71.6266 124.488 71.2933Z" fill="white"/>
<path d="M127.063 70.566C127.063 70.1116 127.608 69.6268 127.851 69.8692C128.063 70.0813 127.639 70.9902 127.336 70.9902C127.184 70.9902 127.063 70.8084 127.063 70.566Z" fill="white"/>
<path d="M110.308 70.1722C110.186 70.0813 110.096 69.6874 110.126 69.3541C110.126 68.7784 110.156 68.7784 110.429 69.445C110.732 70.1722 110.671 70.5358 110.308 70.1722Z" fill="white"/>
<path d="M110.883 69.7178C110.611 68.6573 110.641 68.5664 111.429 68.5664C112.307 68.5664 112.853 69.6875 112.186 70.1116C111.489 70.5358 111.095 70.4146 110.883 69.7178Z" fill="white"/>
<path d="M121.306 70.3237C121.306 70.2328 121.458 69.748 121.639 69.2026C122.064 67.9907 123.003 67.9301 123.215 69.1117C123.306 69.5662 123.336 69.9601 123.306 69.9904C123.154 70.1722 121.306 70.4449 121.306 70.3237Z" fill="white"/>
<path d="M113.034 69.5662C112.913 69.4753 112.822 69.1117 112.822 68.7784C112.822 68.2937 112.913 68.2634 113.277 68.5663C113.519 68.7784 113.731 69.142 113.731 69.3541C113.731 69.8086 113.368 69.9298 113.034 69.5662Z" fill="white"/>
<path d="M123.942 68.9602C123.76 68.0209 124.154 67.5967 125.093 67.7179C125.548 67.7785 125.699 68.0512 125.699 68.7178C125.699 69.4753 125.578 69.6571 124.912 69.7177C124.245 69.8086 124.094 69.6571 123.942 68.9602Z" fill="white"/>
<path d="M126.911 69.0814C126.517 67.8695 126.639 67.5059 127.457 67.415C128.184 67.3241 128.275 67.415 128.275 68.2027C128.275 68.8693 128.093 69.142 127.639 69.2632C127.305 69.3541 126.972 69.2632 126.911 69.0814Z" fill="white"/>
<path d="M109.853 67.3544C109.853 66.7787 109.914 66.5363 110.005 66.8393C110.065 67.112 110.065 67.5968 110.005 67.8998C109.914 68.1725 109.853 67.9301 109.853 67.3544Z" fill="white"/>
<path d="M110.611 67.7483C110.217 67.3847 110.399 66.2031 110.883 66.0213C111.58 65.7486 111.913 66.0819 111.913 67.0817C111.913 67.718 111.762 67.9604 111.368 67.9604C111.065 67.9604 110.702 67.8695 110.611 67.7483Z" fill="white"/>
<path d="M112.429 66.9302C112.307 66.4757 112.247 65.9909 112.368 65.9C112.671 65.597 112.853 66.0818 112.762 66.9605L112.671 67.8088L112.429 66.9302Z" fill="white"/>
<path d="M122.215 66.7181C122.215 66.3848 122.367 66.2031 122.518 66.2939C122.7 66.3848 122.821 66.6878 122.821 66.9302C122.821 67.1726 122.7 67.3544 122.518 67.3544C122.367 67.3544 122.215 67.0817 122.215 66.7181Z" fill="white"/>
<path d="M123.579 67.1121C123.154 66.6576 123.488 65.8395 124.185 65.6577C125.063 65.4457 125.093 65.4457 125.366 66.3243C125.548 66.8697 125.427 66.9909 124.639 67.1121C124.154 67.203 123.669 67.1727 123.579 67.1121Z" fill="white"/>
<path d="M126.366 66.5363C126.033 66.2334 126.124 65.2335 126.457 65.2335C126.639 65.2335 126.76 65.1123 126.76 64.9305C126.76 64.779 126.578 64.6275 126.336 64.6275C125.821 64.6275 125.396 63.1429 125.821 62.7187C126.366 62.1733 126.972 62.749 127.336 64.2336C127.548 65.0214 127.76 65.9304 127.851 66.2334C127.972 66.6272 127.851 66.7484 127.275 66.7484C126.881 66.7484 126.457 66.6575 126.366 66.5363Z" fill="white"/>
<path d="M128.002 64.9305C127.79 64.0216 127.245 62.2036 126.851 60.8705C126.245 58.9314 126.184 58.4466 126.518 58.2345C126.73 58.083 127.002 57.9618 127.093 57.9618C127.426 57.9618 128.638 64.173 128.517 65.385L128.426 66.597L128.002 64.9305Z" fill="white"/>
<path d="M109.55 64.779C109.55 64.2942 109.611 64.1124 109.702 64.4154C109.762 64.6881 109.762 65.1123 109.702 65.3244C109.611 65.5062 109.55 65.2941 109.55 64.779Z" fill="white"/>
<path d="M110.156 64.7184C110.277 63.6579 111.156 63.4155 111.398 64.3851C111.61 65.1729 111.671 65.082 110.762 65.385C110.126 65.5668 110.065 65.5062 110.156 64.7184Z" fill="white"/>
<path d="M122.942 64.4457C122.7 63.567 123.215 63.0519 124.185 63.1731C124.912 63.264 125.184 64.5669 124.578 64.9608C123.821 65.4455 123.124 65.2335 122.942 64.4457Z" fill="white"/>
<path d="M111.913 64.2034C111.913 63.6883 112.065 63.4156 112.398 63.4156C112.701 63.4156 112.822 63.6277 112.762 64.0822C112.61 65.0517 111.913 65.1426 111.913 64.2034Z" fill="white"/>
<path d="M109.217 62.9308C109.217 62.5975 109.308 62.5066 109.399 62.749C109.49 62.9611 109.459 63.2338 109.368 63.3247C109.277 63.4459 109.187 63.2641 109.217 62.9308Z" fill="white"/>
<path d="M109.792 62.8399C109.792 62.3854 109.974 62.2036 110.429 62.2036C110.853 62.2036 111.004 62.3551 110.944 62.7187C110.792 63.5065 109.792 63.5974 109.792 62.8399Z" fill="white"/>
<path d="M111.459 62.5671C111.247 62.0218 111.247 62.0218 112.156 61.7794C112.701 61.5976 112.822 61.6885 112.822 62.143C112.822 62.8701 111.732 63.2337 111.459 62.5671Z" fill="white"/>
<path d="M122.427 62.143C122.215 61.3855 122.609 60.9916 123.669 60.9916C124.185 60.9916 124.336 61.1734 124.336 61.7491C124.336 62.2036 124.154 62.5066 123.912 62.5066C123.669 62.5066 123.276 62.5975 123.033 62.6884C122.76 62.7793 122.548 62.5975 122.427 62.143Z" fill="white"/>
<path d="M125.063 61.4461C124.821 60.8402 125.184 60.3857 125.881 60.3857C126.305 60.3857 126.457 60.5978 126.457 61.1432C126.457 61.6885 126.305 61.9006 125.851 61.9006C125.518 61.9006 125.154 61.6885 125.063 61.4461Z" fill="white"/>
<path d="M109.49 61.022C109.49 60.3857 110.186 59.6585 110.489 59.9918C110.611 60.0827 110.701 60.5069 110.701 60.9008C110.701 61.3855 110.52 61.5976 110.095 61.5976C109.702 61.5976 109.49 61.3855 109.49 61.022Z" fill="white"/>
<path d="M111.156 60.6583C110.914 59.9009 111.186 59.5676 112.216 59.4161C113.156 59.2949 113.459 60.2948 112.641 60.9007C111.853 61.4764 111.368 61.3855 111.156 60.6583Z" fill="white"/>
<path d="M122.124 60.4766C121.912 60.2948 121.821 59.1737 122.003 59.1737C122.033 59.1737 122.488 59.0525 123.033 58.901C123.942 58.6283 124.003 58.6586 123.972 59.4767C123.942 60.0827 123.76 60.3857 123.306 60.5069C122.488 60.7189 122.367 60.7189 122.124 60.4766Z" fill="white"/>
<path d="M121.003 59.7797C121.003 59.5676 121.094 59.4767 121.215 59.5676C121.306 59.6888 121.306 59.8706 121.215 59.9918C121.094 60.0827 121.003 59.9918 121.003 59.7797Z" fill="white"/>
<path d="M124.397 59.2949C124.488 58.7798 125.427 58.0223 125.639 58.2647C125.73 58.3556 125.881 58.7192 125.972 59.1131C126.184 59.7191 126.093 59.7797 125.245 59.7797C124.518 59.7797 124.306 59.6585 124.397 59.2949Z" fill="white"/>
<path d="M109.792 59.2646C109.792 59.1131 109.944 58.8101 110.095 58.5677C110.338 58.2041 110.398 58.2344 110.398 58.8101C110.398 59.1737 110.277 59.4767 110.095 59.4767C109.944 59.4767 109.792 59.3858 109.792 59.2646Z" fill="white"/>
<path d="M110.702 58.5981C110.702 57.7497 111.338 57.477 111.823 58.1133C112.126 58.5678 112.126 58.7193 111.823 58.9314C111.186 59.3252 110.702 59.204 110.702 58.5981Z" fill="white"/>
<path d="M119.912 58.2042C119.367 57.5982 119.367 57.5679 119.882 57.7497C120.185 57.8709 120.579 57.9618 120.73 57.9618C120.882 57.9618 121.003 58.1739 121.003 58.4162C121.003 59.0525 120.579 58.9919 119.912 58.2042Z" fill="white"/>
<path d="M113.398 58.1739C112.095 57.174 111.913 54.9319 113.125 54.9319C113.943 54.9319 114.701 56.2044 114.58 57.3861C114.489 58.4768 114.125 58.7192 113.398 58.1739Z" fill="white"/>
<path d="M121.7 58.3556C121.821 58.2648 122.003 58.2648 122.124 58.3556C122.215 58.4768 122.124 58.5677 121.912 58.5677C121.7 58.5677 121.609 58.4768 121.7 58.3556Z" fill="white"/>
<path d="M126.275 57.1739C126.366 56.9013 126.457 56.6286 126.457 56.568C126.457 56.5074 126.608 56.4468 126.76 56.4468C126.942 56.4468 127.063 56.7195 127.063 57.0528C127.063 57.4163 126.851 57.6587 126.578 57.6587C126.245 57.6587 126.154 57.5072 126.275 57.1739Z" fill="white"/>
<path d="M110.399 57.0832C110.399 56.3863 111.035 55.2349 111.398 55.2349C112.035 55.2349 111.58 57.174 110.914 57.2952C110.641 57.3558 110.399 57.2649 110.399 57.0832Z" fill="white"/>
<path d="M117.216 56.7498L116.307 56.5377L117.125 56.3256C117.973 56.0833 118.579 56.2651 118.579 56.7801C118.579 57.0831 118.549 57.0831 117.216 56.7498Z" fill="white"/>
<path d="M116.155 55.2954C116.155 54.0532 116.852 53.8714 117.488 54.9621C117.913 55.6893 117.943 55.8408 117.549 55.8408C117.307 55.8408 116.913 55.9317 116.64 56.0226C116.276 56.1741 116.155 55.9923 116.155 55.2954Z" fill="white"/>
<path d="M121.427 55.7197C120.064 55.1137 119.185 53.5079 119.185 51.599C119.185 50.2356 119.306 49.9023 120.124 49.1448C120.64 48.6601 121.155 48.2662 121.306 48.2662C121.973 48.2662 124.427 50.5992 125.245 52.0535L126.184 53.72L125.184 54.7804C124.033 55.9924 122.76 56.3257 121.427 55.7197Z" fill="white"/>
<path d="M115.095 54.9319C115.004 54.7804 115.065 54.6289 115.216 54.6289C115.398 54.6289 115.549 54.7804 115.549 54.9319C115.549 55.1137 115.489 55.2349 115.428 55.2349C115.337 55.2349 115.186 55.1137 115.095 54.9319Z" fill="white"/>
<path d="M111.126 54.4471C111.217 54.1744 111.308 53.9017 111.308 53.8411C111.308 53.7805 111.58 53.7199 111.913 53.7199C112.671 53.7199 112.701 54.2047 111.944 54.6289C111.126 55.0531 110.914 55.0228 111.126 54.4471Z" fill="white"/>
<path d="M113.519 54.0835C112.822 53.9927 112.61 53.5988 113.065 53.3261C113.186 53.2352 113.731 53.0837 114.277 52.9625C115.095 52.7807 115.246 52.8413 115.246 53.3564C115.246 53.9927 114.61 54.2653 113.519 54.0835Z" fill="white"/>
<path d="M115.852 53.0533C115.852 52.6897 115.883 52.4776 115.943 52.5382C115.973 52.5988 116.216 52.9018 116.428 53.2048C116.792 53.629 116.761 53.7199 116.337 53.7199C116.034 53.7199 115.852 53.4775 115.852 53.0533Z" fill="white"/>
<path d="M111.61 52.8413C111.61 52.6595 111.762 52.4474 111.913 52.3565C112.095 52.2656 112.216 52.3868 112.216 52.6292C112.216 52.9019 112.095 53.1139 111.913 53.1139C111.762 53.1139 111.61 52.9927 111.61 52.8413Z" fill="white"/>
<path d="M112.732 52.3868C112.489 51.7808 114.64 51.1143 115.004 51.6899C115.277 52.1747 115.004 52.3868 113.853 52.6292C113.156 52.7807 112.853 52.7201 112.732 52.3868Z" fill="white"/>
<path d="M115.58 51.4172C115.58 51.0839 115.67 50.993 115.761 51.2354C115.852 51.4475 115.822 51.7202 115.731 51.8111C115.64 51.9323 115.549 51.7505 115.58 51.4172Z" fill="white"/>
<path d="M113.004 50.9324C113.368 50.2659 114.428 49.1751 114.701 49.1751C115.004 49.1751 115.034 50.5992 114.731 50.7809C114.58 50.8415 114.095 50.993 113.641 51.1142C112.974 51.2657 112.822 51.2354 113.004 50.9324Z" fill="white"/>
<path d="M115.428 50.2355C115.095 49.3266 115.246 48.9327 115.973 48.8115C116.731 48.66 116.731 48.66 116.246 49.5993C115.64 50.8112 115.67 50.8112 115.428 50.2355Z" fill="white"/>
<path d="M115.246 48.4176C115.246 48.3571 115.852 47.9329 116.61 47.5087C117.519 46.9633 118.155 46.7815 118.61 46.9027C119.155 47.0845 119.003 47.2057 117.67 47.842C116.186 48.5085 115.246 48.7509 115.246 48.4176Z" fill="white"/>
<path d="M132.062 21.5729C131.244 20.3913 129.517 18.4825 128.275 17.3311C127.033 16.1797 126.214 15.2405 126.457 15.2405C127.123 15.2405 132.214 16.6342 133.486 17.1796C134.547 17.6341 134.577 17.6947 134.304 18.6339C134.153 19.1793 134.032 20.5428 134.032 21.6638C134.032 22.8152 133.941 23.7241 133.819 23.7241C133.668 23.7241 132.911 22.7546 132.062 21.5729Z" fill="white"/>
<path d="M70.4041 113.348C69.1619 112.712 68.8892 112.348 67.3136 109.227C65.0412 104.804 64.9806 103.774 67.1318 106.288C67.9802 107.288 69.9496 109.349 71.4949 110.863C74.1309 113.409 74.2521 113.59 73.3734 113.469C72.7371 113.378 72.4947 113.439 72.6462 113.681C73.0098 114.227 71.8584 114.075 70.4041 113.348Z" fill="white"/>
<path fill-rule="evenodd" clip-rule="evenodd" d="M121.181 168.55C120.93 167.953 121.21 167.265 121.808 167.013L122.46 166.736C128.807 164.021 132.45 162.389 134.925 159.799C137.4 157.209 137.697 153.404 138.162 151.089C138.289 150.454 139.728 151.569 140.363 151.697C140.999 151.825 141.41 152.443 141.283 153.078C140.723 155.862 139.218 158.516 136.794 161.035C134.378 163.545 129.701 166.236 122.718 169.176C122.121 169.427 121.433 169.147 121.181 168.55Z" fill="#00160A"/>
<path fill-rule="evenodd" clip-rule="evenodd" d="M149.882 47.6575C150.439 47.326 151.159 47.5087 151.491 48.0656C154.809 53.641 156.587 60.0145 156.587 66.6455C156.587 86.7346 140.302 103.02 120.213 103.02C114.875 103.02 109.697 101.869 104.956 99.675C104.368 99.4029 102.146 97.2362 104.384 98.1174C106.622 98.9986 115.279 100.977 120.275 100.977C139.068 100.977 152.363 85.4385 152.363 66.6455C152.363 60.44 149.882 54.9319 149.474 49.2659C149.427 48.6092 149.325 47.989 149.882 47.6575Z" fill="#00160A"/>
<path fill-rule="evenodd" clip-rule="evenodd" d="M33.6742 136.464C34.0889 135.966 34.8288 134.96 35.3267 135.374C37.3694 137.076 39.5492 139.047 41.8809 139.428C44.3072 139.823 47.1857 139.823 50.5125 139.421C51.1559 139.343 51.7405 139.801 51.8184 140.445C51.8963 141.088 51.4379 141.673 50.7946 141.75C47.2616 142.178 44.1657 142.178 41.5029 141.744C38.7455 141.294 36.1812 140.079 33.8248 138.116C33.3268 137.701 33.2594 136.962 33.6742 136.464Z" fill="#00160A"/>
<path d="M58.5875 95.4111C57.0726 94.1992 53.8306 90.6239 51.3764 87.4729C50.1039 85.8064 48.6798 82.413 47.8315 78.9892C47.4376 77.444 47.0437 76.0502 46.9528 75.8684C46.8316 75.7169 46.3468 73.5657 45.862 71.0812C45.1349 67.5665 45.2887 66.4343 44.6501 62.2302C44.3797 60.4502 44.135 59.0339 44.135 59.0339L44.9228 58.0224C45.3773 57.4164 45.9522 56.4137 46.165 55.8409C47.1346 53.2321 54.2548 45.0545 54.4669 45.2666C54.5275 45.3272 54.2851 46.7513 53.8609 48.4177C53.467 50.0841 52.9823 52.5989 52.7702 54.023C52.4672 56.3863 52.346 56.659 51.4067 57.4467C50.2251 58.4466 47.983 61.6583 47.983 62.3249C47.983 63.2338 49.3464 62.6278 50.7704 61.1432L52.2248 59.6283V61.2947C52.2248 62.3854 52.0127 63.3853 51.6188 64.1731C50.8613 65.6577 50.8613 67.2333 51.5885 68.4452C51.9521 69.0512 52.2854 70.5055 52.4975 72.2326C53.4367 80.0497 55.4365 86.8366 58.8602 93.6538C59.7086 95.3506 60.3752 96.7443 60.3449 96.7443C60.2843 96.7443 59.4965 96.1383 58.5875 95.4111Z" fill="white"/>
</svg>
