<svg width="300" height="288" viewBox="0 0 300 288" fill="none" xmlns="http://www.w3.org/2000/svg">
<path d="M262.181 213.034C260.403 247.707 232.622 279.128 198.568 285.886C164.514 292.645 127.244 274.668 110.651 244.172C108.82 240.807 107.189 237.277 105.559 233.747C101.349 224.635 97.1413 215.527 89.4891 209.259C80.752 202.103 69.5153 200.189 58.1654 198.255C50.9582 197.028 43.7053 195.792 37.0179 193.202C20.8967 186.957 8.37942 172.163 4.89007 155.231C-0.764437 127.791 17.1463 99.7762 41.0309 85.133C64.9155 70.4899 93.6162 66.4117 121.455 63.2692C132.105 62.0671 140.756 54.0418 146.934 45.2848C149.326 41.8947 151.478 38.3324 153.628 34.7727C157.033 29.1375 160.433 23.5088 164.775 18.5802C183.159 -2.28923 217.394 -5.81086 240.811 9.19551C264.227 24.2019 275.435 55.0593 269.208 82.1654C268.136 86.8341 266.613 91.38 265.091 95.9263L265.09 95.9269C263.633 100.279 262.175 104.631 261.112 109.092C258.84 118.625 258.406 128.491 258.148 138.289C257.839 149.971 257.767 161.683 258.861 173.317C259.241 177.364 259.763 181.406 260.284 185.447C261.469 194.63 262.654 203.809 262.181 213.034Z" fill="#AEFF82"/>
<path d="M121.417 54.988C134.15 48.6535 144.284 37.6525 150.666 24.9431C151.503 23.2767 152.296 21.5062 152.266 19.6417C152.237 17.7772 151.152 15.8024 149.349 15.3289C146.764 14.6503 144.541 17.1284 142.929 19.2599C131.857 33.902 115.742 45.3967 97.5564 47.9036C90.5721 48.8664 83.4811 48.5048 76.4401 48.1413L65.4425 47.5735C56.5847 47.1162 47.604 46.668 38.9336 48.5371C30.2633 50.4061 21.7913 54.9013 17.0293 62.3841C15.5135 64.7659 14.3782 67.5726 14.7976 70.3645C15.2273 73.2255 17.261 75.6537 19.7106 77.1929C22.1603 78.7321 25.0062 79.5022 27.8266 80.1465C29.8917 80.6182 32.0008 81.036 34.1138 80.8873C37.5683 80.6441 40.7031 78.9263 43.7534 77.2549C43.9566 77.1435 44.1595 77.0324 44.362 76.9219C49.6932 74.0135 55.2174 71.4305 60.9791 69.5113C69.3812 66.7126 78.2161 65.3431 87.0291 63.9769C98.9018 62.1364 110.735 60.302 121.417 54.988Z" fill="#AEFF82"/>
<path d="M55.2008 223.742L55.2082 223.742C55.7272 223.763 56.2458 223.784 56.7631 223.811C64.9452 224.236 73.0421 226.242 80.4766 229.685C83.3111 230.998 86.182 232.641 87.774 235.329C89.7439 238.655 92.1085 241.746 94.8024 244.518C95.8475 245.593 96.9792 246.645 98.3744 247.194C99.7697 247.744 101.493 247.693 102.625 246.71C104 245.515 104.089 243.394 103.665 241.623C102.971 238.719 101.239 236.189 99.5243 233.745C93.8985 225.725 87.9758 217.707 80.147 211.818C72.3182 205.93 62.2147 202.364 52.6321 204.398C49.3233 205.101 46.044 206.532 43.8503 209.107C41.6567 211.682 40.7898 215.557 42.3697 218.547C43.6231 220.92 46.1641 222.38 48.7655 223.038C50.8622 223.568 53.0336 223.655 55.2003 223.742H55.2008Z" fill="#AEFF82"/>
<path d="M276.516 103.119C274.329 102.294 271.852 103.291 270.001 104.718C266.344 107.537 264.181 111.946 263.196 116.457C262.212 120.968 262.292 125.634 262.376 130.25L263.099 169.913C263.152 172.811 263.28 175.934 265.062 178.22C265.62 178.935 266.383 179.563 267.286 179.655C268.379 179.767 269.391 179.076 270.181 178.311C274.499 174.13 275.066 167.543 275.583 161.539L275.602 161.321C276.362 152.508 277.677 143.743 279.538 135.096C280.061 132.664 280.636 130.216 281.73 127.982C285.162 120.98 284.341 112.09 279.686 105.834C278.844 104.702 277.836 103.617 276.516 103.119Z" fill="#AEFF82"/>
<path d="M198.168 156.807C200.476 157.442 202.543 159.364 202.77 161.747C203.208 160.799 204.169 160.114 205.208 160.01L203.7 161.613L205.608 161.651L202.982 163.118C204.61 166.129 204.347 169.842 203.303 173.102C202.664 175.098 201.74 177.097 201.92 179.184C202.098 181.237 203.921 183.334 205.914 182.914L206.013 182.891C208.409 182.286 211.032 182.636 213.184 183.849C216.277 185.591 218.153 188.827 220.278 191.669C222.155 194.179 224.375 196.513 227.151 197.967C229.927 199.421 233.331 199.901 236.223 198.693C237.658 198.095 238.942 197.103 240.465 196.787C241.987 196.472 243.547 197.318 244.106 198.761C244.354 199.4 243.822 201.764 242.467 204.527C242.687 204.463 242.918 204.423 243.159 204.407C250.281 203.944 257.469 202.396 263.598 198.74C265.546 197.577 267.366 196.215 269.172 194.842L270.225 194.04L270.863 193.549C274.827 190.478 278.741 187.054 280.371 182.383L280.456 182.131L280.637 181.579C280.986 180.534 281.428 179.453 282.437 179.129C283.833 178.68 285.105 180.031 285.954 181.228L292.071 189.852C292.228 190.073 292.389 190.303 292.449 190.568C292.714 191.739 290.965 192.332 289.837 191.915C287.787 191.159 286.142 188.904 283.991 189.291C282.48 189.563 281.576 191.027 280.829 192.406L280.64 192.757C276.114 201.233 268.496 208.013 259.554 211.527C257.248 212.433 254.867 213.127 252.489 213.819L247.684 215.219L248.531 215.37C255.699 216.627 263.347 217.394 269.857 214.217C274.19 212.103 277.529 208.462 280.679 204.782L281.822 203.439L282.293 202.878C284.226 200.559 286.063 198.077 286.627 195.138C286.843 194.01 288.268 193.471 289.376 193.777C290.483 194.083 291.327 194.959 292.111 195.799L298.058 202.164C298.526 202.665 299.019 203.219 299.088 203.901C299.157 204.584 298.545 205.357 297.886 205.165L291.437 203.292C290.832 203.117 290.162 202.945 289.593 203.214C289.157 203.421 288.875 203.844 288.625 204.261L281.693 215.968C279.74 219.265 276.123 221.176 272.568 222.606C264.044 226.034 254.793 227.644 245.612 227.299C244.615 227.262 243.617 227.201 242.631 227.046C238.927 226.462 235.582 224.579 232.344 222.674C232.912 224.751 232.406 226.503 229.033 226.636C226.046 226.754 218.728 214.454 216.453 213.816C204.032 210.333 201.993 203.458 198.002 198.761C198.002 198.761 189.938 199.803 184.614 198.693C172.134 196.092 163.747 188.088 160.724 187.578C157.7 187.069 155.706 189.007 154.772 187.831L154.772 186.979C154.917 186.745 156.362 185.395 160.484 186.272C166.239 187.497 175.44 192.119 182.466 192.983C189.842 193.889 196.091 192.689 196.056 192.488C195.986 192.077 197.84 190.332 196.359 189.451C194.877 188.569 173.372 179.938 168.698 172.745L168.642 172.655C167.838 171.322 167.228 168.007 168.845 169.524L169.298 168.721C171.039 170.363 176.756 174.117 182.695 177.817C188.973 181.729 197.84 184.235 198.002 184.125C201.616 181.681 198.411 179.912 197.813 179.392C196.413 178.176 194.554 177.513 193.348 176.105C190.455 172.727 192.521 166.685 189.214 163.711C188.713 163.261 188.106 162.907 187.744 162.34C187.123 161.368 187.428 160.016 188.18 159.142C188.933 158.269 190.033 157.781 191.122 157.401C193.382 156.611 195.86 156.171 198.168 156.807Z" fill="white"/>
<ellipse cx="200.107" cy="174.08" rx="0.853328" ry="0.853321" fill="#FFB61D"/>
<ellipse cx="194.904" cy="174.08" rx="0.632846" ry="0.853321" fill="#FFB61D"/>
<path d="M163.98 178.215C156.046 176.164 147.708 175.69 139.593 176.831C140.207 173.798 140.975 170.796 141.895 167.842C139.254 168.694 136.137 166.274 136.308 163.505C136.478 160.735 139.869 158.717 142.385 159.887C143.249 157.893 143.304 155.561 142.535 153.529C142.166 152.554 143.637 151.991 144.68 151.991L150.441 151.99C151.246 151.989 152.369 151.615 152.169 150.835C151.694 148.986 152.966 146.872 154.823 146.425C156.645 145.987 158.698 147.235 159.168 149.043L159.193 149.144C159.63 151.087 162.091 151.704 164.082 151.666L165.073 151.642C166.795 151.606 168.589 151.662 169.742 152.866C171.12 154.307 170.812 156.601 170.358 158.556L170.328 158.686C169.684 161.401 168.997 164.105 168.269 166.798C169.684 178.187 166.18 178.784 163.98 178.215Z" fill="white"/>
<path d="M97.8075 168.706C96.9663 163.233 96.9675 157.63 97.8109 152.157L97.8535 151.892C98.0628 150.65 98.4303 149.338 99.4682 148.654C100.245 148.142 101.227 148.103 102.163 148.103L109.328 148.123C109.655 148.123 110.012 148.136 110.257 148.351C110.503 148.566 110.496 149.059 110.182 149.147C109.431 149.354 109 150.22 109.091 150.994C109.182 151.767 109.685 152.437 110.275 152.944C111.684 154.155 113.873 154.585 115.432 153.576C116.992 152.566 117.358 149.966 115.881 148.84C119.228 148.772 122.577 148.782 125.924 148.871L127.179 148.908C127.584 148.922 128.033 148.954 128.316 149.244C128.529 149.463 128.599 149.78 128.647 150.08C129.017 152.397 128.612 154.832 127.511 156.903C127.336 157.233 126.929 157.597 126.653 157.346C125.477 156.278 123.499 156.424 122.296 157.46C121.092 158.497 120.627 160.219 120.84 161.793C121.045 163.308 122.149 164.925 123.676 164.849C124.878 164.789 126.215 163.737 127.124 164.527L125.593 171.367C125.321 172.582 124.833 174.023 123.615 174.284C116.586 175.787 109.216 175.674 102.237 173.954L101.898 173.869C101.051 173.647 100.208 173.36 99.5467 172.794C98.3965 171.81 98.0374 170.203 97.8075 168.706Z" fill="white"/>
<path d="M152.954 115.033L169.94 115.374L170.217 115.381C170.727 115.397 171.241 115.442 171.701 115.656C172.739 116.14 173.215 117.335 173.531 118.437C175.216 124.316 175.008 130.723 172.945 136.481L172.858 136.717C172.589 137.425 172.238 138.131 171.604 138.53C171.082 138.858 170.446 138.926 169.827 138.96L169.694 138.966C167.169 139.086 164.634 139.021 162.118 138.773C163.428 137.966 163.759 136.002 162.927 134.708C162.095 133.413 160.337 132.872 158.856 133.293C157.954 133.549 157.113 134.166 156.787 135.045C156.46 135.925 156.776 137.054 157.61 137.484C158.187 137.781 158.087 138.716 157.582 139.123C157.077 139.53 156.375 139.559 155.727 139.57L147.204 139.708C146.564 139.718 145.89 139.721 145.328 139.414C144.531 138.979 144.164 138.042 143.939 137.161C143.397 135.037 143.324 132.795 143.726 130.64C144.21 132.342 146.308 133.375 147.952 132.723C149.597 132.07 150.415 129.88 149.601 128.309C148.787 126.738 146.526 126.144 145.044 127.111L144.983 126.562C144.77 124.637 144.605 122.688 144.975 120.792C145.379 118.716 146.534 116.677 148.427 115.734C149.808 115.046 151.402 115.008 152.954 115.033Z" fill="white"/>
<path d="M101.436 134.14C99.0444 134.149 96.6521 134.051 94.269 133.845L94.0376 133.824C93.1842 133.738 92.2893 133.568 91.7301 132.933C90.9755 132.076 91.1597 130.785 91.3864 129.655L91.4091 129.543C92.422 124.585 92.8198 119.502 92.5913 114.447L92.5488 113.575C92.4853 112.008 92.5854 110.231 93.8874 109.425C94.2834 109.18 94.7432 109.066 95.2016 108.974L95.3542 108.943C103.69 107.32 112.369 107.484 120.637 109.423C121.725 109.678 122.028 111.153 121.667 112.211C121.306 113.269 120.531 114.159 120.241 115.239C119.951 116.319 120.483 117.781 121.6 117.816C123.926 117.889 125.898 120.252 125.585 122.558C125.273 124.864 122.78 126.613 120.498 126.155C119.963 126.048 119.773 126.839 119.832 127.382L120.483 133.402C120.59 134.385 119.195 134.695 118.21 134.618L112.462 134.171C111.558 134.101 110.347 134.256 110.208 135.151C109.862 137.38 107.576 139.12 105.336 138.862C103.095 138.603 101.266 136.389 101.436 134.14Z" fill="white"/>
<path fill-rule="evenodd" clip-rule="evenodd" d="M85.9632 171.188C86.601 171.343 87.514 171.619 87.4634 172.222C86.4427 184.378 82.0489 182.141 78.131 185.626C77.0957 186.547 76.4771 188.726 76.0323 188.776C77.6812 189.537 80.0741 192.592 84.1922 192.732C95.6662 193.121 99.8425 184.749 99.8425 184.749C100.112 182.064 98.7509 177.23 100.45 178.583C101.623 179.518 101.391 174.965 102.994 175.419C103.475 175.555 102.634 178.582 102.994 178.763C103.193 178.863 103.486 178.038 103.999 177.381C104.426 176.834 105.085 176.428 105.222 176.548C105.314 176.629 105.226 177.411 104.841 178.073C104.3 179.004 103.396 179.899 103.522 180.048C103.661 180.213 106.046 177.993 106.192 178.187C107.157 179.474 101.044 194.292 90.7293 197.09L89.9125 197.309C83.8996 198.907 81.3745 199.125 75.8035 197.09C73.162 196.125 71.519 205.137 70.0507 208.136C69.1236 210.03 64.6206 214.672 62.5642 213.268C59.8513 211.416 57.6392 207.969 55.3305 206.225L55.1821 206.116C53.6088 204.988 50.0501 203.276 44.5062 200.981L44.7559 200.865C45.9126 200.339 48.892 199.054 51.1796 197.09C54.4301 194.299 56.1905 188.304 58.4564 185.072C60.6937 181.88 63.696 182.35 61.884 181.785C61.884 181.785 57.2928 179.353 55.1821 179.13C48.1333 178.386 38.9444 181.717 36.0048 183.864C31.9713 186.81 35.9788 191.144 30.4056 189.02C28.5482 188.312 33.5266 179.138 40.3937 175.419C49.9388 170.249 58.9641 168.826 68.0127 177.056C71.6952 180.406 72.0597 183.388 73.0472 185.661L72.8451 185.104C83.761 184.384 67.4055 173.456 81.0598 170.721C82.4939 170.433 83.9989 170.732 85.4363 171.065L85.9632 171.188Z" fill="white"/>
<ellipse cx="78.9334" cy="178.773" rx="0.853335" ry="0.853342" fill="#FFB61D"/>
<ellipse cx="83.6268" cy="180.48" rx="0.853335" ry="0.853328" fill="#FFB61D"/>
<path fill-rule="evenodd" clip-rule="evenodd" d="M34.0879 211.867C43.3374 218.272 31.5029 209.425 41.6091 219.967C43.6499 222.096 53.983 209.937 55.0489 217.143C55.4377 219.772 54.5898 222.508 55.1068 225.114C55.5891 227.546 66.1664 226.086 66.9834 225.022C69.9452 221.167 60.728 211.262 58.7953 209.679C48.0105 200.844 44.4516 201.457 34.3746 210.598L34.0879 211.867Z" fill="white"/>
<path fill-rule="evenodd" clip-rule="evenodd" d="M274.703 51.7779C276.518 51.9948 278.205 52.1964 278.205 50.0819C278.205 49.5788 272.099 45.1594 270.29 46.8613C267.963 49.0499 266.115 51.5597 264.325 53.9908C260.568 59.0943 257.066 63.8506 249.927 64.5592L249.84 64.5687C247.073 64.903 252.229 67.3594 258.02 64.5592C262.001 62.6339 267.298 56.5429 269.814 53.6499C270.473 52.8928 270.941 52.3547 271.145 52.1676L271.197 52.1226C272.055 51.4613 273.411 51.6235 274.703 51.7779ZM283.317 57.5007L289.358 62.296C290.535 63.2302 289.157 65.2435 287.657 65.3399C286.787 65.3959 285.953 65.1282 285.114 64.8591C284.507 64.6643 283.898 64.4689 283.272 64.3948C279.724 63.9754 277.019 67.3166 274.818 70.1307C272.807 72.7024 270.605 75.1247 268.236 77.3709L267.915 77.672L267.581 77.9792C265.676 79.7118 263.538 81.2811 261.024 81.7332C257.323 82.399 253.645 80.5036 250.622 78.2667C249.884 77.7208 249.159 77.1483 248.434 76.5754L248.434 76.5753L248.434 76.5752C246.188 74.8004 243.939 73.0226 241.276 72.0263C238.968 73.2857 236.808 74.8074 234.836 76.5433L234.924 76.4741C238.235 79.7931 240.551 84.0934 241.499 88.685L240.865 88.5737L240.447 88.5025C236.534 87.8463 232.344 87.458 229.037 89.552C227.871 90.29 226.832 91.3205 225.805 92.3394C225.089 93.0488 224.379 93.7526 223.636 94.3481C223.825 94.4602 224.018 94.5767 224.216 94.6976C227.875 96.1944 231.754 97.1531 235.689 97.5332C236.29 97.5914 236.898 97.6375 237.508 97.6838C240.33 97.8982 243.189 98.1153 245.601 99.5324L246.448 100.038C247.805 100.842 249.316 101.607 250.454 100.676C250.781 100.409 250.995 100.042 251.21 99.6731L251.21 99.6731C251.341 99.4488 251.472 99.2239 251.629 99.0204C252.045 98.4823 252.869 98.1037 253.386 98.5456L253.595 100.19C253.748 99.1321 254.768 98.2723 255.836 98.3019C256.904 98.3316 257.876 99.2468 257.969 100.311C258.138 102.244 255.947 103.4 254.087 104.015L244.449 107.121C241.006 108.231 237.188 107.656 233.868 106.217C230.777 104.878 228.05 102.839 225.444 100.697L224.867 100.219C222.899 98.5818 220.239 96.8028 218.006 98.0553C221.886 98.2912 224.715 101.635 227.029 104.797L227.252 105.102C227.626 105.618 228.012 106.162 228.105 106.793C228.364 108.56 226.356 109.733 224.661 110.295C226.09 111.06 225.382 113.282 224.275 114.466C222.664 116.188 220.555 117.427 218.28 118.041L218.072 118.759C218.059 118.808 218.053 118.833 218.055 118.834C219.128 118.759 219.789 120.201 219.352 121.184C218.915 122.166 217.836 122.69 216.801 122.982C213.39 123.947 209.538 123.186 206.75 120.997L206.207 121.28C203.852 122.499 201.415 123.633 198.797 124.017C195.978 124.431 192.874 123.85 190.836 121.858L190.97 122.152C191.258 122.791 191.517 123.452 191.527 124.149C191.537 124.952 191.122 125.82 190.361 126.078C189.104 126.503 188.007 125.161 187.355 124.006C186.998 124.895 187.366 125.896 187.724 126.869C188.133 127.979 188.528 129.052 187.818 129.883C187.078 130.749 185.675 130.527 184.658 130.017C180.846 128.105 179.055 123.292 179.881 119.108C180.707 114.924 183.715 111.42 187.297 109.106C184.865 107.324 183.086 104.669 182.361 101.742C182.554 101.991 183.416 101.19 184.641 100.051L184.641 100.051L184.641 100.051C186.882 97.9687 190.336 94.7582 193.127 94.7882C193.662 94.7938 194.525 95.2075 195.371 95.6127L195.371 95.6127L195.371 95.6127C195.983 95.9061 196.586 96.1951 197.049 96.3215C197.087 96.2721 197.134 96.2274 197.187 96.1884L196.659 95.809C195.597 95.0545 194.488 94.3448 193.23 94.0322C191.763 93.6674 190.025 93.9675 189.091 95.1559C186.805 98.0618 183.908 100.485 180.645 102.223L182.579 105.794C181.78 106.176 180.784 106.106 180.042 105.625L179.951 105.563L180.008 105.634C181.122 107.087 180.143 109.621 178.319 109.909C176.468 110.685 174.601 108.365 174.784 106.366C174.911 104.965 175.605 103.724 176.301 102.48C176.597 101.949 176.895 101.417 177.148 100.873C178.004 99.0339 178.38 96.991 178.754 94.9612C179.266 92.1789 179.774 89.4211 181.507 87.2464C182.72 85.7232 184.419 84.6641 186.162 83.7955C193.078 80.3483 201.263 79.524 208.728 81.5228C209.999 76.9676 212.52 72.7677 215.942 69.503L216.146 69.3117C217.455 68.1056 219.083 67.0281 220.819 67.2259L220.957 67.2442C222.681 67.5072 224.179 66.1767 225.432 64.9453L225.819 64.5661L226.121 64.2745C228.608 61.8993 231.495 59.7073 234.893 59.4708C237.915 59.2605 240.808 60.6482 243.417 62.1889C246.369 63.932 249.177 65.9189 251.802 68.1225L252.264 68.5137C252.384 68.6165 252.505 68.7201 252.626 68.8242L252.63 68.8276L252.635 68.8324C255.112 70.9594 257.821 73.2867 261.045 73.0939C264.349 72.8961 266.764 70.1528 268.988 67.6248L268.989 67.6243C269.169 67.42 269.347 67.217 269.525 67.017C272.269 63.9278 275.394 61.2081 278.557 58.544L279.914 57.4048C280.324 57.0606 280.766 56.7022 281.297 56.6333C282.045 56.5362 282.726 57.032 283.317 57.5007ZM223.586 109.866C222.915 109.732 221.998 109.791 220.837 110.041C221.602 110.044 222.245 110.031 222.768 110C223.021 109.969 223.273 109.93 223.52 109.88L223.586 109.866ZM198.71 95.0744C198.955 94.823 199.213 94.5578 199.5 94.3311C200.033 94.0499 200.634 93.9071 201.239 93.9646C203.285 94.159 204.835 96.3356 204.567 98.3739C203.487 101.051 200.813 102.579 198.169 104.089C196.54 105.02 194.922 105.945 193.695 107.127C194.003 106.619 194.34 106.214 194.682 105.965C195.749 105.188 196.865 104.515 197.917 103.88L197.917 103.88L197.917 103.88C198.801 103.347 199.64 102.841 200.366 102.324C201.509 101.51 202.277 100.736 202.872 100.137L202.872 100.137L202.872 100.137L202.872 100.137C203.327 99.6787 203.681 99.3223 204.024 99.1273C204.052 99.1113 205.342 96.497 202.224 94.7882C199.87 93.498 198.821 95.1302 198.257 96.0073C198.074 96.2919 197.943 96.497 197.834 96.497C197.805 96.497 197.766 96.4926 197.717 96.484C197.795 96.2057 197.913 95.937 198.065 95.6854C198.276 95.519 198.487 95.3024 198.709 95.0744L198.71 95.0744ZM190.015 93.1171C189.813 93.6632 190.824 93.7057 191.527 93.7352C191.617 93.739 191.702 93.7426 191.779 93.747L192.131 93.769C192.322 93.7801 192.486 93.7879 192.629 93.7947C193.476 93.8349 193.619 93.8417 194.842 94.3209C195.027 94.3936 195.376 94.661 195.767 94.9609C196.42 95.4623 197.192 96.0542 197.516 95.9778C197.676 95.9399 197.832 95.8569 197.987 95.7441L198.065 95.6854C198.38 95.1608 198.84 94.7103 199.375 94.4001L199.5 94.331C199.955 93.9708 200.481 93.7076 201.137 93.7505C202.312 93.8274 203.398 94.574 204.395 95.9905C204.629 95.5766 204.906 95.1769 205.183 94.7771C205.736 93.9777 206.29 93.1783 206.501 92.265C209.052 81.2188 193.625 83.3453 190.015 93.1171ZM227.357 85.6337L227.36 85.6281C226.511 87.2419 225.599 89.1843 224.625 91.4554C225.358 89.4375 226.275 87.4882 227.357 85.6337ZM234.235 87.122L234.116 87.1265C233.175 87.166 232.331 87.3068 231.583 87.549C230.754 87.8177 229.871 88.267 228.936 88.8969C230.573 87.9901 232.382 87.3835 234.235 87.122Z" fill="white"/>
<path fill-rule="evenodd" clip-rule="evenodd" d="M186.102 128.048C185.362 128.914 184.29 128.634 183.308 127.677C181.253 125.673 180.427 121.808 181.253 117.624C182.079 113.44 185.297 111.716 188.88 109.402C187.272 108.74 184.36 104.542 184.068 100.462C185.059 101.741 185.111 104.036 186.102 105.314C187.042 106.527 188.921 108.004 189.861 109.218C189.981 109.373 190.085 109.633 189.914 109.73C186.48 111.68 184.255 112.326 182.229 117.623C180.204 122.921 184.316 127.821 184.862 127.677C185.536 127.499 185.297 126.606 184.91 126.027C183.82 124.394 184.857 122.216 185.746 120.464C186.222 120.997 185.079 122.526 185.32 124.115C185.555 125.667 186.76 127.277 186.102 128.048Z" fill="#E7EAEE"/>
<ellipse cx="200.107" cy="110.507" rx="0.853328" ry="0.853335" fill="#FFB61D"/>
<circle cx="197.12" cy="107.093" r="0.853328" fill="#FFB61D"/>
<path d="M69.5084 115.474C70.0018 116.395 69.2262 117.711 68.1818 117.726C67.2872 112.698 66.3227 107.495 63.412 103.298C57.8387 95.2621 46.3539 92.6227 41.5822 84.0866C38.3333 86.399 33.3653 85.8095 30.7477 82.801C29.1198 80.9299 26.2822 80.7003 23.8374 81.1177C21.3927 81.5351 19.0043 82.4579 16.5254 82.3795C15.4498 82.3454 14.2779 82.0562 13.6518 81.1808C13.0258 80.3055 13.3875 78.765 14.4528 78.6125C19.0938 77.9482 23.7349 77.2839 28.3759 76.6195C28.7404 76.5674 29.1272 76.5053 29.4038 76.2624C29.7169 75.9876 29.8152 75.5483 29.8964 75.1397C30.5683 71.7583 31.0524 67.7272 28.5625 65.3428C26.4989 63.3665 23.2419 63.4348 20.4384 63.9861C17.6348 64.5374 14.7455 65.4445 11.9826 64.7165C9.21961 63.9885 6.90901 60.7064 8.39848 58.2681C9.39609 56.635 8.27122 54.457 6.73238 53.3194C5.19355 52.1817 3.27851 51.6213 1.78696 50.4224C0.295418 49.2234 -0.651176 46.9099 0.536873 45.4097C1.05938 44.7498 1.87751 44.4022 2.68017 44.149C5.33665 43.311 8.29876 43.2471 10.8594 44.3435C13.4201 45.4399 15.4996 47.79 15.9163 50.5441C16.2558 52.7879 15.6107 55.3983 17.094 57.1158C19.0333 59.3612 22.6176 58.1018 25.5845 58.0747C28.6189 58.0471 31.6196 59.6559 33.2758 62.1986C34.9321 64.7413 35.1908 68.1362 33.9391 70.9005C37.4637 67.3143 42.211 64.5633 47.2358 64.7506C51.877 64.9235 56.1415 67.5931 59.2456 71.0479C62.3497 74.5026 64.4672 78.7102 66.5436 82.8646C67.3172 84.4124 69.2794 85.2512 70.9328 84.741C72.5861 84.2308 73.7344 82.4321 73.5013 80.7176C74.9422 81.0317 75.0922 82.9795 75.1366 84.4536C75.2299 87.5507 76.3515 90.6083 78.2829 93.0311C78.9291 91.8393 79.4221 90.5644 79.7459 89.2479C81.1558 90.8688 81.6818 93.2147 81.099 95.2823C80.5163 97.3499 78.8426 99.0759 76.7939 99.7219C75.7037 100.066 74.3707 100.231 73.8296 101.238C75.874 104.818 77.6324 108.561 79.0825 112.42C79.8602 114.489 80.4212 117.152 78.7844 118.637C76.892 117.24 75.8167 115.024 74.8126 112.897C73.2465 109.579 71.6803 106.26 70.1141 102.942" fill="white"/>
<path fill-rule="evenodd" clip-rule="evenodd" d="M74.6744 82.2585C74.2632 86.2765 75.7671 90.4486 78.6475 93.2802C79.6745 92.6603 80.3312 91.4709 80.3086 90.2715C81.388 92.0462 80.7832 94.453 79.441 96.0383C78.0989 97.6236 76.1732 98.5742 74.3045 99.4813C73.2338 100.001 72.1222 100.531 70.9326 100.567C69.1176 100.621 67.4915 99.5296 66.0074 98.4833L61.6534 95.4134C63.9029 99.6111 69.0233 102.055 73.7017 101.165C76.9553 105.729 78.9474 111.183 79.4017 116.77L78.5271 115.154C78.5191 115.134 78.5086 115.114 78.4953 115.095L78.5271 115.154C78.6528 115.464 78.1613 115.806 77.8304 115.646C77.4784 115.476 77.3456 115.052 77.2416 114.675C75.9607 110.03 73.6652 105.668 70.5622 101.982L75.2607 111.937C76.2648 114.064 77.3401 116.281 79.2325 117.678C80.8693 116.192 80.3083 113.529 79.5306 111.46C78.0805 107.601 76.3221 103.858 74.2777 100.278C74.7171 99.4605 75.6787 99.1978 76.6085 98.9439C76.8236 98.8851 77.0371 98.8268 77.242 98.7622C79.2907 98.1162 80.9644 96.3902 81.5471 94.3226C82.1299 92.255 81.6038 89.909 80.194 88.2882C79.8702 89.6047 79.3772 90.8795 78.731 92.0714C76.7995 89.6485 75.678 86.591 75.5847 83.4939C75.5403 82.0198 75.3903 80.0719 73.9493 79.7579C74.1825 81.4724 73.0342 83.2711 71.3809 83.7813C69.7275 84.2915 67.7653 83.4526 66.9917 81.9049C64.9153 77.7505 62.7978 73.5429 59.6937 70.0882C56.5896 66.6334 52.3251 63.9638 47.6839 63.7908C42.6591 63.6035 37.9118 66.3546 34.3872 69.9408C35.6389 67.1764 35.3802 63.7816 33.7239 61.2389C32.0676 58.6962 29.067 57.0874 26.0326 57.115C25.2629 57.122 24.4516 57.212 23.6383 57.3022C21.3167 57.5596 18.9783 57.8189 17.5421 56.156C16.5277 54.9816 16.5087 53.3895 16.4895 51.7827C16.4806 51.0398 16.4717 50.2938 16.3644 49.5844C15.9477 46.8302 13.8682 44.4802 11.3075 43.3838C8.74685 42.2874 5.78474 42.3513 3.12826 43.1893C2.3256 43.4425 1.50747 43.7901 0.984961 44.4499C-0.203086 45.9502 0.743507 48.2637 2.23505 49.4626C3.02004 50.0937 3.92234 50.5478 4.82535 51.0023L4.82537 51.0023L4.82538 51.0023C5.63816 51.4114 6.45152 51.8207 7.18047 52.3596C8.7193 53.4973 9.84418 55.6753 8.84657 57.3084C7.3571 59.7467 9.6677 63.0288 12.4306 63.7568C14.7146 64.3586 17.085 63.843 19.4218 63.3348C19.9119 63.2282 20.4005 63.1219 20.8865 63.0263C23.69 62.475 26.947 62.4068 29.0106 64.383C31.5005 66.7675 31.0164 70.7986 30.3445 74.18C30.2633 74.5885 30.165 75.0279 29.8519 75.3027C29.5752 75.5456 29.1885 75.6077 28.824 75.6598L14.9009 77.6528C13.8356 77.8053 13.4739 79.3458 14.0999 80.2211C14.7259 81.0965 15.8979 81.3857 16.9735 81.4197C18.6181 81.4718 20.2229 81.0831 21.8308 80.6937L21.8308 80.6937L21.8309 80.6937L21.8309 80.6937L21.831 80.6937L21.831 80.6937L21.8311 80.6936L21.8312 80.6936C22.6466 80.4961 23.4629 80.2984 24.2855 80.158C26.7302 79.7405 29.5679 79.9702 31.1958 81.8412C33.8134 84.8498 38.7813 85.4393 42.0303 83.1268C44.5412 87.6186 48.9109 90.4776 53.3 93.3493C57.2519 95.9349 61.2195 98.5308 63.8601 102.338C66.7708 106.535 67.7353 111.738 68.6299 116.766C69.6743 116.751 70.4498 115.435 69.9565 114.514L68.9751 115.809C68.6126 107.883 64.5649 100.203 58.2323 95.4239C56.6641 94.2404 54.9444 93.203 53.2284 92.1677L53.2283 92.1677C49.4575 89.893 45.7047 87.629 43.6167 83.8505C43.4287 83.5102 43.2536 83.1498 43.2232 82.7622C43.1846 82.2718 43.3801 81.799 43.5687 81.3427L43.5956 81.2776C44.3483 79.4518 44.874 77.4483 44.5043 75.5083C44.1347 73.5683 42.6742 71.7339 40.721 71.442C44.0271 73.5566 44.7048 78.8048 42.0444 81.6899C39.384 84.5751 34.0983 84.3244 31.7229 81.2003C29.8193 78.6966 26.0127 79.0031 22.9486 79.7132C19.8845 80.4233 16.2763 81.1664 13.9093 79.0951C18.9733 77.7028 24.1842 76.8455 29.4274 76.5421C30.6764 76.4698 31.1664 74.9117 31.3346 73.6719C31.5932 71.7661 31.8518 69.8296 31.5685 67.9273C31.2851 66.025 30.381 64.1273 28.7667 63.0817C26.8283 61.8262 24.3258 62.0208 22.0287 62.2611L15.9243 62.8998C14.609 63.0374 13.2573 63.1724 11.982 62.8221C10.7067 62.4719 9.50682 61.521 9.26231 60.2214C9.10787 59.4005 9.34287 58.5922 9.57979 57.7772C9.75035 57.1906 9.9219 56.6005 9.94988 55.9998C10.0295 54.2895 8.92463 52.7223 7.58207 51.6598C6.7595 51.0088 5.84292 50.4965 4.92548 49.9837L4.92548 49.9837C4.34552 49.6596 3.76522 49.3353 3.20811 48.9756C2.15946 48.2985 1.0835 47.2046 1.37507 45.9909C1.56154 45.2147 2.26392 44.6767 2.97006 44.3044C5.35423 43.0477 8.3343 42.9912 10.7644 44.1567C13.1945 45.3222 15.0159 47.6815 15.5282 50.3275C15.6546 50.9802 15.7121 51.6619 15.7694 52.3423C15.902 53.9161 16.034 55.4825 17.0173 56.665C18.1919 58.0774 20.2219 58.4332 22.0568 58.3458C22.6859 58.3158 23.315 58.2453 23.9435 58.1749L23.9436 58.1749C25.1483 58.04 26.3511 57.9053 27.5488 58.0561C31.5762 58.5634 34.7493 62.7538 34.1456 66.7678C34.1123 66.9898 34.0693 67.2138 34.0262 67.4383C33.8725 68.2391 33.7173 69.0476 33.9908 69.7997C34.3411 70.7628 35.873 71.2756 36.3584 70.3731C38.5332 66.3289 43.5215 64.2914 48.0822 64.8255C52.6429 65.3596 56.7244 68.1058 59.7186 71.5872C62.7129 75.0685 64.7497 79.2579 66.6074 83.4572C67.2617 84.9364 69.2098 85.472 70.7662 85.0319C72.3226 84.5919 73.5576 83.4284 74.6744 82.2585ZM66.5017 89.3068C66.5459 89.3006 66.6485 89.5015 66.8032 89.8043C67.1839 90.5495 67.8801 91.9122 68.798 92.3267C68.7572 92.7128 68.1499 92.5061 67.8974 92.2111C67.1796 91.3724 66.418 90.4076 66.5017 89.3068ZM68.6683 95.9263C69.1421 96.6206 66.3046 96.9662 65.3614 96.3604C65.5275 96.3284 65.7464 96.3455 65.9887 96.3643C66.2762 96.3867 66.5966 96.4116 66.9012 96.3604C67.3472 96.2854 67.7778 96.1485 68.1028 96.0451C68.4181 95.9448 68.6341 95.8761 68.6683 95.9263ZM67.9872 93.3461C66.8577 93.5397 65.4701 92.0354 65.4701 90.6204C65.7956 91.6665 66.9522 92.4964 67.5913 92.955C67.9164 93.1883 68.1076 93.3255 67.9872 93.3461ZM72.0341 99.2626C70.5297 99.2626 69.8478 96.7259 70.5297 96.5629C70.6929 96.4889 70.7006 96.7161 70.7119 97.0516C70.7239 97.4044 70.7398 97.8769 70.9449 98.2449C71.1727 98.6538 71.6552 98.927 71.9368 99.0865C72.1497 99.207 72.2478 99.2626 72.0341 99.2626ZM73.71 95.8084C74.0403 95.9903 74.3417 96.2724 74.4271 96.6397C74.5126 97.0069 74.3073 97.4521 73.9381 97.5287C73.8224 97.3587 73.8851 97.2507 73.9512 97.1367C74.0483 96.9694 74.1528 96.7893 73.71 96.3813C73.5236 96.2096 73.3065 96.1349 73.1543 96.0825C73.0371 96.0421 72.9583 96.015 72.9613 95.967C72.9804 95.6618 73.4422 95.6609 73.71 95.8084ZM70.8942 92.5026C70.8198 92.5544 70.7686 92.59 70.8125 92.6308C70.9485 92.7572 71.1084 92.8177 71.2682 92.7259C71.3901 92.6558 71.4519 92.5138 71.4806 92.3762C71.6412 91.6076 70.8296 90.8139 70.0647 90.9915C70.1326 91.1704 70.2625 91.2276 70.4203 91.2971C70.6023 91.3773 70.8213 91.4738 71.0247 91.7922C71.2988 92.2214 71.0473 92.3962 70.8942 92.5026ZM70.6371 99.7478C69.7512 99.4899 68.8753 97.3979 69.3468 97.2395C69.6409 97.1406 69.6393 97.1565 69.6222 97.322C69.6065 97.4736 69.5779 97.7506 69.7512 98.18C69.9664 98.713 70.2679 99.1457 70.4598 99.4212C70.5914 99.61 70.6715 99.725 70.6371 99.7478ZM273.526 52.253C271.624 52.4865 270.126 54.0203 269.18 55.687C268.723 56.493 268.358 57.3459 267.992 58.1986C267.601 59.1093 267.211 60.0199 266.709 60.8729C264.316 64.9426 259.77 67.1671 255.413 68.985C254.661 69.2985 253.345 69.1511 253.579 68.3715C260.713 67.0179 266.854 61.3699 268.799 54.3743C269.028 53.5502 267.956 52.8546 267.129 53.0726C266.38 53.2697 265.848 53.8939 265.367 54.5132L265.216 54.7082C261.243 59.8764 255.539 64.2458 249.026 64.5279C248.565 64.5478 247.905 64.2666 248.108 63.852C252.932 63.6903 257.479 61.3094 261.061 58.0743C264.643 54.8392 267.375 50.7843 269.93 46.6897C270.325 46.0563 271.274 46.1916 271.981 46.4326C274.149 47.172 276.229 48.1694 278.163 49.3969C279.202 50.0559 278.379 51.8143 277.199 52.1591C276.52 52.3572 275.812 52.3091 275.1 52.2608C274.574 52.2251 274.045 52.1892 273.526 52.253ZM271.674 48.22L271.507 48.1696C270.999 48.0241 270.433 47.9433 270.024 48.2583C269.866 48.3804 269.753 48.5489 269.649 48.7209L268.291 51.01C269.004 51.1749 269.687 51.4668 270.298 51.868C270.798 52.1958 271.486 52.2083 271.998 51.8991C272.509 51.5898 272.818 50.9742 272.759 50.3795C272.737 50.1577 273.101 50.0973 273.253 50.2605C273.366 50.3824 273.4 50.5497 273.434 50.7163L273.434 50.7171L273.434 50.7178C273.446 50.7737 273.457 50.8295 273.471 50.8835C273.528 51.099 273.704 51.331 273.923 51.2867C274.144 51.0762 274.265 50.7644 274.244 50.4596C274.323 50.145 274.814 50.4254 274.89 50.7408C274.966 51.0561 275.108 51.5047 275.422 51.4204C275.882 51.3066 276.027 50.6653 275.802 50.2474C275.578 49.8295 275.127 49.5933 274.696 49.3938C273.715 48.9391 272.705 48.5468 271.674 48.22ZM267.547 51.9415C268.256 52.6547 269.287 53.0342 270.289 52.9505C269.675 52.1771 268.63 51.773 267.655 51.9226L267.547 51.9415ZM216.801 122.982C213.39 123.947 209.537 123.186 206.749 120.997C204.226 122.32 201.617 123.603 198.797 124.017C195.978 124.431 192.874 123.85 190.836 121.858C191.173 122.588 191.516 123.345 191.527 124.149C191.537 124.952 191.122 125.82 190.36 126.078C189.104 126.503 188.007 125.161 187.355 124.006C186.997 124.895 187.366 125.896 187.724 126.869C188.132 127.979 188.528 129.052 187.818 129.884C187.078 130.749 185.675 130.527 184.658 130.017C180.846 128.105 179.055 123.292 179.881 119.108C180.706 114.924 183.715 111.42 187.297 109.106C184.865 107.324 183.086 104.67 182.361 101.742C182.856 102.382 183.224 103.124 183.591 103.867C183.959 104.61 184.326 105.352 184.822 105.992C185.292 106.598 185.89 107.101 186.488 107.605C187.086 108.108 187.684 108.611 188.154 109.218C188.274 109.373 188.378 109.633 188.207 109.73C184.773 111.68 181.836 114.789 180.861 118.616C179.886 122.443 181.242 126.962 184.606 129.032C185.199 129.397 185.905 129.69 186.578 129.513C187.251 129.335 187.756 128.49 187.37 127.911C186.279 126.277 186.146 124.051 187.035 122.3L189.854 125.46C190.502 125.293 190.662 124.422 190.49 123.775C190.435 123.57 190.36 123.368 190.285 123.166L190.285 123.166L190.285 123.166L190.285 123.166L190.285 123.166L190.285 123.166C190.124 122.731 189.964 122.298 190.007 121.843C190.07 121.177 190.939 120.581 191.399 121.067C193.231 123.01 196.176 123.561 198.812 123.133C201.448 122.706 203.863 121.44 206.225 120.193L209.012 118.722C208.811 119.525 208.159 120.2 207.363 120.43C210.053 122.362 213.651 122.97 216.827 122.027C217.374 121.865 217.935 121.64 218.29 121.193C218.645 120.746 218.702 120.019 218.274 119.643C218.221 119.597 218.163 119.556 218.105 119.516C217.99 119.437 217.876 119.358 217.81 119.238C217.711 119.056 217.865 118.751 218.054 118.834C219.127 118.759 219.789 120.201 219.352 121.184C218.915 122.166 217.836 122.69 216.801 122.982ZM197.759 108.717C197.146 108.52 196.458 108.943 196.192 109.529C195.926 110.115 196.001 110.803 196.203 111.415C196.267 110.725 196.354 110.205 196.615 109.752C196.728 109.556 197.076 109.372 197.383 109.21C197.778 109 198.104 108.828 197.759 108.717ZM197.239 106.984C198.133 106.762 199.143 107.106 199.715 107.828C200.286 108.55 200.39 109.612 199.968 110.431C199.867 110.309 199.843 110.087 199.813 109.809C199.724 108.987 199.582 107.674 197.239 106.984ZM196.464 113.334C196.181 113.687 197.166 114.62 198.707 113.977C198.992 113.857 198.759 113.844 198.392 113.822C198.057 113.803 197.611 113.776 197.345 113.658C197.12 113.557 197.004 113.396 196.918 113.276C196.79 113.097 196.725 113.008 196.464 113.334ZM199.586 114.515C200.573 114.023 199.953 115.465 197.888 115.288C197.702 115.273 197.458 115.201 197.46 115.013C197.461 114.947 197.636 114.932 197.907 114.908C198.329 114.871 198.985 114.814 199.586 114.515ZM193.494 111.778C193.865 112.14 194.406 112.15 194.767 112.08C194.987 112.038 195.095 111.841 194.893 111.778C194.846 111.763 194.768 111.75 194.674 111.736C194.46 111.702 194.163 111.655 193.965 111.535C193.837 111.458 193.764 111.195 193.702 110.97C193.638 110.738 193.584 110.546 193.494 110.636C193.315 110.814 193.122 111.415 193.494 111.778ZM193.823 113.005C194.003 113.279 193.318 113.185 193.171 113.005C193.024 112.826 192.879 112.15 193.125 112.15C193.197 112.15 193.221 112.257 193.251 112.384L193.251 112.384C193.278 112.502 193.309 112.637 193.385 112.724C193.533 112.891 193.632 112.916 193.705 112.935C193.754 112.947 193.791 112.956 193.823 113.005ZM224.637 111.646C225.006 112.384 224.36 113.211 223.737 113.752C221.204 115.951 218.177 117.578 214.945 118.476C218.428 118.5 221.895 117.01 224.275 114.466C225.382 113.282 226.09 111.06 224.661 110.295C226.356 109.733 228.363 108.56 228.104 106.793C228.012 106.162 227.626 105.618 227.252 105.102L227.029 104.797C224.715 101.635 221.886 98.2913 218.006 98.0554C220.239 96.8029 222.899 98.5819 224.867 100.219L225.444 100.697C228.05 102.84 230.777 104.878 233.868 106.218C237.188 107.656 241.005 108.231 244.449 107.121L254.087 104.015C255.947 103.4 258.137 102.244 257.969 100.311C257.876 99.2469 256.904 98.3317 255.836 98.302C254.768 98.2723 253.747 99.1322 253.595 100.19L253.386 98.5457C252.869 98.1038 252.045 98.4824 251.629 99.0205C251.472 99.2239 251.341 99.4487 251.21 99.6728L251.21 99.6729L251.21 99.6732C250.995 100.042 250.781 100.409 250.454 100.676C249.316 101.607 247.805 100.842 246.447 100.038L245.601 99.5325C243.189 98.1154 240.33 97.8983 237.508 97.6839L237.507 97.6839L237.507 97.6839L237.507 97.6839L237.507 97.6838L237.507 97.6838L237.507 97.6838C236.897 97.6375 236.29 97.5914 235.689 97.5333C231.754 97.1531 227.875 96.1945 224.216 94.6977C227.571 97.4495 231.956 97.9114 236.379 98.3773C238.607 98.6121 240.846 98.8479 242.967 99.3783C244.65 99.799 246.51 100.657 246.923 102.341C247.522 104.787 244.616 106.682 242.108 106.911C238.006 107.285 234.009 105.541 230.527 103.314L230.134 103.06C228.874 102.233 227.653 101.343 226.432 100.454L226.432 100.453L226.432 100.453L226.432 100.453L226.431 100.453L226.431 100.453L226.431 100.453C224.191 98.8204 221.952 97.1892 219.479 95.9494C222.034 96.078 223.899 94.2286 225.804 92.3395C226.832 91.3206 227.871 90.2901 229.037 89.5521C232.462 87.3833 236.835 87.8773 240.865 88.5738L241.499 88.6851C240.551 84.0935 238.235 79.7932 234.924 76.4742L240.614 87.6611C234.623 85.6652 227.438 88.1594 223.972 93.4382C226.647 84.4108 233.011 76.5363 241.276 72.0264C243.939 73.0227 246.188 74.8005 248.434 76.5752L248.435 76.5757L248.435 76.5757C249.159 77.1486 249.884 77.721 250.622 78.2668C253.645 80.5036 257.322 82.3991 261.024 81.7333C263.686 81.2546 265.926 79.5234 267.915 77.6721L268.236 77.371C270.605 75.1247 272.807 72.7025 274.818 70.1308C277.019 67.3167 279.724 63.9755 283.272 64.3949C283.898 64.469 284.507 64.6644 285.114 64.8591C285.953 65.1282 286.787 65.396 287.657 65.34C289.157 65.2435 290.535 63.2303 289.358 62.2961L283.317 57.5007C282.726 57.0321 282.045 56.5363 281.297 56.6333C280.766 56.7023 280.324 57.0607 279.914 57.4048L278.557 58.5441C275.394 61.2081 272.269 63.9278 269.525 67.017C269.35 67.2135 269.175 67.4127 268.998 67.6132L268.992 67.6209L268.988 67.6249C266.763 70.1528 264.349 72.8962 261.045 73.0939C257.821 73.2868 255.111 70.9594 252.635 68.8324L252.63 68.8277L252.494 68.7116L252.264 68.5137L251.802 68.1226C249.177 65.919 246.369 63.9321 243.417 62.189C240.808 60.6483 237.915 59.2605 234.893 59.4709C231.356 59.717 228.374 62.0816 225.819 64.5662L225.432 64.9454C224.179 66.1768 222.68 67.5073 220.957 67.2443L220.819 67.226C219.083 67.0282 217.455 68.1057 216.146 69.3118L215.941 69.5031C212.52 72.7678 209.999 76.9677 208.728 81.5229C201.263 79.524 193.078 80.3484 186.162 83.7956C184.419 84.6642 182.72 85.7233 181.507 87.2464C179.774 89.4211 179.266 92.1788 178.754 94.9611L178.754 94.9612C178.38 96.9911 178.004 99.034 177.148 100.873C176.895 101.417 176.598 101.948 176.301 102.479L176.301 102.479L176.301 102.479L176.301 102.479L176.301 102.479L176.301 102.479L176.301 102.48C175.605 103.724 174.911 104.965 174.784 106.366C174.601 108.365 176.468 110.685 178.319 109.909C180.173 109.616 181.154 107.002 179.95 105.562C180.701 106.1 181.747 106.192 182.579 105.795L180.645 102.223C183.908 100.485 186.805 98.0618 189.09 95.1559C190.025 93.9676 191.763 93.6675 193.23 94.0322C194.488 94.3449 195.597 95.0546 196.659 95.8091L197.187 96.1884C196.572 96.6359 196.926 97.8256 197.686 97.8634C197.196 95.867 199.192 93.7702 201.239 93.9646C203.285 94.159 204.835 96.3356 204.567 98.3739C203.487 101.051 200.813 102.579 198.169 104.09C195.3 105.729 192.465 107.348 191.738 110.395C191.005 113.465 193.372 116.903 196.501 117.313C199.63 117.724 202.804 115.013 202.888 111.858C202.888 111.858 203.351 111.906 203.514 111.415C203.773 110.641 204.017 109.784 204.26 108.934L204.26 108.934C204.716 107.337 205.163 105.767 205.681 104.829C207.132 102.2 209.832 100.117 212.834 100.045C213.788 100.022 214.735 99.8803 215.682 99.739C216.891 99.5585 218.098 99.3783 219.315 99.4454C221.484 99.5649 223.862 100.835 224.175 102.985C221.769 102.518 219.259 102.597 216.888 103.214L225.284 104.212C227.127 104.432 227.472 107.286 226.158 108.598C224.919 109.835 223.032 110.038 221.265 110.117L220.945 110.13C221.254 110.76 222.022 110.825 222.79 110.89C223.557 110.955 224.324 111.02 224.637 111.646ZM269.298 74.9579C266.695 77.8477 263.652 80.9536 259.765 81.0986C256.367 81.2254 253.394 79.0351 250.644 77.0093L250.441 76.8598L249.785 76.38C246.713 74.1516 243.531 72.0745 240.255 70.1589C237.718 68.6754 234.8 67.2424 231.954 67.9782L236.459 69.3959C235.699 69.8032 235.429 70.9118 235.915 71.6234C236.019 70.5581 237.252 69.8806 238.309 70.0472C239.367 70.2137 240.227 70.9901 240.882 71.8368C235.203 74.0143 230.372 78.3253 227.564 83.7201C227.041 84.7235 226.587 85.7614 226.133 86.7988L226.133 86.7992C225.517 88.2051 224.902 89.6103 224.119 90.9279C222.757 93.2179 220.741 95.3012 218.147 95.9079C217.783 95.9929 217.411 96.0487 217.039 96.1044C216.293 96.216 215.55 96.3273 214.886 96.6728C214.812 96.7117 214.735 96.7529 214.656 96.7951C213.877 97.211 212.916 97.7237 212.436 97.0475C211.65 95.9397 210.396 95.1754 209.052 94.9838C211.275 87.5127 216.996 81.1638 224.196 78.177C224.604 78.008 224.448 77.3982 224.225 77.0173L220.95 71.4134C220.648 70.8958 221.002 70.1919 221.535 69.9173C222.068 69.6427 222.703 69.6839 223.298 69.758C227.086 70.2298 230.733 71.7842 233.697 74.1902C234.171 74.575 234.948 74.953 235.295 74.4503C231.914 71.0402 227.077 69.4592 222.318 68.822C226.432 68.4199 230.686 69.7156 233.878 72.3426L234.034 72.4698C234.796 73.0889 235.719 73.7469 236.599 73.3673C233.034 69.9482 228.16 67.9302 223.221 67.8293C224.237 67.0736 225.186 66.2337 226.135 65.3938L226.135 65.3934L226.136 65.3933C227.1 64.5398 228.064 63.6864 229.098 62.9214C231.151 61.4034 233.605 60.2182 236.154 60.3671C238.004 60.4752 239.739 61.2737 241.377 62.1429C244.837 63.9803 248.096 66.1983 251.074 68.7438C251.279 68.9189 251.485 69.0964 251.693 69.2752L251.706 69.2871L251.711 69.291C254.542 71.7306 257.631 74.3922 261.29 74.0484C263.521 73.8387 265.498 72.4908 267.068 70.8919C267.937 70.0073 268.712 69.0385 269.487 68.0695C270.113 67.2869 270.738 66.5042 271.414 65.7654C272.389 64.6999 273.518 63.6979 274.903 63.2911C276.289 62.8843 277.978 63.2211 278.801 64.4077L269.298 74.9579ZM179.625 94.7501C180.127 92.004 180.623 89.2887 182.479 87.2896C183.388 86.3106 184.55 85.6056 185.734 84.9865C191.789 81.8195 198.85 80.6139 205.613 81.5927C207.268 81.8322 209.319 82.7607 209.292 84.332L209.281 84.4405C209.275 84.5004 209.27 84.5604 209.264 84.6203C209.281 84.5219 209.29 84.4258 209.292 84.332C209.966 77.762 213.793 71.5809 219.384 68.061C219.88 71.5184 221.394 74.8234 223.69 77.456C217.606 80.0184 212.555 84.945 209.842 90.9626L209.799 91.0577C209.028 92.7447 207.806 94.8161 206.021 94.396L206.905 88.9364C206.986 88.4358 207.061 87.8936 206.823 87.4455C206.558 86.9452 205.992 86.7146 205.439 86.5481L205.245 86.4917C202.047 85.5862 198.458 84.7167 195.537 86.3034C193.991 87.1429 192.882 88.5498 191.844 89.9941L191.074 91.0761C189.246 93.6287 187.199 96.0246 184.964 98.229C184.063 99.1169 183.09 99.9992 181.884 100.381C180.679 100.764 179.181 100.506 178.465 99.4636C179.036 97.9736 179.331 96.3568 179.625 94.7504V94.7503L179.625 94.7502L179.625 94.7501ZM199.339 116.024C197.44 116.729 195.895 116.382 194.412 115.518C193.778 115.149 193.18 114.673 192.823 114.032C192.287 113.07 192.368 111.877 192.677 110.82C193.139 109.24 194.084 107.806 195.353 106.758C196.23 106.033 197.241 105.501 198.251 104.97C198.599 104.786 198.948 104.603 199.291 104.412C202.641 102.543 205.531 99.8557 207.638 96.6501C208.059 96.0102 208.945 95.8028 209.687 95.9918C210.429 96.1807 211.048 96.6889 211.583 97.2367C211.966 97.6287 212.25 98.4082 211.739 98.606C208.162 99.9908 205.281 103.064 204.13 106.723L204.106 106.801C204.083 106.876 204.06 106.95 204.038 107.025C203.863 107.604 203.686 108.189 203.311 108.658C202.87 109.208 201.985 111.144 202.436 112.063C202.436 112.063 201.239 115.32 199.339 116.024ZM204.302 87.0386C204.882 87.1685 205.513 87.3553 205.831 87.8571C206.091 88.2678 206.075 88.79 206.034 89.2745C205.872 91.1913 205.469 93.0876 204.837 94.9043C204.73 95.2115 204.401 95.5808 204.16 95.3619C203.888 93.9866 202.631 92.8683 201.233 92.7574C199.836 92.6464 198.418 93.5523 197.932 94.8674C197.836 95.1269 197.499 95.2235 197.232 95.1519C197.031 95.0981 196.86 94.9769 196.696 94.846L196.534 94.7141C194.869 93.3615 192.615 92.761 190.498 93.1056C191.626 91.2073 193.057 89.4893 194.72 88.0368C195.401 87.4423 196.139 86.8817 196.999 86.603C197.808 86.3407 198.677 86.3432 199.526 86.3864C201.133 86.4681 202.732 86.6865 204.302 87.0386ZM280.226 62.8792C279.417 62.0164 278.308 61.4391 277.136 61.275L278.465 59.5861C278.887 59.0567 279.38 58.5135 280.045 58.4299C280.525 58.3697 280.996 58.5665 281.433 58.7745C282.893 59.4704 284.27 60.3422 285.524 61.3649C285.942 61.7062 286.363 62.0871 286.545 62.5955C286.727 63.1039 286.58 63.7694 286.093 64.0019C285.605 64.2344 284.904 63.7251 285.103 63.2235L285.123 63.1673C285.205 62.8821 285.075 62.5452 284.817 62.3951L284.347 63.2977C284.304 63.3766 284.253 63.4529 284.175 63.4958C283.861 63.6695 283.606 63.1811 283.586 62.8227L283.582 62.773C283.548 62.4201 283.363 61.9699 283.038 62.0798C282.995 62.6844 282.562 63.2429 281.988 63.4367C281.414 63.6304 280.731 63.4479 280.33 62.9934L280.226 62.8792ZM178.841 107.433L178.273 105.277C178.003 105.201 177.739 105.472 177.701 105.75C177.675 105.935 177.717 106.118 177.772 106.299L177.86 106.568C178.152 107.483 178.144 108.491 177.839 109.402C177.276 108.249 176.982 106.965 176.987 105.682C176.62 105.48 176.37 106.095 176.396 106.513L176.555 109.009C175.785 108.315 175.513 107.189 175.645 106.16C175.776 105.132 176.259 104.182 176.802 103.299C177.086 102.838 177.4 102.376 177.85 102.076C178.301 101.777 178.922 101.674 179.383 101.958C179.765 102.195 179.943 102.614 180.123 103.04C180.259 103.362 180.396 103.687 180.625 103.938C180.706 104.027 180.8 104.118 180.896 104.211L180.897 104.212C181.269 104.57 181.666 104.954 181.406 105.34C180.605 104.849 179.872 104.245 179.235 103.553C179.004 104.982 179.216 106.479 179.832 107.788C179.958 108.056 179.542 108.312 179.279 108.174C179.017 108.037 178.917 107.719 178.841 107.433ZM255.805 100.379C256.216 100.016 256.591 99.684 256.773 99.7745C257.302 100.038 255.865 101.198 255.104 101.525C255.159 101.893 255.692 101.728 256.003 101.525C256.315 101.322 257.186 101.104 257.016 101.325C255.953 102.7 253.899 103.794 252.001 104.007C251.232 104.094 250.281 103.889 250.035 103.154C249.812 102.484 250.31 101.823 250.836 101.325L250.963 101.209C251.184 101.011 251.539 100.817 251.743 101.033C252.286 101.607 253.234 101.138 253.859 100.655C253.859 100.655 255.482 99.0884 255.755 99.1887C256.025 99.2883 254.944 101.055 254.944 101.055C255.212 100.904 255.517 100.634 255.805 100.379L255.805 100.379ZM248.033 101.833C248.228 101.789 248.43 101.867 248.598 101.975C249.208 102.367 249.499 103.193 249.27 103.88C249.041 104.568 248.312 105.054 247.589 105.002C247.486 104.994 247.379 104.975 247.299 104.911C247.13 104.775 247.152 104.517 247.189 104.304L247.461 102.746C247.527 102.37 247.661 101.918 248.033 101.833ZM213.641 98.2955C214.687 98.1187 215.77 98.1619 216.799 98.4214C216.739 98.8457 216.244 99.0385 215.824 99.1252C214.529 99.3927 213.192 99.4504 211.879 99.2954C212.208 98.6773 212.951 98.4121 213.641 98.2955ZM279.22 63.7462L276.475 62.125C277.827 61.9228 279.27 62.6333 279.934 63.8287C279.744 64.0024 279.442 63.8772 279.22 63.7462ZM219.064 96.2599C217.9 96.5681 216.75 96.9263 215.617 97.3333C216.793 97.984 218.464 97.4637 219.064 96.2599ZM207.688 94.7882C208.008 94.8543 207.863 95.3584 207.607 95.5625C206.83 96.1838 205.648 96.2374 204.817 95.6891L207.688 94.7882ZM280.742 57.1833C280.931 57.1387 281.125 57.2149 281.301 57.2946C282.448 57.8123 283.498 58.5425 284.383 59.4371L280.437 57.4228C280.498 57.304 280.613 57.2141 280.742 57.1833ZM220.639 68.0659L220.678 68.0932C221.034 68.042 221.401 68.0721 221.744 68.1806C221.445 68.7462 221.028 69.2495 220.529 69.6493C220.279 69.1535 220.322 68.5224 220.639 68.0659ZM288.146 62.5308L288.155 62.5557C288.591 62.7328 288.887 63.2057 288.857 63.6752C287.959 63.2095 287.232 62.4218 286.841 61.4893C287.377 61.6751 287.846 62.0492 288.146 62.5308ZM206.464 96.9639L206.399 97.0529C206.171 97.3621 205.9 97.6976 205.519 97.7419C205.138 97.7862 204.747 97.2932 205.016 97.0194C205.468 96.8169 205.998 96.7966 206.464 96.9639ZM179.464 100.792C179.804 100.871 180.189 101.119 180.135 101.464C179.356 101.363 178.587 101.183 177.844 100.928C178.352 100.715 178.928 100.667 179.464 100.792ZM251.818 100.726C251.641 100.802 251.481 100.479 251.649 100.385C251.649 100.385 252.811 98.3478 252.861 99.7745C252.886 100.129 252.135 100.564 251.818 100.726ZM202.731 111.186C202.818 110.568 202.98 109.402 203.31 109.402C203.778 109.352 203.598 110.15 203.472 110.711C203.437 110.866 203.406 111.003 203.393 111.1C203.351 111.437 203.036 111.702 202.675 111.54C202.689 111.49 202.707 111.36 202.731 111.187L202.731 111.186ZM93.8424 132.565C96.2255 132.771 98.6178 132.869 101.01 132.86C100.84 135.109 102.669 137.324 104.909 137.582C107.15 137.84 109.435 136.1 109.781 133.871C109.921 132.976 111.132 132.821 112.035 132.891L117.783 133.338C118.769 133.415 120.163 133.105 120.057 132.122L119.406 126.102C119.347 125.559 119.536 124.768 120.072 124.875C122.353 125.333 124.846 123.584 125.159 121.278C125.471 118.972 123.5 116.609 121.174 116.536C120.056 116.501 119.524 115.039 119.814 113.959C119.97 113.378 120.267 112.853 120.563 112.326L120.563 112.326C120.818 111.874 121.074 111.42 121.241 110.931C121.602 109.873 121.299 108.398 120.21 108.143C111.942 106.204 103.263 106.04 94.9276 107.663L94.775 107.694C94.3166 107.786 93.8568 107.9 93.4608 108.145C92.1588 108.951 92.0587 110.728 92.1222 112.295L92.1647 113.167C92.3932 118.222 91.9954 123.305 90.9825 128.263L90.9598 128.375C90.7331 129.505 90.5489 130.796 91.3035 131.653C91.8627 132.288 92.7576 132.458 93.611 132.544L93.8424 132.565ZM108.507 133.777C108.573 134.103 108.49 134.442 108.359 134.747L108.317 134.84C107.548 136.464 105.258 137.161 103.723 136.211C102.16 135.243 101.777 132.811 102.967 131.409C99.9429 131.771 96.879 131.795 93.8501 131.48C92.9127 131.382 91.6873 130.876 91.879 129.954C93.1972 123.608 93.609 117.075 93.098 110.614C93.0053 109.443 94.4466 108.836 95.6018 108.624C103.055 107.255 110.768 107.312 118.201 108.79C119.152 108.979 120.375 109.701 119.954 110.574C118.962 112.63 118.565 114.969 118.825 117.236C118.891 117.815 119.344 118.572 119.848 118.282C121.208 117.501 123.175 118.127 123.834 119.55C124.492 120.973 123.695 122.877 122.22 123.408C120.745 123.939 118.917 122.978 118.518 121.462C118.162 124.584 118.289 127.762 118.894 130.846C119.103 131.915 117.547 132.318 116.46 132.237L107.788 131.591C107.523 132.01 107.795 132.443 108.081 132.898C108.26 133.182 108.444 133.474 108.507 133.777ZM153.38 114.179L170.366 114.521L170.644 114.527C171.154 114.543 171.668 114.588 172.127 114.803C173.165 115.287 173.641 116.482 173.957 117.583C175.643 123.463 175.435 129.87 173.371 135.627L173.284 135.863C173.016 136.572 172.665 137.278 172.031 137.676C171.509 138.005 170.872 138.073 170.253 138.106L170.121 138.113C167.595 138.233 165.061 138.168 162.544 137.92C163.855 137.113 164.186 135.149 163.354 133.854C162.521 132.56 160.763 132.019 159.283 132.44C158.38 132.696 157.54 133.313 157.213 134.192C156.887 135.071 157.202 136.201 158.037 136.63C158.613 136.927 158.514 137.862 158.009 138.27C157.504 138.677 156.802 138.706 156.153 138.716L147.631 138.855C146.99 138.865 146.317 138.868 145.755 138.561C144.957 138.126 144.59 137.188 144.366 136.308C143.824 134.184 143.75 131.942 144.153 129.787C144.637 131.489 146.734 132.522 148.379 131.87C150.023 131.217 150.842 129.027 150.028 127.456C149.214 125.885 146.952 125.29 145.471 126.258L145.409 125.709C145.197 123.784 145.032 121.834 145.401 119.939C145.806 117.863 146.961 115.824 148.854 114.88C150.234 114.192 151.829 114.154 153.38 114.179ZM171.922 115.956C171.497 115.7 170.984 115.656 170.485 115.635L170.361 115.63C165.077 115.433 159.79 115.333 154.502 115.331L152.74 115.333C151.625 115.337 150.474 115.353 149.453 115.803C147.93 116.473 146.944 118.028 146.541 119.643C146.139 121.257 146.235 122.949 146.334 124.609C149.012 123.872 151.892 126.593 151.574 129.351C151.256 132.11 148.198 134.103 145.472 133.571C145.348 134.442 145.227 135.347 145.483 136.19C145.739 137.032 146.486 137.794 147.366 137.765L155.267 137.511C155.757 137.495 156.433 137.242 156.291 136.774C155.483 134.115 157.813 131.01 160.592 131.041C163.371 131.073 165.63 134.229 164.763 136.87C166.499 137.261 168.305 137.343 170.07 137.111C170.643 137.036 171.241 136.915 171.68 136.539C172.112 136.169 172.324 135.61 172.504 135.071C174.338 129.576 174.538 123.548 173.075 117.944C172.885 117.219 172.623 116.439 172.016 116.017L171.922 115.956ZM96.9543 168.28C96.1132 162.806 96.1143 157.203 96.9577 151.73L97.0003 151.465C97.2096 150.223 97.5771 148.912 98.6151 148.227C99.3921 147.715 100.374 147.677 101.309 147.676L108.475 147.696C108.802 147.697 109.159 147.709 109.404 147.924C109.649 148.139 109.643 148.633 109.328 148.72C108.578 148.928 108.146 149.793 108.237 150.567C108.329 151.341 108.832 152.01 109.422 152.518C110.831 153.729 113.02 154.159 114.579 153.149C116.138 152.14 116.505 149.539 115.028 148.413C118.375 148.345 121.724 148.356 125.071 148.445L126.325 148.482C126.731 148.495 127.18 148.527 127.463 148.818C127.676 149.036 127.746 149.353 127.794 149.654C128.164 151.971 127.759 154.405 126.658 156.477C126.482 156.807 126.076 157.17 125.799 156.919C124.624 155.852 122.646 155.997 121.443 157.034C120.239 158.07 119.774 159.792 119.987 161.366C120.191 162.881 121.296 164.499 122.822 164.422C123.253 164.401 123.7 164.252 124.139 164.107C124.927 163.846 125.687 163.593 126.271 164.101L124.74 170.94C124.468 172.155 123.98 173.597 122.762 173.857C115.733 175.361 108.363 175.247 101.384 173.528L101.045 173.442C100.198 173.22 99.3544 172.933 98.6936 172.368C97.5433 171.383 97.1842 169.776 96.9543 168.28ZM124.914 165.324C122.925 166.259 120.335 165.456 119.09 163.645C117.846 161.834 117.968 159.246 119.245 157.458C120.522 155.669 122.817 154.719 125.006 154.906L125.189 154.922C125.496 154.948 125.81 154.959 126.071 154.806C126.401 154.611 126.541 154.213 126.633 153.841C126.999 152.36 126.978 150.785 126.575 149.313L117.311 149.381C117.48 151.952 115.363 154.462 112.8 154.729C110.236 154.996 107.648 152.977 107.283 150.426L107.232 150.046C107.177 149.664 107.091 149.285 106.805 149.043C106.605 148.872 106.341 148.805 106.08 148.753L105.983 148.734C103.288 148.225 99.8706 148.013 98.456 150.364C97.9744 151.164 97.845 152.121 97.7469 153.05C97.184 158.383 97.3179 163.789 98.144 169.088L98.1843 169.336C98.3187 170.124 98.529 170.934 99.1158 171.463C99.5193 171.827 100.049 172.007 100.574 172.155L100.706 172.192C107.427 174.04 114.583 174.287 121.416 172.91L121.796 172.832C122.132 172.761 122.481 172.679 122.745 172.46C123.089 172.174 123.221 171.713 123.336 171.28L124.914 165.324ZM174.907 178.876C174.907 178.876 174.945 177.81 175.079 177.46C175.322 176.827 176.039 175.928 176.039 175.928C175.989 176.171 175.919 176.432 175.848 176.701C175.601 177.622 175.329 178.639 175.743 179.392C176.061 179.973 180.729 183.031 182.333 183.748C189.192 186.814 196.086 189.588 203.012 192.375L203.012 192.375L203.013 192.375L203.013 192.375L203.013 192.375L203.014 192.375L203.015 192.376L203.017 192.377L203.018 192.377L203.02 192.378L203.022 192.378C205.852 193.517 208.687 194.658 211.528 195.822C206.645 195.227 202.149 192.954 197.768 190.716C196.823 195.962 199.746 201.251 203.69 204.837C206.561 207.448 209.941 209.383 213.321 211.319L213.321 211.319L213.321 211.319L213.321 211.319L213.322 211.319L213.322 211.319L213.322 211.319L213.322 211.32L213.322 211.32L213.322 211.32L213.322 211.32L213.323 211.32L213.323 211.32L213.323 211.32L213.323 211.32L213.323 211.32C214.584 212.042 215.845 212.765 217.08 213.522L217.534 213.803C221.916 216.546 226.107 220.009 228.041 224.785C228.396 225.661 229.485 226.159 230.381 225.855C231.276 225.552 231.836 224.493 231.584 223.582C232.521 224.35 231.981 226.069 230.846 226.493C229.711 226.918 228.41 226.342 227.572 225.466C226.941 224.806 226.5 224 226.06 223.195L226.06 223.195L226.06 223.195C225.916 222.931 225.772 222.668 225.622 222.41C222.917 217.773 218.139 214.893 213.399 212.257L211.173 211.025C206.029 208.153 200.759 204.702 198.555 199.265C190.557 200.534 182.23 199.673 174.66 196.794C173.041 196.179 171.456 195.473 169.871 194.767C167.346 193.643 164.824 192.52 162.17 191.763C160.692 191.342 158.654 191.297 158.1 192.731C158.1 192.731 158.1 192.731 158.099 192.732L158.098 192.735C158.082 192.763 157.976 192.947 157.505 192.988C157.283 193.007 157.08 192.619 157.017 192.362C156.963 192.29 156.945 192.086 156.945 191.67C156.945 191.445 157.403 190.462 158.265 189.855C158.864 189.432 159.539 189.279 159.892 189.199C160.052 189.162 160.146 189.141 160.138 189.116C160.12 189.06 159.507 188.901 158.95 189.171C158.52 189.38 158.113 189.655 157.739 189.908C157.16 190.3 156.66 190.638 156.275 190.594C155.754 190.533 155.385 190.29 155.379 189.766C155.373 189.242 155.512 188.604 155.917 188.275C156.781 187.571 157.897 187.183 159.012 187.199C159.252 187.203 159.519 187.237 159.676 187.419C159.833 187.602 159.756 187.966 159.515 187.977C158.071 188.042 156.4 188.284 155.838 189.766C155.674 190.197 156.708 190.267 157.108 190.037C157.34 189.903 157.539 189.724 157.739 189.544C157.883 189.414 158.027 189.284 158.184 189.171C158.654 188.833 159.238 188.656 159.816 188.677C160.049 188.685 160.306 188.739 160.443 188.927C160.581 189.116 160.484 189.458 160.251 189.462C158.753 189.486 157.386 190.785 157.283 192.279C157.289 192.334 157.331 192.58 157.505 192.638C157.708 192.707 157.934 192.541 157.943 192.524C158.723 191.132 160.146 190.201 161.677 190.667C162.255 190.843 162.812 191.112 163.367 191.379C164.336 191.846 165.298 192.309 166.356 192.27L165.721 188.905C163.149 186.547 159.272 185.716 155.958 186.812C155.604 186.929 155.221 187.099 155.076 187.443C154.932 187.788 155.249 188.288 155.598 188.155C155.049 188.662 154.122 187.801 154.331 187.083C154.54 186.366 155.326 185.997 156.05 185.809C160.108 184.754 164.152 186.593 168.061 188.369C168.786 188.699 169.507 189.027 170.222 189.333C178.181 192.744 187.173 193.699 195.67 192.034C195.302 193.042 194.045 193.347 192.978 193.467C185.409 194.318 177.635 193.277 170.557 190.464C169.693 191.562 170.105 193.268 171.089 194.261C172.073 195.253 173.464 195.705 174.803 196.105C182.307 198.348 190.264 200.063 197.932 198.468L196.689 191.197L196.664 191.064C196.602 190.774 196.489 190.474 196.218 190.382L196.15 190.359C186.321 187.021 178.83 184.477 169.104 175.206C169.085 175.187 169.066 175.168 169.047 175.149C168.976 177.935 168.092 178.548 164.407 177.789C156.367 176.131 148.135 175.264 140.02 176.404C140.634 173.371 141.402 170.37 142.322 167.415C139.681 168.267 136.564 165.847 136.735 163.078C136.905 160.309 140.296 158.29 142.812 159.46C143.676 157.466 143.731 155.135 142.962 153.102C142.592 152.127 144.064 151.564 145.107 151.564L150.868 151.563C151.673 151.563 152.796 151.189 152.596 150.409C152.121 148.559 153.393 146.445 155.25 145.999C157.072 145.56 159.125 146.808 159.595 148.617L159.62 148.718C160.057 150.66 162.518 151.277 164.509 151.239L165.5 151.215C167.222 151.179 169.016 151.235 170.169 152.439C171.547 153.88 171.239 156.174 170.785 158.13L170.755 158.26C170.533 159.194 170.21 159.953 169.885 160.717C169.266 162.172 168.64 163.643 168.696 166.372C168.718 167.484 168.759 168.505 168.804 169.439C168.964 168.783 169.104 168.35 169.104 168.35C169.104 168.35 187.882 182.33 199.478 184.228C200.868 183.001 200.066 180.608 198.666 179.392C198.076 178.88 197.405 178.465 196.735 178.052C195.815 177.485 194.899 176.92 194.201 176.105C192.815 174.487 192.567 172.257 192.322 170.046C192.055 167.642 191.79 165.26 190.067 163.711C189.913 163.572 189.75 163.443 189.586 163.314C189.217 163.023 188.848 162.732 188.597 162.34C187.976 161.368 188.281 160.016 189.034 159.142C189.786 158.269 190.886 157.781 191.975 157.401C194.235 156.611 196.713 156.171 199.021 156.807C201.329 157.442 203.396 159.364 203.623 161.747C204.061 160.799 205.022 160.114 206.061 160.01L204.553 161.613L206.462 161.651L203.835 163.118C205.463 166.129 205.2 169.842 204.156 173.102C204.028 173.502 203.889 173.901 203.75 174.301L203.75 174.301C203.192 175.901 202.63 177.514 202.774 179.184C202.951 181.237 204.774 183.334 206.767 182.914L206.867 182.891C209.262 182.286 211.885 182.636 214.037 183.849C216.548 185.263 218.256 187.661 219.947 190.034C220.34 190.585 220.731 191.134 221.132 191.67C223.008 194.179 225.229 196.513 228.005 197.967C230.781 199.421 234.184 199.901 237.076 198.694C237.608 198.472 238.119 198.196 238.629 197.92C239.496 197.453 240.36 196.986 241.318 196.788C242.841 196.472 244.779 197.217 244.96 198.761C244.172 197.445 242.306 197.212 240.838 197.656C240.01 197.906 239.246 198.316 238.481 198.725L238.48 198.725C237.89 199.042 237.299 199.358 236.677 199.603C233.563 200.825 229.936 200.084 227.069 198.36C224.292 196.689 222.116 194.195 220.154 191.611L219.964 191.361C219.765 191.096 219.567 190.83 219.369 190.564L219.366 190.56L219.366 190.56L219.366 190.56L219.366 190.56L219.366 190.559L219.365 190.559C217.985 188.705 216.595 186.836 214.774 185.426C212.731 183.843 209.987 182.908 207.527 183.668L207.377 183.716C205.024 184.513 202.531 182.262 202.108 179.814C201.684 177.366 202.682 174.92 203.659 172.636C204.666 170.279 202.817 167.53 200.484 166.468C198.32 165.483 195.721 165.505 193.574 166.527C192.879 166.859 192.753 167.771 192.776 168.552L192.78 168.638C192.9 171.392 193.636 174.288 195.647 176.174C196.245 176.735 196.935 177.188 197.625 177.64C198.488 178.206 199.349 178.771 200.023 179.544C201.236 180.935 201.423 183.54 199.737 184.293C202.629 184.815 205.491 185.506 208.302 186.362C193.177 184.815 179.27 177.68 169.285 169.063C169.081 169.462 168.937 169.884 168.849 170.316C168.873 170.749 168.896 171.16 168.919 171.552C168.951 172.105 168.98 172.619 169.003 173.094C169.484 174.676 170.607 176.07 172.15 176.683C172.028 175.572 172.402 174.415 173.153 173.587C172.666 174.675 171.893 176.763 174.907 178.876ZM198.14 157.583C196.794 157.332 195.426 157.199 194.057 157.185C193.964 157.357 193.928 157.56 193.958 157.753C195.484 157.88 196.987 158.282 198.373 158.935C197.794 159.514 196.837 159.167 196.06 158.885L196.014 158.869C194.686 158.388 193.227 158.271 191.839 158.536C191.131 158.67 190.424 158.913 189.878 159.384C189.333 159.855 188.977 160.588 189.098 161.299C189.254 162.206 190.107 162.825 190.958 163.174C193.069 164.039 195.6 163.795 197.507 162.544C197.662 162.442 197.88 162.611 197.889 162.796C197.898 162.981 197.773 163.144 197.642 163.275C196.882 164.031 195.751 164.272 194.68 164.334C194.368 164.353 194.053 164.359 193.739 164.365C192.977 164.38 192.215 164.395 191.479 164.581C191.578 165.188 192.337 165.397 192.95 165.442C195.295 165.612 197.674 165.296 199.893 164.521C200.449 164.326 200.96 164.883 201.288 165.372L203.678 168.94C204.464 168.201 204.416 166.923 204.046 165.91C203.902 165.515 203.717 165.133 203.534 164.752L203.534 164.752L203.534 164.752L203.533 164.752L203.533 164.752L203.533 164.751L203.533 164.751C203.246 164.157 202.96 163.564 202.826 162.921C202.751 162.566 202.725 162.203 202.698 161.84V161.84C202.661 161.33 202.623 160.821 202.454 160.342C201.86 158.652 199.9 157.911 198.14 157.583ZM169.26 190.149L167.09 188.903C166.849 188.764 166.406 188.741 166.43 189.018C166.356 190.138 166.447 191.51 167.167 192.444C167.621 193.032 167.949 193.333 169.551 193.731L169.433 190.594C169.427 190.427 169.404 190.232 169.26 190.149ZM202.304 173.084C202.568 172.931 202.736 172.658 202.893 172.397C203.174 171.929 203.464 171.434 203.476 170.889C203.489 170.343 203.111 169.748 202.566 169.727C202.295 169.716 202.037 169.845 201.816 170.002C201.324 170.35 200.945 170.854 200.747 171.423C200.997 171.784 201.565 171.461 201.818 171.101C202.07 170.74 202.445 170.285 202.846 170.465C202.581 171.384 202.112 172.245 201.483 172.966C201.651 173.22 202.04 173.237 202.304 173.084ZM206.645 199.581C206.042 198.623 205.39 197.588 204.315 197.276C206.701 201.766 210.398 205.549 214.832 208.037C216.38 208.905 218.013 209.619 219.644 210.331C221.919 211.325 224.191 212.318 226.226 213.729C228.776 215.496 230.884 217.894 232.311 220.648C231.75 216.721 228.466 213.714 224.96 211.857C223.373 211.016 221.705 210.339 220.039 209.661L220.038 209.661L220.038 209.661L220.038 209.661L220.038 209.661L220.038 209.661C218.023 208.842 216.009 208.024 214.14 206.919C211.161 205.157 208.607 202.68 206.755 199.755L206.714 199.69L206.645 199.581ZM214.139 200.909L214.205 201.057C214.499 201.737 214.702 202.59 214.151 203.05C213.712 203.417 213.046 203.277 212.528 203.034C211.408 202.508 210.482 201.579 209.959 200.457C210.613 200.328 211.226 199.999 211.696 199.526C212.086 199.133 212.776 199.212 213.215 199.549C213.655 199.886 213.905 200.407 214.139 200.909ZM213.783 202.517C214.347 201.504 213.196 200.009 212.634 199.912C212.389 199.87 212.137 200.112 211.866 200.372C211.587 200.64 211.289 200.925 210.96 200.942C210.96 200.942 213.219 203.53 213.783 202.517ZM242.245 205.43C255.948 204.98 269.326 198.304 277.925 187.626C278.37 187.073 279.251 187.063 279.87 187.411C280.489 187.758 280.907 188.368 281.303 188.958C281.734 188.895 281.747 188.225 281.45 187.906C281.303 187.749 281.119 187.635 280.935 187.521L280.935 187.521C280.746 187.403 280.557 187.286 280.409 187.122C279.81 186.46 280.13 185.416 280.481 184.595L282.044 180.934C282.254 180.444 282.581 179.871 283.115 179.879C283.505 179.884 283.805 180.21 284.052 180.512C286.75 183.799 289.253 187.246 291.543 190.829C290.131 191.048 288.774 190.352 287.435 189.666C285.94 188.9 284.467 188.145 282.967 188.689C281.66 189.163 280.891 190.478 280.199 191.684C277.935 195.627 275.342 199.426 272.058 202.57C264.431 209.873 253.787 213.033 243.419 215.032C249.832 217.459 256.897 218.14 263.657 216.982C267.525 216.32 271.382 215.014 274.397 212.502C275.617 211.484 276.676 210.29 277.73 209.1L285.495 200.335C285.949 199.822 286.788 200.315 287.212 200.854C287.636 201.393 288.21 202.065 288.856 201.835C288.394 200.8 287.591 199.92 286.603 199.364C286.544 198.128 286.507 196.804 287.164 195.755C287.822 194.706 289.46 194.196 290.313 195.093C293.109 198.034 295.788 201.086 298.342 204.24C296.843 204.476 295.42 203.831 294.006 203.191C293.569 202.993 293.134 202.795 292.697 202.625C290.847 201.901 288.255 201.917 287.412 203.715C285.105 208.632 282.708 213.675 278.749 217.392C272.136 223.602 262.474 225.003 253.461 226.025C249.464 226.479 245.358 226.909 241.466 225.891C238.633 225.15 236.055 223.676 233.516 222.218L231.501 221.061C230.908 221.21 231.384 222.109 231.911 222.419C235.285 224.409 238.762 226.436 242.631 227.046C243.617 227.201 244.615 227.262 245.612 227.299C254.793 227.644 264.044 226.034 272.568 222.606C276.123 221.176 279.74 219.265 281.693 215.968L288.572 204.35C288.835 203.905 289.125 203.435 289.593 203.214C290.162 202.945 290.832 203.117 291.437 203.293L297.886 205.165C298.545 205.357 299.157 204.584 299.088 203.901C299.019 203.219 298.526 202.665 298.058 202.164L292.111 195.799C291.327 194.959 290.483 194.083 289.376 193.777C288.268 193.471 286.843 194.01 286.627 195.138C285.987 198.47 283.711 201.216 281.515 203.801C278.115 207.803 274.576 211.915 269.857 214.217C263.09 217.519 255.094 216.56 247.684 215.219L252.489 213.819C254.867 213.127 257.248 212.433 259.554 211.527C268.496 208.013 276.114 201.233 280.64 192.758C281.426 191.286 282.35 189.586 283.991 189.291C285.34 189.048 286.491 189.845 287.666 190.659C288.365 191.143 289.073 191.633 289.837 191.916C290.965 192.332 292.714 191.74 292.449 190.568C292.389 190.303 292.228 190.074 292.071 189.852L285.954 181.228C285.105 180.031 283.833 178.68 282.437 179.129C281.315 179.49 280.894 180.785 280.523 181.927L280.522 181.931L280.517 181.944L280.487 182.038L280.456 182.131C278.715 187.437 274.033 191.143 269.589 194.525C267.645 196.005 265.696 197.488 263.598 198.74C257.469 202.396 250.281 203.945 243.159 204.407C241.147 204.538 239.882 206.425 238.725 208.153L238.725 208.154C238.672 208.232 238.619 208.311 238.566 208.389C238.531 208.442 238.495 208.495 238.46 208.547C238.44 208.576 238.421 208.605 238.402 208.633C238.373 208.676 238.344 208.717 238.316 208.759C236.333 211.648 233.511 213.952 230.284 215.315C230.824 215.912 231.807 215.554 232.489 215.128C235.727 213.105 238.473 210.301 240.43 207.022C240.861 206.299 241.403 205.458 242.245 205.43ZM199.251 174.474C198.936 175.164 198.233 175.661 197.478 175.728C196.722 175.795 195.943 175.43 195.511 174.807C195.352 174.577 195.354 174.13 195.632 174.154C196.209 174.922 197.414 175.12 198.208 174.578C198.551 174.344 199.147 174.071 199.251 174.474ZM193.177 169.459C193.245 168.881 193.733 168.379 194.308 168.293C194.884 168.207 195.497 168.546 195.731 169.078C195.31 169.078 195.028 169.002 194.793 168.939C194.315 168.81 194.033 168.734 193.177 169.459ZM197.638 172.679L196.983 172.96L196.945 172.938C196.775 173.262 196.275 172.895 196.237 172.532C196.234 172.501 196.231 172.469 196.229 172.437C196.227 172.417 196.226 172.396 196.225 172.375C196.224 172.35 196.223 172.325 196.221 172.3V172.3V172.3L196.221 172.297C196.207 171.989 196.192 171.669 195.937 171.531C195.619 171.989 195.474 172.592 195.659 173.118C195.844 173.644 196.406 174.043 196.955 173.944C197.504 173.845 197.898 173.172 197.638 172.679ZM198.425 168.213C199.253 168.28 199.474 168.325 199.702 168.87C199.747 168.977 199.393 168.876 199.056 168.78C198.808 168.709 198.568 168.641 198.504 168.66C195.731 169.482 197.596 168.147 198.425 168.213ZM198.191 169.645C198.648 170.008 198.516 171.454 197.84 171.182C197.557 171.068 197.219 168.875 198.191 169.645ZM220.109 208.359C219.89 208.087 220.138 207.601 220.487 207.618C220.641 207.718 220.746 207.89 220.763 208.073C220.631 208.288 220.358 208.405 220.111 208.353L220.109 208.359ZM213.882 205.541L214.358 205.469L214.396 205.455C214.562 205.146 214.021 204.793 213.805 205.069C213.758 205.227 213.787 205.406 213.882 205.541ZM217.272 207.419C216.996 207.494 216.959 207.02 217.114 206.78L217.773 207.08C217.672 207.258 217.483 207.383 217.28 207.409L217.272 207.419ZM209.042 200.511C208.969 200.33 208.706 200.26 208.554 200.382L208.595 200.424C208.463 200.597 208.568 200.891 208.78 200.942C208.974 200.923 209.115 200.692 209.042 200.511ZM194.562 171.216C194.297 171.216 194.019 170.956 194.033 170.505C194.047 170.055 194.169 169.638 194.562 169.859C194.955 170.081 194.836 171.216 194.562 171.216ZM70.9868 116.44C71.1465 116.65 71.5117 116.558 71.6523 116.334C71.7929 116.111 71.7752 115.826 71.7498 115.564C71.382 111.765 70.3961 108.027 68.8426 104.54C68.4001 103.548 67.9347 102.309 68.6122 101.459C70.1784 105.374 71.7577 109.337 72.3282 113.514C72.4839 114.654 72.5397 115.903 71.9041 116.862C71.2684 117.821 69.6846 118.189 68.9784 117.28C70.0646 117.054 70.8957 115.954 70.8173 114.847C71.3191 115.189 71.4054 116 70.9868 116.44ZM83.6465 191.869C89.3293 191.558 95.913 190.737 98.8939 185.889C99.6669 184.631 99.502 182.655 99.3661 181.026C99.257 179.718 99.1666 178.633 99.5962 178.327C100.561 177.64 101.332 179.413 101.332 179.413C101.361 179.295 101.393 179.15 101.429 178.986C101.699 177.778 102.195 175.553 102.974 175.971C103.295 176.143 103.184 177.225 103.109 177.968C103.091 178.143 103.075 178.298 103.067 178.419C103.049 178.534 103.046 178.63 103.06 178.698C103.071 178.694 103.082 178.687 103.094 178.679C103.102 178.678 103.112 178.671 103.124 178.657C103.25 178.55 103.422 178.287 103.615 177.995C104.012 177.389 104.494 176.656 104.816 176.926C105.323 177.348 103.522 180.048 103.522 180.048C103.522 180.048 105.661 177.698 105.841 178.698C106.021 179.698 101.151 188.732 96.7546 192.275C92.3583 195.817 86.1636 197.801 80.5622 197.091C80.6873 194.869 81.4248 191.991 83.6465 191.869ZM103.124 178.657C103.113 178.665 103.104 178.673 103.094 178.679C103.06 178.685 103.056 178.584 103.067 178.419C103.108 178.158 103.23 177.8 103.426 177.458C103.389 177.575 103.352 177.689 103.317 177.796C103.161 178.274 103.048 178.621 103.165 178.594C103.149 178.622 103.136 178.643 103.124 178.657ZM104.182 176.618C103.867 176.817 103.613 177.13 103.426 177.458C103.717 176.533 104.013 175.368 103.295 175.275C102.077 175.117 100.886 177.099 101.098 178.152C100.759 177.313 99.3529 177.676 99.0123 178.514C98.7509 179.157 98.8621 179.862 98.9724 180.561L98.9725 180.561C99.0059 180.773 99.0393 180.984 99.0622 181.193C99.4281 184.535 96.9229 187.658 93.8859 189.099C91.0225 190.458 87.773 190.649 84.5945 190.747L83.853 190.769C82.0384 190.817 80.0734 190.775 78.6885 189.617C77.2616 188.423 77.2632 185.591 79.0549 185.091C83.6031 183.821 87.0725 179.389 87.2138 174.669C87.2555 173.274 88.1602 172.113 89.0347 170.991L89.0364 170.989L89.0394 170.985C89.1163 170.886 89.193 170.788 89.2689 170.69L89.461 170.438C90.4398 169.14 91.2443 167.351 90.4224 165.948C89.1492 167.582 86.7639 168.241 84.8327 167.492C84.027 167.18 83.3131 166.658 82.6036 166.139C81.6537 165.444 80.7115 164.756 79.5674 164.583C77.3299 164.246 75.1105 166.512 75.4935 168.742C74.8877 168.234 73.9476 169.003 73.8821 169.791C73.8436 170.254 73.9654 170.705 74.0877 171.158C74.1735 171.475 74.2596 171.794 74.2908 172.118C74.3271 172.496 74.2884 172.874 74.2496 173.253L74.2496 173.253C74.2234 173.509 74.1972 173.765 74.1941 174.021C74.178 175.349 74.7694 176.577 75.3518 177.787C75.4106 177.909 75.4694 178.031 75.5273 178.153L75.6831 178.485C76.3463 179.923 76.8382 181.634 76.1314 183.051C75.4247 184.468 73.019 184.912 72.3374 183.483C68.997 176.478 61.4257 171.708 53.6651 171.72C44.6796 171.733 36.595 177.655 31.2996 184.914C30.6392 185.82 29.9928 186.795 29.8488 187.906C29.7049 189.018 30.2206 190.293 31.2779 190.665C32.3351 191.037 33.706 189.997 33.3615 188.93C33.8979 189.557 34.9949 188.964 35.2475 188.18C35.3895 187.739 35.3878 187.274 35.386 186.807C35.3847 186.443 35.3833 186.078 35.4501 185.723C35.7777 183.982 37.5683 182.977 39.18 182.242L39.505 182.094C43.3014 180.376 47.2567 178.842 51.4092 178.551C55.6803 178.251 60.238 179.438 63.1732 182.555C59.1682 183.505 56.8423 187.524 54.9883 191.236L54.7312 191.753C52.8593 195.512 50.4075 199.613 46.3026 200.41C46.4587 201.22 47.1737 201.89 47.992 201.993L32.9434 210.94L34.0978 212.372C30.4338 217.987 26.2899 223.29 21.7259 228.202C19.2445 230.873 16.0224 233.64 12.4302 233.018C11.7806 232.906 11.1508 232.683 10.5232 232.461C9.60418 232.135 8.68985 231.811 7.72493 231.839C6.10105 231.885 4.4714 233.861 5.57368 235.054C8.01484 237.697 10.801 240.021 13.8391 241.948L13.9178 241.998C14.2877 242.228 14.6945 242.443 15.1233 242.394C15.5568 242.344 15.9098 242.036 16.2323 241.742L36.6131 223.159C38.2823 221.649 40.1192 220.139 42.3427 219.917L42.5304 219.894C44.175 219.665 45.5297 218.625 46.8884 217.583L46.8885 217.583L46.8887 217.583C47.4801 217.129 48.0724 216.674 48.6896 216.286C50.7783 214.971 54.2428 214.836 55.0552 217.167C55.4869 218.405 54.9218 219.665 54.3649 220.906C54.1989 221.276 54.0337 221.644 53.8958 222.01C53.2951 223.603 53.7873 226.053 55.4893 226.023L65.0142 225.854C65.3565 225.851 65.717 225.87 65.9832 226.079C66.2617 226.298 66.3594 226.663 66.413 227.021L66.4351 227.185C66.7938 230.102 66.7443 233.069 66.2885 235.973C65.7946 239.12 64.4804 242.581 61.5113 243.734C59.6386 244.462 57.5526 244.084 55.5801 243.633L43.595 240.833C43.575 239.382 44.888 238.2 46.2878 237.815C47.4746 237.489 48.7211 237.589 49.9557 237.687L50.183 237.705L50.6184 237.738C53.6516 237.946 56.718 237.665 59.6624 236.907L55.4138 226.275C55.847 229.804 56.8017 233.27 58.2374 236.523L44.2707 236.976C43.0546 237.01 41.7043 236.956 40.8868 236.069C40.6769 235.841 40.502 235.561 40.3287 235.283C39.9727 234.712 39.6234 234.152 38.9914 234.079C38.4453 234.016 37.9506 234.381 37.5323 234.738C34.8017 237.067 32.5345 239.937 30.901 243.133C31.4899 244.591 33.4412 244.999 34.957 244.58C35.8438 244.336 36.6531 243.894 37.4641 243.453C38.0394 243.139 38.6155 242.825 39.2206 242.581C42.5967 241.216 46.3083 242.141 49.8737 243.214L51.9916 243.859C56.1767 245.116 61.2796 245.761 64.4159 242.718C66.2666 240.922 66.9409 238.25 67.3073 235.698C68.3647 228.332 67.5075 220.7 64.8425 213.753C67.8139 212.607 69.2161 209.283 70.3062 206.29L72.441 200.43C73.1542 198.472 74.7746 196.069 76.7034 196.858C82.2172 199.113 88.7299 198.159 93.8633 195.137C98.9967 192.114 102.84 187.218 105.428 181.853L105.497 181.708C106.004 180.642 106.649 178.154 106.073 177.878C105.858 177.71 105.475 177.99 105.214 178.181C105.073 178.284 104.967 178.361 104.943 178.327C104.929 178.306 104.976 178.169 105.043 177.973C105.306 177.205 105.876 175.547 104.182 176.618ZM67.6945 209.516C67.0275 211.015 65.9236 212.78 64.2944 212.581C63.4221 212.474 62.7631 211.816 62.1703 211.139L61.8526 210.772C58.4093 206.775 53.7316 204.118 49.0302 201.672L47.4639 200.863C51.2935 200.11 53.6559 196.322 55.3429 192.803L55.8805 191.681C57.423 188.483 59.1782 185.193 62.3598 183.753C62.7996 183.554 63.304 183.396 63.7576 183.561C63.8263 183.586 63.9004 183.615 63.9777 183.644C64.5376 183.86 65.2588 184.137 65.2473 183.606C64.2264 183.195 64.0585 181.706 64.6474 180.776C65.185 179.927 66.1163 179.437 67.0384 179.015L67.3013 178.896C66.7131 178.085 65.4382 178.767 64.7722 179.515L64.7173 179.576C64.0489 180.309 63.0229 181.112 62.2515 180.516C59.0636 178.053 54.815 177.262 50.805 177.649C46.795 178.036 42.9692 179.502 39.3058 181.178C37.9632 181.792 36.5994 182.462 35.603 183.552C34.8322 184.395 34.7523 185.517 34.672 186.645C34.6485 186.975 34.625 187.305 34.5841 187.629C34.4851 188.414 34.0538 188.444 33.6739 188.47C33.4703 188.484 33.2815 188.497 33.1665 188.625C33.1572 188.635 33.1274 188.681 33.0826 188.75C32.8546 189.1 32.2373 190.048 31.9586 189.953C31.5491 189.814 31.7579 188.931 31.7579 188.931C31.7579 188.931 30.5428 189.278 30.4524 188.931C30.136 187.715 31.9586 185.229 31.9586 185.229C35.0229 180.721 39.5671 176.981 44.5632 174.806C49.6517 172.592 55.5897 172.164 60.7916 174.097C66.6561 176.277 71.3001 181.484 72.7972 187.559C73.1704 189.073 74.9322 189.742 76.4715 189.994C76.6163 190.017 76.7629 190.04 76.9105 190.063C78.3311 190.285 79.8418 190.521 80.7472 191.606C81.0141 191.926 80.9403 192.399 80.8487 192.805L80.8218 192.922C80.4841 194.371 79.895 195.992 78.4874 196.432C77.2081 196.832 75.6922 195.8 75.5944 194.463C75.5858 194.346 75.5832 194.221 75.5806 194.095C75.5698 193.576 75.5585 193.028 75.1222 192.814L67.6945 209.516ZM55.5962 217.438C55.1178 214.98 53.6638 212.768 51.756 211.146C51.8305 212.112 52.2393 213.05 52.8967 213.762C49.6639 214.789 46.6152 216.393 43.9374 218.476C43.2207 219.033 42.0031 219.542 41.5834 218.737C39.9319 215.569 37.3028 212.92 34.148 211.245L47.1179 203.792C47.7041 203.455 48.3241 203.108 49.0001 203.102C49.5242 203.097 50.0221 203.297 50.4959 203.531L50.7309 203.65C55.5844 206.15 59.929 209.633 63.4249 213.826C64.2905 214.864 64.6933 216.194 65.0361 217.509L66.5789 223.536C66.681 223.935 66.756 224.429 66.4432 224.698C66.2672 224.849 66.0194 224.875 65.7882 224.892L65.5177 224.913C61.6772 225.209 58.5788 225.447 54.7312 224.892C54.157 223.792 54.5909 222.428 55.0388 221.019C55.4227 219.812 55.817 218.572 55.5962 217.438ZM36.3016 213.732C37.7406 214.999 39.038 216.427 40.1617 217.981C40.2819 218.147 40.4056 218.333 40.3928 218.538C40.3779 218.777 40.1843 218.96 40.0042 219.118L23.241 233.79C22.5421 234.401 21.427 234.294 20.6441 233.794C19.959 233.357 19.4692 232.686 19.0198 232.003L18.8292 231.71C23.1979 229.414 26.0004 225.301 28.8277 221.152L28.8278 221.151C30.6012 218.549 32.3845 215.932 34.5702 213.74C34.7826 213.526 35.0223 213.306 35.3213 213.272C35.6912 213.231 36.0222 213.486 36.3016 213.732ZM85.1179 172.808L85.5457 172.939C86.3792 173.197 86.5177 174.314 86.4116 175.18C85.9724 178.765 83.7437 182.314 80.3074 183.428L80.1846 183.47C77.9454 184.26 76.3446 186.603 76.4402 188.979C74.9372 189.26 73.3257 188.058 73.1677 186.537C73.1362 186.234 73.226 185.84 73.5273 185.793C74.8929 185.584 76.1489 184.746 76.8669 183.565C77.5848 182.385 77.7512 180.884 77.3094 179.575C77.2192 179.308 77.1045 179.04 76.9896 178.772C76.663 178.01 76.3352 177.245 76.5647 176.476C77.088 176.524 77.1873 177.242 77.132 177.765L77.1261 177.828C77.0837 178.343 77.1747 179.005 77.6745 179.073C78.0041 178.317 78.0726 177.47 78.1406 176.629C78.2264 175.568 78.3114 174.516 78.9201 173.671C79.616 172.704 80.8643 172.259 82.0555 172.246C83.0978 172.233 84.117 172.504 85.1179 172.808ZM9.79892 233.26L9.90642 233.136C10.5063 233.005 11.0792 233.773 10.7821 234.311C10.5915 234.656 11.1777 234.997 11.5051 234.777C11.8324 234.558 11.8984 234.113 11.9344 233.72C12.2637 233.617 12.5486 233.994 12.6108 234.334C12.6272 234.423 12.6374 234.516 12.6476 234.609C12.676 234.868 12.7044 235.127 12.8676 235.321C13.0893 235.586 13.6767 235.449 13.5804 235.117C13.4367 234.623 14.0206 234.22 14.5302 234.147C14.6527 234.129 14.7791 234.119 14.9059 234.108H14.9061C15.3069 234.076 15.7109 234.042 16.0026 233.782L16.0466 233.747C16.4168 233.484 16.8752 233.97 17.1547 234.402L17.2847 234.611C17.8991 235.566 18.9435 236.235 20.0695 236.388C20.2901 236.418 20.1779 236.762 20.0158 236.914L16.2157 240.493C16.0315 240.666 15.7329 240.543 15.5171 240.411C13.2614 239.03 11.1791 237.366 9.33426 235.47C8.75307 234.873 9.24596 233.921 9.79892 233.26ZM43.0316 239.921C42.922 240.372 42.6104 240.877 42.1473 240.843C41.031 240.761 39.8992 240.895 38.8334 241.237C38.9312 240.783 38.7323 240.279 38.3507 240.013C38.0722 240.411 38.1861 241.029 38.5883 241.301L37.5258 242.351L37.0172 241.182C36.7664 241.249 36.7591 241.557 36.7764 241.839L36.7887 242.014C36.8396 242.754 36.212 243.474 35.472 243.524C34.732 243.574 34.0134 242.945 33.9645 242.205C33.9112 241.399 34.5286 240.722 35.1027 240.154L39.1789 236.118C39.2656 236.035 39.3649 235.958 39.4819 235.96C39.6112 235.963 39.7161 236.061 39.8071 236.153L41.3977 237.758C41.7062 238.069 41.5112 238.545 41.3212 239.01C41.1257 239.487 40.9354 239.952 41.3047 240.211C41.6643 240.232 41.9637 239.92 42.1019 239.588C42.1724 239.418 42.2152 239.239 42.2581 239.06C42.2992 238.888 42.3404 238.716 42.4061 238.552C42.5401 238.218 42.8294 237.899 43.1895 237.907C43.5496 237.915 43.8275 238.429 43.549 238.658C43.2521 238.901 43.1673 239.297 43.0849 239.682C43.0677 239.763 43.0505 239.843 43.0316 239.921ZM15.1615 241.706C11.4977 239.746 8.25908 236.996 5.73121 233.698C6.06268 233.384 6.56118 233.718 6.88178 234.074L6.96116 234.167C9.36303 237.139 12.3795 239.612 15.7647 241.385C15.7373 241.652 15.3985 241.833 15.1615 241.706ZM32.7329 240.955C34.32 238.88 36.0785 236.935 37.9846 235.148C38.28 234.871 38.8937 234.684 38.9685 235.082C36.7494 237.2 34.6271 239.42 32.6101 241.731C32.391 241.541 32.5566 241.186 32.7329 240.955ZM20.544 235.766C19.4365 235.372 18.4492 234.647 17.7418 233.708C17.4756 233.355 17.3077 232.741 17.711 232.559C18.0298 232.416 18.336 232.717 18.5583 233.009L18.725 233.236C19.4414 234.181 20.4632 234.892 21.5996 235.232C21.6016 235.535 21.3506 235.82 21.0495 235.855C20.878 235.875 20.7067 235.824 20.544 235.766ZM74.8914 174.342C75.4121 174.354 75.8529 174.897 75.7583 175.409L75.7706 175.416C75.8426 175.787 75.7952 176.181 75.6371 176.524C75.0677 175.966 74.7826 175.132 74.8914 174.342ZM84.8101 174.354C84.8758 174.348 84.9449 174.342 85.0151 174.342C85.1029 174.341 85.2042 174.356 85.2998 174.371C85.5575 174.411 85.7732 174.444 85.5695 174.125C85.2902 173.688 84.473 173.639 84.339 174.14C84.3765 174.393 84.5712 174.375 84.8101 174.354ZM85.4679 176.516L85.4797 176.471C85.6784 175.718 85.5634 175.124 85.0151 175.124C84.8035 175.141 84.4806 176.218 84.5114 176.544C84.5422 176.871 84.9104 177.173 85.1955 177.011C85.3647 176.915 85.4188 176.706 85.4679 176.516ZM81.8511 176.288C81.4688 175.757 81.4287 175.001 81.7526 174.432C81.8009 174.348 81.8594 174.264 81.9441 174.216C82.1586 174.093 82.4455 174.259 82.54 174.488C82.6345 174.716 82.5933 174.975 82.5505 175.219C82.5505 175.219 82.2333 176.819 81.8511 176.288ZM162.826 176.303C155.843 174.59 148.548 174.157 141.412 175.033C142.651 172.147 143.194 168.966 142.984 165.832C141.125 167.136 138.072 165.607 138.001 163.337C137.931 161.067 140.883 159.352 142.82 160.537C143.334 160.852 143.898 160.2 144.103 159.634C144.802 157.707 144.809 155.536 144.122 153.604C143.854 152.851 144.99 152.443 145.788 152.459L152.565 152.593C153.02 152.602 153.504 152.604 153.892 152.367C154.281 152.13 154.502 151.56 154.216 151.206C153.043 149.751 154.391 147.147 156.256 147.264C158.121 147.381 159.133 150.133 157.787 151.43C157.536 151.672 158.024 151.983 158.372 151.991L167.233 152.195C168.996 152.236 170.241 154.113 170.313 155.875C170.374 157.365 169.844 158.793 169.322 160.203C169.276 160.326 169.23 160.448 169.185 160.571L169.041 160.97C167.471 165.374 166.966 170.153 167.58 174.787C167.7 175.691 166.868 176.496 165.977 176.691C165.191 176.864 164.382 176.693 163.595 176.496L162.826 176.303Z" fill="#00160A"/>
<path fill-rule="evenodd" clip-rule="evenodd" d="M68.3782 95.2001C68.4427 94.7824 68.9993 94.5412 69.4016 94.6846C69.8039 94.8279 70.163 95.4048 69.8682 95.7312C69.4016 96.2477 68.253 96.0107 68.3782 95.2001Z" fill="#FFB61D"/>
<path fill-rule="evenodd" clip-rule="evenodd" d="M243.486 203.353C243.223 203.574 242.695 203.654 242.646 203.314C243.673 202.27 244.379 200.915 244.647 199.475C244.982 199.386 245.079 199.919 244.995 200.256C244.711 201.39 244.381 202.602 243.486 203.353Z" fill="#00160A"/>
<path d="M16.9072 78.944C16.8968 79.2806 16.3862 79.261 16.0774 79.1266C16.1886 78.8262 16.6392 78.7257 16.8674 78.9504L16.9072 78.944Z" fill="black"/>
<path fill-rule="evenodd" clip-rule="evenodd" d="M162.618 171.421C162.262 171.738 161.664 171.254 161.716 170.781C161.769 170.307 162.189 169.969 162.591 169.714C164.032 168.8 165.702 168.25 167.404 168.127C167.45 168.776 166.608 169.044 165.97 169.169C164.615 169.433 163.324 170.02 162.234 170.868C162.431 170.989 162.574 171.194 162.618 171.421V171.421Z" fill="#00160A"/>
<path fill-rule="evenodd" clip-rule="evenodd" d="M167.452 172.249C166.654 172.634 165.841 172.991 165.016 173.317C165.11 173.665 165.61 173.653 165.949 173.531C166.288 173.408 166.734 173.28 166.953 173.565C166.396 174.416 165.014 174.549 164.304 173.82C163.996 173.503 163.438 173.711 163.039 173.519C162.469 173.244 162.575 172.383 162.911 171.846C163.612 170.725 164.948 170.034 166.268 170.11C166.77 170.139 167.37 170.387 167.404 170.889C165.828 170.79 164.221 171.44 163.157 172.607C163.761 173.074 164.629 172.725 165.31 172.38C165.992 172.034 166.892 171.729 167.452 172.249Z" fill="#00160A"/>
<path fill-rule="evenodd" clip-rule="evenodd" d="M83.5525 176.72C84.0049 177.172 84.1926 177.38 84.1926 178.045C84.1926 178.711 83.8314 179.138 83.2221 179.334C82.9411 179.424 82.5522 179.355 82.4792 179.069C84.5098 178.654 83.7636 177.769 83.5525 176.72Z" fill="#00160A"/>
<path fill-rule="evenodd" clip-rule="evenodd" d="M80.8429 173.888C81.0595 173.17 82.0019 172.781 82.6617 173.139C82.9227 173.28 83.1399 173.537 83.1533 173.834C82.3832 173.852 81.749 173.354 80.8429 173.888Z" fill="#00160A"/>
<path fill-rule="evenodd" clip-rule="evenodd" d="M82.6868 180.305C78.3908 177.92 81.7541 180.976 82.6868 180.305V180.305Z" fill="#00160A"/>
</svg>
